<?xml version="1.0" standalone="no"?>
<!DOCTYPE svg PUBLIC "-//W3C//DTD SVG 1.1//EN" "http://www.w3.org/Graphics/SVG/1.1/DTD/svg11.dtd" >
<svg xmlns="http://www.w3.org/2000/svg" xmlns:xlink="http://www.w3.org/1999/xlink" version="1.1">
<metadata>
Created by FontForge 20161013 at Fri Nov 29 21:49:49 2013
 By ,,,
Copyright (c) 2013 by ArtLebedev Studio. All rights reserved.
</metadata>
<defs>
<font id="ALSMalina" horiz-adv-x="649" >
  <font-face 
    font-family="ALS Malina"
    font-weight="400"
    font-stretch="normal"
    units-per-em="1000"
    panose-1="2 0 0 0 0 0 0 0 0 0"
    ascent="720"
    descent="-280"
    x-height="528"
    cap-height="680"
    bbox="-107 -340 2800 1048"
    underline-thickness="50"
    underline-position="-200"
    unicode-range="U+0020-FB02"
  />
<missing-glyph horiz-adv-x="1309" 
d="M1231 389l-1 -5q-6 -138 -189 -138h-388q-21 0 -34 7t-19 22q-7 17 -8 28q-2 13 -3 36v214q-34 6 -51 29q-16 22 -16 54q0 14 2 24q37 1 104 8q76 8 82 8q18 0 30 -6q11 -6 16 -20q4 -14 6 -24q1 -7 1 -28v-225q0 -11 7 -11h229q55 0 55 21q0 11 -22 17t-54 12
q-28 5 -63 17q-31 11 -54 39t-24 72q0 66 57 104q58 38 165 38q83 0 129 -23q45 -23 45 -65q0 -44 -57 -63q-59 36 -140 36q-47 0 -47 -17q0 -11 38 -22q42 -12 83 -20q46 -9 83 -40q38 -32 38 -79zM189 566l2 -1q-33 -1 -52 -3q-19 31 -19 60q0 52 100 52h128q37 0 56 -13
q20 -14 33 -46l106 -281q13 -38 30 -69q-86 -23 -119 -23q-55 0 -71 55l-8 25h-160l-32 -76h-77q-40 0 -48 27t9 51l91 192q19 38 31 50zM339 416l-35 107l-44 -98q-2 -4 0.5 -6.5t10.5 -2.5h68zM1145 -6h-933q-52 0 -100 -21q-32 43 -32 92q0 42 29 69t93 27h933
q52 0 100 21q32 -43 32 -92q0 -42 -29 -69q-28 -27 -93 -27z" />
    <glyph glyph-name=".notdef" horiz-adv-x="1309" 
d="M1231 389l-1 -5q-6 -138 -189 -138h-388q-21 0 -34 7t-19 22q-7 17 -8 28q-2 13 -3 36v214q-34 6 -51 29q-16 22 -16 54q0 14 2 24q37 1 104 8q76 8 82 8q18 0 30 -6q11 -6 16 -20q4 -14 6 -24q1 -7 1 -28v-225q0 -11 7 -11h229q55 0 55 21q0 11 -22 17t-54 12
q-28 5 -63 17q-31 11 -54 39t-24 72q0 66 57 104q58 38 165 38q83 0 129 -23q45 -23 45 -65q0 -44 -57 -63q-59 36 -140 36q-47 0 -47 -17q0 -11 38 -22q42 -12 83 -20q46 -9 83 -40q38 -32 38 -79zM189 566l2 -1q-33 -1 -52 -3q-19 31 -19 60q0 52 100 52h128q37 0 56 -13
q20 -14 33 -46l106 -281q13 -38 30 -69q-86 -23 -119 -23q-55 0 -71 55l-8 25h-160l-32 -76h-77q-40 0 -48 27t9 51l91 192q19 38 31 50zM339 416l-35 107l-44 -98q-2 -4 0.5 -6.5t10.5 -2.5h68zM1145 -6h-933q-52 0 -100 -21q-32 43 -32 92q0 42 29 69t93 27h933
q52 0 100 21q32 -43 32 -92q0 -42 -29 -69q-28 -27 -93 -27z" />
    <glyph glyph-name=".null" horiz-adv-x="0" 
 />
    <glyph glyph-name="nonmarkingreturn" horiz-adv-x="333" 
 />
    <glyph glyph-name="space" unicode=" " horiz-adv-x="213" 
 />
    <glyph glyph-name="exclam" unicode="!" horiz-adv-x="271" 
d="M260 639h-2q-11 -22 -17 -82q-8 -87 -17 -199q-1 -8 -1 -18v-17q0 -14 -1 -20q-7 -73 -84 -73q-36 0 -99 19q2 32 -10 156q-12 128 -12 149q0 109 120 109q59 0 123 -24zM118 -12v-3q-51 0 -79 26q-27 25 -27 68q0 44 34 78q35 35 91 35q53 0 79 -25q27 -25 27 -67
q0 -44 -34 -78t-91 -34z" />
    <glyph glyph-name="quotedbl" unicode="&#x22;" horiz-adv-x="466" 
d="M218 656l-13 -200q-4 -79 -84 -79q-47 0 -96 18l-9 180q0 43 29 74q28 30 83 30q52 0 90 -23zM451 655l-12 -200q-4 -79 -84 -79q-47 0 -96 18l-10 180q0 43 29 74q28 30 83 30q52 0 90 -23z" />
    <glyph glyph-name="numbersign" unicode="#" horiz-adv-x="554" 
d="M399 128l-17 -82q-10 -54 -78 -54q-39 0 -57 26l21 110h-44l-16 -82q-12 -54 -79 -54q-37 0 -57 26l22 110q-40 -2 -69 -12q-15 42 -15 84q0 34 23 51t81 17h279q71 0 108 14q14 -40 14 -84q0 -34 -22 -52q-23 -18 -81 -18h-13zM159 449l11 63q10 55 69 55q19 0 39 -7
q21 -8 30 -21l-20 -92h45l14 65q10 55 68 55q19 0 39 -7q22 -8 29 -21l-18 -91q35 1 66 14q13 -42 13 -84q0 -35 -22 -51q-23 -17 -81 -17h-278q-73 0 -108 -13q-15 41 -15 84q0 34 23 51t81 17h15z" />
    <glyph glyph-name="dollar" unicode="$" horiz-adv-x="630" 
d="M416 3l-2 -9q0 -58 5 -80q-32 -23 -69 -23q-65 0 -65 85v13q-216 5 -216 126q0 61 51 93q74 -55 167 -55h24q8 0 20 3t18 9t6 17q0 17 -28 24q-29 8 -69 15q-43 8 -81 22q-41 15 -69 54q-29 39 -30 100q0 78 54 129q53 50 157 64v6q0 58 -5 80q32 23 69 23q65 0 65 -85
v-23q78 -7 119 -38q41 -30 41 -78q0 -62 -70 -87q-74 50 -177 50q-60 0 -60 -25q0 -13 32 -24q30 -10 77 -21q48 -11 90 -28q46 -19 77 -55q32 -38 32 -93q-6 -153 -163 -189z" />
    <glyph glyph-name="percent" unicode="%" horiz-adv-x="1017" 
d="M199 224q-98 0 -144 46t-46 129q0 87 51 144t145 57q139 0 174 -105q13 -3 27 -3q29 0 49 10q11 4 18 18q51 108 159 108q40 0 75 -18q34 -18 46 -52q-55 -36 -81 -105l-113 -342q-26 -80 -68 -110t-103 -30q-41 0 -73 13q-33 14 -45 39q47 38 76 119l92 280
q-12 -3 -29 -3q-14 0 -18 1q-1 -83 -51 -139q-50 -55 -141 -57zM817 27v-2q-97 0 -144 47q-46 46 -46 129q0 86 51 143t145 57q93 0 139 -46t46 -127q0 -87 -49 -143q-49 -57 -142 -58zM775 211v1q0 -22 11 -39q10 -16 32 -16q20 0 33 15q13 14 13 41q0 26 -12 41t-31 15
q-20 0 -33 -16t-13 -42zM156 409v1q0 -22 11 -39q10 -16 32 -16q19 0 33 15q13 14 13 41q0 26 -12 41t-31 15q-20 0 -33 -16t-13 -42z" />
    <glyph glyph-name="ampersand" unicode="&#x26;" horiz-adv-x="728" 
d="M423 229l-100 -2q-55 0 -55 -38q0 -25 22 -35q24 -11 54 -11q37 0 66 17q28 16 28 45q0 19 -15 24zM330 371l206 1q106 2 138 33q46 -34 46 -90q0 -37 -26 -63t-75 -26h-7h-6q22 -25 22 -63q0 -83 -81 -129q-82 -47 -227 -47q-148 0 -228 51q-79 51 -79 146q0 61 32 105
q31 43 93 54q-82 37 -82 126t74 136q73 46 204 46q100 0 159 -36t59 -92q0 -48 -43 -76q-64 34 -144 34q-92 0 -92 -58q0 -52 57 -52z" />
    <glyph glyph-name="quotesingle" unicode="'" horiz-adv-x="237" 
d="M223 656l-14 -200q-4 -79 -86 -79q-47 0 -99 18l-10 180q0 44 30 74t85 30q54 0 94 -23z" />
    <glyph glyph-name="parenleft" unicode="(" horiz-adv-x="386" 
d="M216 300v1q0 -243 152 -284q3 -18 3 -31q0 -45 -33 -70q-32 -25 -79 -25q-57 0 -103 29q-45 28 -72 72q-26 42 -43 101q-17 60 -23 108q-6 51 -6 100t6 100q6 48 23 111q17 60 42 105q26 46 72 77t105 31q46 0 78 -25q33 -26 33 -69q0 -13 -3 -31q-152 -41 -152 -300z
" />
    <glyph glyph-name="parenright" unicode=")" horiz-adv-x="386" 
d="M170 300v-3q0 259 -152 300q-3 18 -3 31q0 44 33 69q34 26 78 26q59 0 105 -31q47 -32 72 -76q25 -45 42 -105q17 -63 23 -111q6 -51 6 -100t-6 -100q-6 -48 -23 -108q-17 -59 -43 -101q-27 -43 -72 -72q-46 -29 -103 -29q-47 0 -79 25q-33 25 -33 70q0 13 3 31
q152 41 152 284z" />
    <glyph glyph-name="asterisk" unicode="*" horiz-adv-x="494" 
d="M236 822l-1 -2q86 -5 86 -72q0 -38 -30 -102q73 49 123 49q37 0 58 -24t21 -57q0 -72 -101 -72q-28 0 -70 6q40 -21 56 -30q20 -11 40 -33q19 -20 19 -42q0 -34 -28 -58q-29 -24 -63 -24q-42 0 -66 36t-42 96q-37 -133 -108 -133q-34 0 -63 24q-28 24 -28 59q0 32 30 56
t84 51q-42 -6 -70 -6q-102 0 -102 72q0 33 21 57t56 24q47 0 123 -49q-30 62 -30 102q0 68 85 72z" />
    <glyph glyph-name="plus" unicode="+" horiz-adv-x="524" 
d="M128 370l35 -2q11 0 15 4t4 15v18q0 78 -7 105q46 29 98 29q42 0 66 -24t24 -85v-61h39q70 0 108 18q23 -57 23 -98q0 -40 -24 -61t-88 -21h-37q-11 0 -15 -4t-4 -15v-27q0 -78 7 -105q-46 -29 -98 -29q-42 0 -66 24t-24 86v70h-38q-70 0 -108 -18q-23 57 -23 98t24 62
t89 21z" />
    <glyph glyph-name="comma" unicode="," horiz-adv-x="281" 
d="M9 -62v-2q67 31 67 87q0 19 -13 45t-13 42q0 36 33 59q34 23 74 23q55 0 84 -38t29 -87q0 -73 -49 -126q-49 -54 -123 -54q-66 0 -89 51z" />
    <glyph glyph-name="hyphen" unicode="-" horiz-adv-x="448" 
d="M324 208l-183 -2q-68 0 -107 -18q-22 54 -22 114q0 50 27 68q28 19 86 20h180q68 0 107 18q22 -54 22 -114q0 -49 -26 -67q-25 -17 -84 -19z" />
    <glyph glyph-name="period" unicode="." horiz-adv-x="255" 
d="M118 -12v-3q-51 0 -79 26q-27 25 -27 68q0 44 34 78q35 35 91 35q53 0 79 -25q27 -25 27 -67q0 -44 -34 -78t-91 -34z" />
    <glyph glyph-name="slash" unicode="/" horiz-adv-x="427" 
d="M388 547l-213 -517q-25 -61 -87 -61q-21 0 -48 11q-26 10 -36 27q10 23 36 81l213 516q25 61 87 61q24 0 48 -10q26 -11 36 -27q-10 -22 -36 -81z" />
    <glyph glyph-name="zero" unicode="0" horiz-adv-x="581" 
d="M223 285h1q0 -45 20 -79q20 -33 62 -33q38 0 60 30q23 31 23 87t-21 86t-56 30q-39 0 -64 -31t-25 -90zM298 -11l-1 -1q-284 0 -284 284q0 138 72 227t212 89q272 0 272 -283q0 -134 -68 -225q-67 -89 -203 -91z" />
    <glyph glyph-name="one" unicode="1" horiz-adv-x="536" 
d="M397 167l110 1q19 -39 19 -84q0 -83 -82 -83h-400q-19 42 -19 85q0 82 82 82h52v224q-61 0 -97 24q-35 24 -49 84q35 10 93 33q57 22 104 36t75 14h42q38 0 54 -19t16 -60v-337z" />
    <glyph glyph-name="two" unicode="2" horiz-adv-x="559" 
d="M249 186l88 -4q91 0 133 45q35 -17 57 -49t22 -70q0 -49 -34 -80q-35 -32 -108 -32h-364q-26 54 -26 94q0 86 91 126q110 48 135 69q28 24 28 55q0 23 -17 38q-16 15 -51 15q-67 0 -126 -39q-61 48 -61 104q0 61 65 96q64 34 174 34q121 0 185 -43q65 -44 65 -129
q0 -158 -256 -230z" />
    <glyph glyph-name="three" unicode="3" horiz-adv-x="543" 
d="M443 373l-106 -50q103 -4 148 -42q45 -37 45 -108q0 -188 -273 -188q-111 0 -178 35q-66 34 -66 107q0 62 44 95q73 -52 162 -52q73 0 73 42q0 22 -22 29q-24 8 -78 8q-36 0 -36 31v14q0 27 32 41l125 55h-164q-50 0 -78 34q-29 35 -29 81q0 53 36 87q40 -15 120 -15h245
q72 0 69 -78l-1 -18q-3 -43 -16 -66q-14 -24 -52 -42z" />
    <glyph glyph-name="four" unicode="4" horiz-adv-x="607" 
d="M516 506l-1 -249l65 4q15 -27 15 -54q0 -25 -17 -45q-16 -19 -48 -19h-15v-131q-50 -19 -110 -19q-127 0 -127 88v62h-79q-77 0 -167 -3q-28 32 -28 74q0 41 28 72l218 243q53 56 108 56h88q38 0 54 -19t16 -60zM278 257v146l-126 -146h126z" />
    <glyph glyph-name="five" unicode="5" horiz-adv-x="544" 
d="M196 256h-77q-32 0 -52 19q-21 19 -18 60l25 166q12 78 68 78h218q80 0 120 15q37 -37 37 -87q0 -42 -29 -73q-28 -30 -78 -30h-190l-9 -56q49 25 111 25q96 0 151 -45t55 -127q0 -101 -69 -156q-68 -55 -212 -55q-41 0 -78 6q-35 6 -75 20q-38 14 -60 42q-23 29 -23 69
q0 66 43 97q68 -50 176 -50q60 0 60 44q0 15 -4 23q-4 9 -18 12t-25 3h-39h-8z" />
    <glyph glyph-name="six" unicode="6" horiz-adv-x="562" 
d="M252 325l-2 -3q36 49 117 49q87 0 134 -48q47 -49 47 -126q0 -100 -70 -155q-71 -56 -201 -56q-265 0 -265 264q0 72 16 129q16 58 50 107q33 48 93 75t140 27q57 0 102 -9q46 -9 77 -36q32 -27 32 -67q0 -56 -45 -81q-56 29 -112 29q-113 0 -113 -99zM230 262l-1 -22
q0 -104 60 -104q22 0 39 14t17 42q0 36 -24 53q-25 17 -91 17z" />
    <glyph glyph-name="seven" unicode="7" horiz-adv-x="507" 
d="M499 494l1 -49q0 -86 -49 -129q-66 -59 -97 -108q-30 -48 -30 -106q0 -43 21 -61q-32 -50 -135 -50q-58 0 -96 35t-38 99q0 142 224 267h-178q-52 0 -81 30q-29 31 -29 75q0 60 36 96q39 -14 120 -14h255q42 0 59 -20t17 -65z" />
    <glyph glyph-name="eight" unicode="8" horiz-adv-x="579" 
d="M288 121q26 0 46 11q19 10 19 32q0 38 -72 71q-30 -12 -48 -26q-16 -13 -16 -35q0 -53 71 -53zM241 430l-1 1q0 -32 58 -59q49 22 49 58q0 16 -14 27t-41 11q-21 0 -36 -9t-15 -29zM12 160l-1 2q0 57 31 92q32 37 81 53q-84 41 -84 120q0 80 73 122q74 42 177 42
q117 0 184 -41q66 -40 66 -117q0 -85 -90 -123q116 -38 116 -142q0 -92 -78 -135q-77 -43 -201 -43q-122 0 -198 42t-76 128z" />
    <glyph glyph-name="nine" unicode="9" horiz-adv-x="559" 
d="M307 250l-1 1q-42 -49 -119 -49q-83 0 -129 48q-47 49 -47 123q0 102 73 159q74 57 207 57q255 0 255 -259q0 -342 -294 -342q-203 0 -203 111q0 47 35 79q53 -28 118 -28q101 0 105 100zM326 311v20q0 106 -54 106q-24 0 -42 -15t-18 -43q0 -35 24 -51q25 -17 90 -17z
" />
    <glyph glyph-name="colon" unicode=":" horiz-adv-x="255" 
d="M118 -12v-3q-51 0 -79 26q-27 25 -27 68q0 44 34 78q35 35 91 35q53 0 79 -25q27 -25 27 -67q0 -44 -34 -78t-91 -34zM118 323v-3q-51 0 -79 26q-27 26 -27 68q0 44 34 78q35 35 91 35q53 0 79 -25q27 -26 27 -67q0 -44 -34 -78t-91 -34z" />
    <glyph glyph-name="semicolon" unicode=";" horiz-adv-x="286" 
d="M9 -62v-2q67 31 67 87q0 19 -13 45t-13 42q0 36 33 59q34 23 74 23q55 0 84 -38t29 -87q0 -73 -49 -126q-49 -54 -123 -54q-66 0 -89 51zM149 324v-3q-51 0 -79 26q-27 25 -27 68q0 44 34 78q35 35 91 35q53 0 79 -25q27 -25 27 -67q0 -44 -34 -78t-91 -34z" />
    <glyph glyph-name="less" unicode="&#x3c;" horiz-adv-x="392" 
d="M344 335l-142 -68l141 -70q35 -20 35 -63q0 -38 -28 -69q-29 -32 -69 -41l-235 158q-41 29 -41 79q0 52 38 78l241 167q40 -10 66 -42t26 -69q0 -39 -32 -60z" />
    <glyph glyph-name="equal" unicode="=" horiz-adv-x="494" 
d="M367 297l-223 -1q-70 0 -108 -18q-23 57 -23 101q0 41 24 62t89 21h222q70 0 108 18q23 -57 23 -101q0 -40 -24 -61t-88 -21zM366 86l-223 -1q-71 0 -108 -18q-23 57 -23 101q0 41 24 62t89 21h222q71 0 108 18q23 -57 23 -101q0 -40 -24 -61t-88 -21z" />
    <glyph glyph-name="greater" unicode="&#x3e;" horiz-adv-x="392" 
d="M190 267l-142 68q-32 21 -32 60q0 37 26 69t66 42l241 -167q38 -26 38 -78q0 -50 -41 -79l-235 -158q-40 9 -69 41q-28 31 -28 69q0 43 35 63z" />
    <glyph glyph-name="question" unicode="?" horiz-adv-x="493" 
d="M224 674h-3q48 0 86 -7q41 -8 83 -24q41 -16 67 -51q25 -34 27 -84q0 -42 -16 -74q-17 -34 -40 -54q-16 -14 -48 -40q-24 -19 -40 -43q-16 -23 -16 -52q-38 -27 -108 -27q-48 0 -81 21t-33 63q0 32 23 60q22 26 50 42q30 17 50 30q23 15 23 26q0 19 -51 19
q-64 0 -127 -27q-61 36 -61 95q0 61 56 94q55 33 159 33zM218 -12v-3q-51 0 -79 26q-27 26 -27 68q0 44 34 78q35 35 91 35q53 0 79 -25q27 -25 27 -67q0 -44 -34 -78t-91 -34z" />
    <glyph glyph-name="at" unicode="@" horiz-adv-x="910" 
d="M522 63l-1 -4q-47 -71 -141 -71q-59 0 -99 32q-39 32 -39 87q0 61 49 92q50 32 117 32q60 0 102 -17v15q0 23 -18 36q-18 14 -37 18q-17 4 -39 4q-55 0 -111 -25q-28 31 -28 60q0 42 54 66t128 24q101 0 154 -41q52 -40 52 -117v-126q0 -33 27 -33q60 0 60 155
q0 123 -80 183t-206 60q-141 0 -221 -70q-81 -71 -81 -207q0 -281 246 -281q80 0 118 22q27 -27 27 -59q0 -91 -171 -91q-178 0 -276 110t-98 281q0 108 36 192q36 85 100 135q65 51 148 78q84 27 183 27q197 0 309 -106t112 -276q0 -108 -57 -184t-166 -76q-55 0 -93 15
t-60 60zM511 149l1 15q-18 3 -42 3q-36 0 -51 -12t-15 -28q0 -13 9 -22t24 -9q22 0 45 14t29 39z" />
    <glyph glyph-name="A" unicode="A" horiz-adv-x="670" 
d="M210 505l-1 -3q-39 -1 -73 -5q-25 51 -25 94q0 85 139 85h180q52 0 80 -21q29 -21 47 -74l148 -445q19 -62 42 -109q-114 -37 -168 -37q-35 0 -58 20t-39 69l-13 40h-219l-46 -120h-110q-36 0 -52 21t-15 48q1 25 14 55l127 303q22 50 42 79zM368 430l-57 -147
q-5 -17 12 -17h96z" />
    <glyph glyph-name="B" unicode="B" horiz-adv-x="679" 
d="M393 502h-40v-114h34q73 0 73 62q0 52 -67 52zM266 -3l-1 -3q-37 0 -60 3t-46 13t-34 33q-11 24 -11 60v396q-34 0 -76 -5q-32 47 -32 94q0 28 12 48t34 27q25 8 44 11q21 3 50 3h235q286 0 286 -176q0 -44 -21 -80t-61 -54q59 -14 89 -54q30 -41 30 -95q0 -44 -17 -81
q-16 -35 -42 -58q-25 -23 -66 -39q-37 -15 -75 -25q-32 -8 -84 -13q-55 -5 -80 -5h-74zM398 272h-45v-118q18 -2 33 -2q86 0 86 63q0 57 -74 57z" />
    <glyph glyph-name="C" unicode="C" horiz-adv-x="639" 
d="M384 -12l1 -4q-170 2 -254 87t-84 239q0 166 87 268t265 102q50 0 89 -7q42 -7 78 -24q35 -16 57 -47q21 -30 21 -71q0 -37 -21 -67t-58 -43q-89 50 -159 50q-118 0 -118 -136q0 -60 30 -93t92 -33q87 0 178 56q30 -17 44 -46q15 -30 15 -64q0 -45 -25 -79t-66 -52
q-40 -18 -84 -27t-88 -9z" />
    <glyph glyph-name="D" unicode="D" horiz-adv-x="721" 
d="M373 162l-1 1q67 0 102 53q34 52 34 126q0 80 -34 120t-94 40h-22v-340h15zM119 150l-4 350q-33 0 -75 -5q-32 47 -32 94q0 29 12 48q12 20 34 27q25 8 44 11q21 3 50 3h209q193 0 288 -84q94 -84 94 -235q0 -186 -108 -274q-107 -88 -298 -88h-94q-31 0 -54 9
q-24 10 -35 22q-11 13 -19 36q-7 22 -9 41q-2 18 -3 45z" />
    <glyph glyph-name="E" unicode="E" horiz-adv-x="639" 
d="M370 177l122 -3q57 0 105 13q31 -41 31 -102q0 -30 -12 -49q-12 -20 -34 -27q-23 -8 -40 -9q-24 -2 -46 -2h-271q-53 0 -82 21q-28 21 -28 86v395q-34 0 -76 -5q-32 47 -32 94q0 39 27 63t78 24h375q68 0 105 10q31 -41 31 -99q0 -29 -12 -49t-34 -27q-23 -8 -40 -9
q-24 -2 -46 -2h-136v-63q0 -11 3 -14t12 -3h173q13 -32 13 -67q0 -94 -125 -94h-76v-65q0 -11 3 -14t12 -3z" />
    <glyph glyph-name="F" unicode="F" horiz-adv-x="634" 
d="M371 400l162 -1q13 -30 13 -69q0 -94 -125 -94h-65v-63q4 -77 27 -141q-166 -41 -188 -41q-25 0 -42 12t-24 36q-7 21 -10 47q-2 17 -4 57v358q-34 0 -76 -5q-32 47 -32 94q0 39 27 63t78 24h378q68 0 105 10q31 -41 31 -99q0 -30 -12 -49q-12 -20 -34 -27q-23 -8 -40 -9
q-24 -2 -46 -2h-138v-84q0 -11 3 -14t12 -3z" />
    <glyph glyph-name="G" unicode="G" horiz-adv-x="702" 
d="M502 229l-6 -2q-94 0 -94 77q0 30 13 65h184q62 0 84 -22t22 -96v-243q-35 -21 -79 -21q-35 0 -62 18q-26 18 -37 54q-67 -73 -189 -73q-76 0 -135 27q-58 27 -91 73q-32 46 -49 103q-16 55 -16 123q0 166 87 268t265 102q67 0 123 -12t96 -46q41 -35 41 -85
q0 -34 -21 -64t-55 -43q-71 41 -168 41q-128 0 -128 -140q0 -153 128 -153q87 0 87 29v20z" />
    <glyph glyph-name="H" unicode="H" horiz-adv-x="777" 
d="M505 424l-1 71q-4 77 -27 141q166 41 191 41q26 0 42 -12t24 -36q8 -27 11 -46q2 -17 4 -57v-354q5 -76 27 -141q-166 -41 -191 -41t-42 12t-24 36q-7 21 -10 47q-2 17 -4 57v86q0 10 -3 15q-3 4 -11 4h-151v-76q4 -77 27 -141q-166 -41 -188 -41q-25 0 -42 12t-24 36
q-7 21 -10 47q-2 17 -4 57v341q-47 8 -69 45t-22 87q0 18 3 35q37 2 90 8q14 1 90 11q46 6 80 9q19 0 33 -9q15 -10 20 -19q7 -12 11 -30q5 -22 5 -33v-36v-109q0 -11 3 -14t12 -3h150z" />
    <glyph glyph-name="I" unicode="I" horiz-adv-x="482" 
d="M135 180l2 333q-34 0 -76 -5q-32 47 -32 84q0 39 27 63t78 24h197q68 0 105 10q31 -41 31 -99q0 -74 -78 -78q-11 -2 -11 -13v-332q33 0 75 5q32 -47 32 -90q0 -38 -27 -60q-26 -22 -79 -22h-302q-31 41 -31 89q0 73 78 78q11 2 11 13z" />
    <glyph glyph-name="J" unicode="J" horiz-adv-x="396" 
d="M381 551l-2 -419q0 -61 -12 -112q-12 -50 -38 -93q-25 -42 -69 -66t-102 -24q-64 0 -105 37q-42 38 -42 96q0 25 7 45q22 -2 24 -2q53 0 74 34q21 35 24 94v342q-46 7 -69 45q-22 37 -22 87q0 19 3 35q37 2 90 8q14 2 90 11q46 6 80 9q20 0 33 -9q15 -10 20 -19
q7 -12 11 -30q5 -22 5 -33v-36z" />
    <glyph glyph-name="K" unicode="K" horiz-adv-x="725" 
d="M340 303l-3 -132q5 -77 27 -141q-166 -41 -188 -41q-26 0 -42 12t-24 36q-7 21 -10 47q-2 17 -4 57v341q-46 8 -69 45q-22 37 -22 87q0 18 3 35q37 2 90 8q14 1 90 11q46 6 80 9q20 0 33 -9q15 -10 20 -19q7 -12 11 -30q5 -22 5 -33v-36v-153h29q50 0 69 36q20 37 20 83
q0 50 -27 103q56 59 138 59q68 0 101 -43t33 -102q0 -118 -108 -190q27 -72 77 -128q49 -55 98 -66q-3 -80 -49 -117t-111 -37q-47 0 -78 12t-60 45q-28 32 -49 94q-20 59 -37 157h-43z" />
    <glyph glyph-name="L" unicode="L" horiz-adv-x="578" 
d="M99 144l-1 338q-46 8 -69 45q-22 37 -22 87q0 18 3 35q37 2 90 8q14 1 90 11q46 6 80 9q20 0 33 -9q15 -10 20 -19q7 -12 11 -30q5 -22 5 -33v-36v-323q0 -18 10 -18h49h48q99 0 162 29q20 -26 30 -60q11 -36 11 -55q0 -40 -14 -66q-13 -25 -42 -37q-27 -11 -60 -16
q-28 -4 -81 -4h-263q-21 0 -39 8q-17 8 -26 20t-15 33q-5 19 -7 39q-1 17 -3 44z" />
    <glyph glyph-name="M" unicode="M" horiz-adv-x="892" 
d="M320 390l9 -216q4 -91 26 -145l-52 -13q-10 -3 -29 -7.5t-26 -6.5q-20 -4 -42 -9q-20 -4 -35 -4q-23 0 -40 12t-24 36q-7 21 -10 48q-3 24 -3 56l14 343q-46 7 -67 44q-21 36 -21 86q0 20 3 36q43 3 138 15t143 12q42 0 66 -21t40 -67l77 -223l67 223q18 53 48 72
q30 20 80 15l76 -11q58 -8 74 -30q17 -23 20 -89l18 -369q4 -91 26 -145l-53 -13l-56 -14q-18 -5 -42 -9q-21 -4 -36 -4q-23 0 -40 12t-24 36q-7 21 -10 48q-3 24 -3 56l6 246l-51 -140q-13 -34 -30 -52t-45 -18h-52q-26 0 -42 18q-17 19 -33 52z" />
    <glyph glyph-name="N" unicode="N" horiz-adv-x="745" 
d="M724 527l-9 -512q-37 -20 -92 -20q-42 0 -63 6t-37 22l-239 318q3 -17 6 -171q1 -102 26 -159q-86 -21 -117 -21t-51 11q-19 10 -28 33q-9 22 -12 47q-3 24 -3 62v368q-29 0 -66 -5q-32 47 -32 84q0 39 27 63t78 24h100q48 -1 84 -18q37 -17 71 -60l173 -244l-1 142
q-4 107 -27 160q86 21 117 21q32 0 51 -10q20 -11 29 -33q9 -23 12 -46q3 -24 3 -62z" />
    <glyph glyph-name="O" unicode="O" horiz-adv-x="731" 
d="M287 335v-1q0 -132 103 -132q106 0 106 133q0 63 -27 99t-75 36q-107 0 -107 -135zM393 -13l-2 2q-347 0 -347 327q0 76 21 141t63 116q43 52 111 80q70 29 159 29q339 0 339 -325q0 -75 -20 -141q-19 -64 -60 -117q-40 -52 -108 -82q-67 -30 -156 -30z" />
    <glyph glyph-name="P" unicode="P" horiz-adv-x="689" 
d="M356 208l-2 -37q4 -77 27 -141q-166 -41 -188 -41q-25 0 -42 12t-24 36q-7 21 -10 47q-2 17 -4 57v358q-34 0 -76 -5q-32 47 -32 94q0 28 12 48t34 27q25 8 44 11q21 3 50 3h229q329 -5 329 -235q0 -109 -68 -174q-67 -64 -215 -64q-3 0 -35 2q-7 0 -13.5 0.5t-10.5 1
t-5 0.5zM382 346q84 0 84 82q0 72 -75 72h-37v-153q5 -1 28 -1z" />
    <glyph glyph-name="Q" unicode="Q" horiz-adv-x="732" 
d="M679 -16l1 -3q54 0 93 11q34 -34 34 -84q0 -60 -42 -90t-104 -30q-61 1 -166 39t-160 39q-7 24 -7 43q0 63 48 79q-162 2 -246 84q-84 83 -84 242q0 160 89 264t263 104q338 0 338 -325q0 -85 -24 -156q-24 -70 -78 -124q-54 -53 -130 -73q7 0 73 -10t102 -10zM288 332
v-1q0 -132 102 -132q105 0 105 133q0 63 -27 99t-74 36q-106 0 -106 -135z" />
    <glyph glyph-name="R" unicode="R" horiz-adv-x="712" 
d="M353 208l-1 -38q5 -73 27 -140l-53 -13l-56 -14q-18 -5 -42 -9q-21 -4 -36 -4q-26 0 -42 12t-24 36q-7 21 -10 47q-2 17 -4 57v358q-34 0 -76 -5q-32 47 -32 94q0 29 12 48q12 20 34 27q25 8 44 11q21 3 50 3h218q176 0 258 -58t82 -172q0 -146 -90 -192q51 -86 123 -102
q-3 -85 -45 -124t-106 -39q-21 0 -39 3q-17 3 -31 9q-16 7 -26 16q-12 11 -21 18t-18 24q-11 21 -14 27q-6 15 -11 30l-9 30l-9 32q-7 25 -8 30q-14 -2 -45 -2zM383 345q84 0 84 82q0 72 -75 72h-40v-153q5 -1 31 -1z" />
    <glyph glyph-name="S" unicode="S" horiz-adv-x="589" 
d="M573 218l-1 -2q-4 -113 -78 -172q-73 -58 -230 -58q-252 0 -252 145q0 72 56 107q34 -27 86 -46q50 -18 98 -18q20 0 27 1q16 2 23 4q12 3 18 10t6 20q0 16 -22 25q-24 10 -56 14q-30 4 -72 17q-36 11 -73 32q-35 20 -57 61q-22 42 -24 101q0 104 80 164q79 60 230 60
q118 0 179 -36q62 -36 62 -102q0 -33 -19 -59q-20 -28 -57 -41q-81 57 -195 57q-66 0 -66 -27q0 -16 35 -28q28 -10 84 -25q53 -14 99 -34q50 -21 84 -64q35 -44 35 -106z" />
    <glyph glyph-name="T" unicode="T" horiz-adv-x="637" 
d="M428 439l2 -267q4 -76 27 -141q-166 -41 -188 -41q-25 0 -42 12t-24 36q-7 21 -10 47q-2 17 -4 57v322q-7 1 -30 1q-67 0 -129 -33q-43 76 -43 135q0 60 33 87t119 27q40 0 151 -6t150 -6q76 0 141 24q44 -76 44 -127q0 -55 -35 -84q-34 -28 -129 -28h-22q-11 -2 -11 -15
z" />
    <glyph glyph-name="U" unicode="U" horiz-adv-x="736" 
d="M721 527l1 -243q0 -77 -20 -135q-20 -57 -49 -88t-75 -49q-47 -19 -82 -23q-42 -5 -84 -5t-84 5q-35 4 -82 23q-46 18 -75 49q-31 32 -50 89q-20 58 -20 135v196q-47 7 -69 45q-22 37 -22 87q0 19 3 35q37 2 90 8q14 1 90 11q46 6 80 9q19 0 33 -9q15 -10 20 -19
q7 -12 11 -30q5 -22 5 -33v-36v-290q0 -89 70 -89q69 0 69 89v237q-5 76 -27 141q166 41 186 41q26 0 42 -12t24 -36q8 -27 11 -46q2 -17 4 -57z" />
    <glyph glyph-name="V" unicode="V" horiz-adv-x="707" 
d="M167 118l-5 -1q-3 12 -25 105q-20 88 -36 146q-17 63 -45 119q-28 57 -60 63q32 126 138 126q35 0 59 -10q25 -10 42 -24t32 -42q16 -30 24 -52q13 -34 23 -67q16 -51 46 -183l10 -53q93 191 93 273q0 62 -31 93q20 30 55 48q36 18 74 18q55 0 96 -38q40 -37 40 -110
q0 -48 -29 -121q-29 -74 -63 -134q-35 -62 -63 -129q-29 -69 -29 -106q0 -21 1 -27q-92 -26 -164 -26q-69 0 -114 30t-69 102z" />
    <glyph glyph-name="W" unicode="W" horiz-adv-x="936" 
d="M411 18l-6 -7q-63 -30 -134 -30q-89 0 -120 63q-32 63 -57 265q-11 94 -31 152q-21 61 -66 86q9 59 48 92t92 33q41 0 70 -16q30 -16 49 -43q19 -26 34 -78q15 -51 24 -102q7 -42 19 -133l61 176q9 27 17 43q6 12 18 24t30 12h56q26 0 38 -18q13 -20 26 -61l60 -201
q58 147 58 228q0 65 -31 99q16 34 51 54q34 19 75 19q55 0 95 -38q39 -37 39 -114q0 -85 -63 -260l-14 -42q-12 -36 -15 -48l-11 -39q-7 -24 -10 -46q-3 -20 -3 -39q0 -17 3 -33q-78 -29 -136 -30q-52 -1 -91 33q-39 35 -57 99l-49 210l-62 -196q-19 -58 -7 -114z" />
    <glyph glyph-name="X" unicode="X" horiz-adv-x="664" 
d="M30 525v-3q3 79 42 115t97 36q61 0 103 -39q44 -41 113 -157q73 103 75 191q29 7 71 7q55 0 90 -30t35 -93q0 -58 -43 -110l-117 -143q40 -70 80 -99q38 -28 108 -28q2 -14 2 -32q0 -68 -36 -110t-104 -42q-66 0 -117 39t-99 117l-26 40q-52 -68 -72 -108t-24 -84
q-40 -9 -64 -9q-55 0 -89 29q-33 28 -33 90q0 61 43 113l128 144l-19 30q-41 63 -74 95q-34 32 -70 41z" />
    <glyph glyph-name="Y" unicode="Y" horiz-adv-x="689" 
d="M144 679q34 0 63 -15q27 -14 49 -36q20 -20 43 -63q21 -39 37 -76q18 -42 38 -96q1 3 18 34q18 32 24 46q9 19 17 44q9 27 9 48q0 30 -17 52q41 62 126 62q63 0 96 -33t33 -83q0 -43 -25 -89q-26 -48 -58 -84l-73 -88q-42 -53 -62 -90q-16 -31 -16 -63q0 -59 21 -117
q-160 -40 -187 -40q-26 0 -42 12t-24 36q-7 21 -10 47q-2 17 -4 57v55q0 37 -17 73l-96 194q-46 85 -92 85q10 72 49 100q38 28 100 28z" />
    <glyph glyph-name="Z" unicode="Z" horiz-adv-x="618" 
d="M486 360l-202 -149q20 -2 101 -15q84 -14 125 -14q44 0 85 12q29 -49 29 -103q0 -57 -39 -93t-109 -36q-66 0 -186 27t-175 27q-38 0 -60 -11q-43 46 -43 111q0 83 64 135l291 215h-181q-70 0 -132 -20l-7 19l-7 19l-6 16l-6 15l-4 14q-1 3 -4 15q-2 8 -3 13t-1 13
q0 52 41 84q40 31 126 31l255 -13q108 0 138 11q31 -53 31 -128q0 -41 -19 -78q-20 -39 -40 -60q-19 -20 -62 -57z" />
    <glyph glyph-name="bracketleft" unicode="[" horiz-adv-x="369" 
d="M17 -21l2 676q0 43 20 68q19 24 60 24h222q33 -30 33 -81q0 -32 -18 -54t-52 -22h-61q-11 -2 -11 -13v-521q0 -11 11 -13h61q33 0 51 -22q18 -23 18 -54q0 -41 -34 -90q-37 10 -105 10h-117q-41 0 -60 24q-20 25 -20 68z" />
    <glyph glyph-name="backslash" unicode="\" horiz-adv-x="431" 
d="M252 31l-211 515q-25 58 -36 81q10 16 38 27t50 11q62 0 87 -61l213 -516q25 -58 36 -81q-11 -17 -39 -27q-27 -10 -51 -10q-62 0 -87 61z" />
    <glyph glyph-name="bracketright" unicode="]" horiz-adv-x="369" 
d="M352 646l-2 -679q0 -42 -20 -67q-20 -24 -60 -24h-222q-33 30 -33 81q0 31 18 54q18 22 52 22h61q11 2 11 13v521q0 11 -11 13h-61q-33 0 -51 23t-18 54q0 41 34 90q37 -10 105 -10h117q40 0 60 -24q20 -25 20 -67z" />
    <glyph glyph-name="asciicircum" unicode="^" horiz-adv-x="480" 
d="M276 382l-54 126l-68 -115q-14 -23 -27 -57q-16 -4 -30 -4q-35 0 -60 16q-26 17 -26 48q0 20 6 36q5 14 29 57l85 137q22 40 45 55q22 15 63 15q69 0 106 -23l124 -269q-7 -32 -39 -51q-31 -19 -69 -19q-64 0 -85 48z" />
    <glyph glyph-name="underscore" unicode="_" horiz-adv-x="500" 
d="M376 0l-235 -2q-68 0 -107 -18q-22 54 -22 114q0 50 27 68q28 19 86 20h232q68 0 107 18q22 -54 22 -114q0 -49 -26 -67q-25 -17 -84 -19z" />
    <glyph glyph-name="grave" unicode="`" horiz-adv-x="293" 
d="M219 556l-164 132q-37 28 -18 87q13 31 45 54t66 27l145 -180q14 -16 14 -34q0 -28 -28 -52q-28 -23 -60 -34z" />
    <glyph glyph-name="a" unicode="a" 
d="M596 310l-2 -104q0 -42 33 -42q9 0 27 6q13 -33 13 -66q0 -53 -37 -84q-38 -32 -99 -32q-56 0 -92 21t-56 77q-53 -95 -183 -98q-85 0 -138 40q-54 40 -54 120q0 58 35 98q35 39 84 54q50 15 113 15q60 0 109 -16q-4 64 -93 64q-105 0 -157 -43q-52 30 -52 88q0 57 70 90
q71 33 189 33q53 0 95 -6q41 -6 79 -21t62 -39t39 -63t15 -92zM349 211l-1 25q-20 0 -43 -5q-20 -4 -40 -21q-19 -16 -19 -42q0 -21 12 -33t32 -12q59 0 59 88z" />
    <glyph glyph-name="b" unicode="b" horiz-adv-x="685" 
d="M309 609l-1 -206q53 128 171 128q91 0 140 -66q50 -67 50 -165q0 -144 -84 -229t-234 -85q-59 0 -109 15t-90 45t-63 86q-23 57 -23 130v256q0 105 -44 169q37 9 114 34q82 27 99 27q73 0 74 -139zM312 330v-46q0 -110 64 -110q27 0 42 21t15 49q0 41 -25 66
q-26 26 -61 26q-17 0 -35 -6z" />
    <glyph glyph-name="c" unicode="c" horiz-adv-x="617" 
d="M347 -12h-2q-151 0 -229 69t-78 189q0 131 80 209q79 78 233 78q100 0 174 -50t74 -120q0 -41 -27 -68t-78 -27q-25 0 -46 7q-2 38 -27 56t-60 18q-43 0 -63 -24q-20 -25 -20 -60q0 -85 107 -85q93 0 143 50q26 -16 39 -45q14 -30 14 -58q0 -65 -60 -102
q-59 -37 -174 -37z" />
    <glyph glyph-name="d" unicode="d" horiz-adv-x="685" 
d="M640 613l3 -471q5 -54 25 -111q-33 -5 -99 -23q-63 -17 -81 -17q-23 0 -37 10t-22 29q-7 16 -10 36q-3 18 -3 43q-60 -122 -178 -122q-104 0 -156 72q-52 71 -52 187q0 123 62 205q62 81 174 81q80 0 129 -49v82q-3 82 -35 135q33 7 99 23l73 19q24 6 34 6q46 0 59 -33
t15 -102zM398 201l-2 42q0 109 -67 109q-29 0 -45 -19q-17 -20 -17 -48q0 -42 26 -66q25 -24 65 -24q19 0 40 6z" />
    <glyph glyph-name="e" unicode="e" horiz-adv-x="641" 
d="M45 245h-1q0 134 82 210q83 77 228 77q128 0 201 -45t73 -127q0 -41 -22 -70q-22 -30 -61 -46q-39 -17 -82 -24q-41 -7 -93 -7q-39 0 -84 8q14 -47 110 -47q99 0 164 43q21 -14 33 -40q12 -27 12 -52q0 -68 -72 -103q-71 -34 -180 -34q-308 0 -308 257zM294 289l-1 1
q61 2 92 18q32 17 32 42q0 36 -40 36q-39 0 -60 -28q-22 -29 -23 -69z" />
    <glyph glyph-name="f" unicode="f" horiz-adv-x="523" 
d="M110 523l23 -2q-9 36 -9 58q0 86 57 131t157 45q64 0 102 -30t38 -87q0 -24 -9 -52q-19 3 -39 3q-77 0 -89 -68h10l129 10q17 -43 17 -80q0 -50 -28 -81q-29 -32 -84 -32h-3q-3 1 -10 1.5t-15 0.5v-200q5 -57 25 -108q-24 -4 -69 -15l-78 -17q-31 -7 -49 -7q-23 0 -38 9
q-14 8 -22 29q-7 17 -10 36q-2 12 -4 44v241l-79 -10q-23 44 -23 83q0 98 100 98z" />
    <glyph glyph-name="g" unicode="g" horiz-adv-x="656" 
d="M332 532l2 1q83 -1 142 -20q2 16 2 19q0 46 -29 72q14 27 43 41q30 15 61 15q47 0 71 -27t24 -64q0 -70 -73 -115q40 -52 40 -118q0 -104 -85 -165t-211 -61q-57 0 -95 7q-2 -6 -2 -12q0 -20 44 -28q43 -7 107 -12t125 -15q62 -11 105 -49q44 -39 44 -106
q-7 -193 -339 -193q-63 0 -120 11q-53 10 -91 39q-37 28 -37 71q0 60 60 78q-77 24 -77 102q0 45 27 80t72 54q-112 48 -112 171q0 104 86 164t216 60zM394 -147h-2q0 14 -34 18q-35 5 -85 6q-52 2 -71 6q-5 -10 -5 -19q1 -45 111 -45q34 0 60 9t26 25zM324 380
q-35 0 -53 -19t-18 -45q0 -55 68 -55q33 0 51 20q18 19 18 44q0 55 -66 55z" />
    <glyph glyph-name="h" unicode="h" horiz-adv-x="699" 
d="M654 332l1 -163q1 -37 15 -52q13 -14 50 -19q-25 -109 -154 -109q-159 0 -159 149v170q0 42 -28 42q-27 0 -48 -38t-21 -96v-77q5 -57 25 -108q-27 -5 -71 -15q-61 -14 -78 -17q-32 -6 -45 -6q-24 0 -39 9q-14 8 -22 29q-7 17 -10 36q-2 12 -4 44v408q0 105 -44 169
q37 9 114 34q82 27 99 27q23 0 38 -12q16 -13 23 -36q7 -21 10 -43q2 -15 4 -48v-209q68 132 192 132q70 0 111 -51q41 -52 41 -150z" />
    <glyph glyph-name="i" unicode="i" horiz-adv-x="392" 
d="M342 141l-3 290v29q0 11 -3 26q-3 16 -10 24q-8 9 -21 15t-33 6q-36 -3 -127 -15q-95 -13 -147 -14q0 -25 1 -35q2 -18 7 -35q6 -20 15 -33t27 -22q17 -8 44 -10v-255q2 -32 4 -44q3 -19 10 -36q8 -21 22 -29q15 -9 39 -9q15 0 48 6q19 4 81 17l71 16q-20 51 -25 108z
M329 668l-1 1q0 -51 -34 -81t-100 -30q-125 0 -125 97q0 50 38 82q37 31 101 31q58 0 90 -27q31 -27 31 -73z" />
    <glyph glyph-name="j" unicode="j" horiz-adv-x="384" 
d="M349 69v361v29q0 11 -3 26q-3 16 -10 24q-8 9 -21 15t-33 6q-36 -3 -127 -15q-95 -13 -146 -14q0 -25 1 -35q2 -18 7 -35q6 -19 15 -33q8 -13 27 -22q17 -8 44 -10v-265q0 -46 -1 -62q-2 -24 -6 -60q-4 -34 -14 -57q-9 -22 -28 -36q-20 -15 -45 -15q-20 0 -39 10
q-11 -30 -11 -54q0 -53 39 -87q40 -35 102 -35q56 0 102 23t72 58q27 36 45 85q18 50 24 97q6 48 6 101zM334 667l-1 1q0 -51 -34 -81q-35 -30 -100 -30q-125 0 -125 97q0 50 38 82q37 31 101 31q59 0 90 -27t31 -73z" />
    <glyph glyph-name="k" unicode="k" horiz-adv-x="689" 
d="M64 111l2 402q0 105 -44 169q37 9 114 34q82 27 99 27q23 0 38 -12q16 -13 23 -36q7 -21 10 -43q2 -15 4 -48v-241q86 164 228 164q64 0 96 -35t32 -87q0 -59 -36 -98q-36 -38 -108 -40q32 -39 82 -39q28 0 51 14q27 -40 27 -93q0 -68 -41 -117q-41 -48 -114 -48
q-52 0 -90 22q-39 22 -60 60q-20 36 -31 78q-10 39 -10 86q46 6 76 27t30 46q0 14 -9 23t-24 9q-55 0 -101 -76v-120q5 -57 25 -108q-27 -5 -71 -15q-61 -14 -78 -17q-32 -6 -45 -6q-24 0 -39 9q-14 8 -22 29q-7 17 -10 36q-2 12 -4 44z" />
    <glyph glyph-name="l" unicode="l" horiz-adv-x="380" 
d="M312 609v-394q5 -47 25 -63q22 -17 63 -17q-2 -68 -43 -105t-102 -37q-85 0 -137 45q-53 45 -53 138v343q0 105 -44 169q33 6 116 33q84 27 101 27q74 0 74 -139z" />
    <glyph glyph-name="m" unicode="m" horiz-adv-x="1011" 
d="M654 308l-1 -170q5 -58 24 -108q-35 -8 -68 -16q-47 -12 -78 -18t-48 -6q-24 0 -39 9q-14 8 -22 29q-7 17 -10 36q-2 12 -4 44v200q0 42 -27 42q-29 0 -49 -45v-167q5 -57 25 -108l-70 -16q-69 -15 -79 -17q-31 -6 -47 -6q-24 0 -39 9q-14 8 -22 29q-7 17 -10 36
q-2 12 -4 44v255q-24 1 -43 11q-17 9 -27 23q-9 14 -15 33q-5 17 -7 35q-1 10 -1 35q51 1 146 14q91 12 127 15q20 0 33 -6t21 -15q8 -10 11 -24q3 -15 3 -26v-28v-24q28 58 72 91t93 33q54 0 93 -33t54 -98q28 62 72 96q44 35 95 35q67 0 111 -51q43 -50 43 -149v-159
q1 -37 15 -52q13 -14 48 -19q-24 -109 -156 -109q-68 0 -109 33q-40 33 -40 116v170q0 42 -26 42q-29 0 -45 -45z" />
    <glyph glyph-name="n" unicode="n" horiz-adv-x="727" 
d="M337 224l2 -86q5 -57 25 -108l-71 -16q-62 -13 -81 -17q-33 -6 -48 -6q-24 0 -39 9q-14 8 -22 29q-7 17 -10 36q-2 12 -4 44v255q-24 1 -43 11q-18 9 -27 23t-15 33q-5 17 -7 35q-1 10 -1 35q52 1 147 14q89 12 128 15q19 0 33 -6t21 -15q8 -10 11 -24q3 -15 3 -26v-28
v-32q67 132 192 132q71 0 111 -51q41 -52 41 -150v-159q1 -37 15 -52q13 -14 50 -19q-25 -109 -154 -109q-159 0 -159 149v170q0 42 -28 42q-27 0 -48 -36q-20 -35 -22 -92z" />
    <glyph glyph-name="o" unicode="o" 
d="M273 260l-2 -3q0 -32 18 -56t53 -24q30 0 51 22q21 23 21 60q0 39 -19 61t-49 22q-31 0 -52 -22t-21 -60zM346 -15l1 2q-160 0 -237 68q-76 67 -76 189q0 124 81 205t232 81q156 0 231 -69t75 -190q0 -124 -79 -204t-228 -82z" />
    <glyph glyph-name="p" unicode="p" horiz-adv-x="709" 
d="M87 -73l-1 442q-92 2 -92 135q48 1 136 14q83 12 119 15q21 0 35 -8t18 -25q5 -18 6 -31q2 -18 2 -36v-31q29 65 81 98q53 33 116 33q90 0 141 -64t51 -178q0 -139 -62 -221q-61 -81 -156 -81q-88 0 -147 62v-154q1 -38 15 -58q13 -19 48 -24q-25 -108 -144 -108
q-76 0 -121 54t-45 166zM331 333v-52q0 -42 18 -70t55 -28q29 0 44 20t15 47q0 42 -27 66t-66 24q-22 0 -39 -7z" />
    <glyph glyph-name="q" unicode="q" horiz-adv-x="672" 
d="M388 287l1 53q-13 7 -33 7q-36 0 -63 -27t-27 -71q0 -60 51 -60q31 0 51 26t20 72zM634 381l-1 -530q5 -57 25 -108q-21 -4 -70 -15q-61 -14 -78 -17q-32 -6 -47 -6q-24 0 -39 9q-14 8 -22 29q-7 17 -10 36q-2 12 -4 44v244q-59 -81 -170 -81q-88 0 -138 60
q-49 59 -49 156q0 149 92 239q91 90 254 90q99 0 176 -39t81 -111z" />
    <glyph glyph-name="r" unicode="r" horiz-adv-x="614" 
d="M337 273l-3 -101q1 -37 15 -52q13 -14 50 -19q-24 -109 -154 -109q-158 0 -158 149v225q-24 1 -43 11q-18 9 -27 23t-15 33q-5 17 -7 35q-1 10 -1 35q52 1 147 14q89 12 128 15q19 0 33 -6t21 -15q8 -10 11 -24q3 -15 3 -26v-28v-41q35 74 72 107t90 33q50 0 77 -33
t27 -86q-3 -77 -79 -120q-50 27 -94 27q-61 0 -93 -47z" />
    <glyph glyph-name="s" unicode="s" horiz-adv-x="592" 
d="M270 362l-4 3q0 -9 30 -17l74 -19q44 -11 87 -27q44 -17 74 -51q30 -35 30 -83q0 -176 -284 -176q-236 0 -236 120q0 30 17 56q16 25 47 39q81 -51 180 -51q32 0 32 18q0 11 -27 17q-44 10 -66 14q-39 7 -78 21q-38 13 -66 47q-27 33 -27 83q0 83 74 131q73 48 213 48
q110 0 168 -30q59 -30 59 -85q0 -28 -21 -54t-64 -39q-27 22 -78 37q-50 15 -96 15q-38 0 -38 -17z" />
    <glyph glyph-name="t" unicode="t" horiz-adv-x="473" 
d="M295 561l-1 -27q64 0 129 22q2 -12 11 -54q1 -7 14 -60q6 -26 6 -39q0 -55 -90 -55h-69v-66q0 -127 130 -139q-7 -85 -52 -118t-124 -33q-37 0 -70 12t-63 36t-48 69q-17 44 -19 104v306q-4 70 -24 118q157 40 197 40q73 0 73 -116z" />
    <glyph glyph-name="u" unicode="u" horiz-adv-x="711" 
d="M423 268l-3 114q-4 56 -24 108q172 40 199 40q20 0 33 -7q14 -7 21 -18t12 -27t6 -30q2 -14 3 -34v-275q5 -57 25 -108l-71 -16q-62 -13 -81 -17q-33 -6 -48 -6q-24 0 -39 9q-14 8 -22 29q-7 17 -10 36q-2 12 -4 44v11q-34 -71 -78 -102q-44 -32 -105 -32q-70 0 -111 47
q-40 46 -40 144v187q-24 1 -43 11q-17 9 -27 23q-9 13 -15 33q-5 17 -7 35q-1 10 -1 35q52 1 147 14q89 12 128 15q20 0 33 -6t21 -15q8 -10 11 -24q3 -15 3 -26v-28v-223q0 -42 35 -42q22 0 37 27t15 74z" />
    <glyph glyph-name="v" unicode="v" 
d="M468 12l-4 -1q-87 -24 -163 -24q-133 0 -177 107q-15 38 -29 93l-24 97q-9 38 -33 68t-60 30q16 150 144 150q30 0 54 -9q26 -10 41 -22q17 -13 30 -36q16 -27 23 -43q9 -21 18 -51q7 -24 13 -53l11 -57q3 -19 11 -55l15 30l20 43q2 4 4 9.5t5.5 14.5t6.5 15q10 26 15 45
q5 22 5 36q0 46 -32 66q15 30 52 48q38 18 81 18q57 0 95 -31q39 -32 39 -93q0 -47 -41 -123l-82 -143q-41 -70 -41 -102q0 -17 3 -27z" />
    <glyph glyph-name="w" unicode="w" horiz-adv-x="888" 
d="M598 467l-3 -4q13 31 51 48q39 17 81 17q58 0 96 -31q39 -31 39 -93q0 -53 -27 -122l-55 -134q-27 -64 -27 -107q0 -4 5 -29q-86 -27 -142 -27q-118 0 -147 107l-35 159l-47 -150q-8 -26 -8 -52q0 -22 4 -37q-85 -27 -141 -27q-112 0 -144 96q-6 21 -22 114
q-15 90 -36 147t-58 57q11 132 140 132q50 0 83 -18q32 -18 52 -60q19 -40 28 -90q8 -43 16 -126l48 136q14 38 27 53q14 15 42 15h54q29 0 44 -16q16 -17 26 -51l46 -152l11 34q11 33 14 45q9 36 11 45q6 27 6 46q0 55 -32 75z" />
    <glyph glyph-name="x" unicode="x" horiz-adv-x="644" 
d="M637 166h-4q7 -21 7 -46q0 -58 -39 -96q-38 -37 -103 -37q-113 0 -198 124l-14 18l-28 -37q-34 -51 -36 -98q-46 -11 -65 -11q-55 0 -90 26q-34 25 -34 81q0 48 37 91l102 101l-5 8q-42 57 -67 79q-26 23 -60 24q0 44 15 74q15 29 39 43q24 13 44 18q22 5 41 5
q58 0 101 -28q44 -29 98 -111l20 29q26 38 26 80q0 11 -4 18q49 11 76 11q55 0 90 -26t35 -81q0 -51 -37 -91l-92 -99q28 -41 53 -57q23 -14 62 -16q18 0 30 4z" />
    <glyph glyph-name="y" unicode="y" horiz-adv-x="688" 
d="M425 127l-5 -5q-36 -77 -79 -108t-105 -31q-152 0 -152 191v187q-24 1 -43 11q-17 9 -27 23q-9 13 -15 33q-5 17 -7 35q-1 10 -1 35q52 1 147 14q89 12 128 15q20 0 33 -6t21 -15q8 -10 11 -24q3 -15 3 -26v-28v-223q0 -42 35 -42q23 0 38 27t15 74v116q-4 58 -24 108
q172 40 193 40q20 0 33 -7q14 -7 21 -18t12 -27t6 -30q2 -14 3 -34v-128q0 -71 -5 -143q-5 -65 -18 -134q-14 -70 -37 -121q-24 -51 -60 -94q-37 -43 -91 -65t-126 -22q-82 0 -129 41q-46 40 -46 101q0 69 59 98q34 -29 82 -29q31 0 55 15q25 16 38 36t22 51q9 30 12 56
q3 25 3 53z" />
    <glyph glyph-name="z" unicode="z" horiz-adv-x="601" 
d="M94 205l241 133h-153q-63 0 -117 -16q-39 80 -39 105q0 103 156 103l231 -11h23h21h17q14 0 17 1q5 2 13 3q10 2 14 3l12 4q4 1 12 5q34 -61 34 -117q0 -26 -8 -48q-7 -20 -26 -39q-18 -18 -33 -30q-13 -11 -44 -30l-142 -78q1 0 59 -2t66 -2q58 0 113 11q35 -73 35 -114
q0 -94 -139 -94q-61 0 -144 4t-133 4q-64 0 -102 -6q-38 62 -38 112q0 62 54 99z" />
    <glyph glyph-name="braceleft" unicode="{" horiz-adv-x="405" 
d="M30 262l-1 -4q-12 0 -18 8t-6 20q0 29 25 29q18 0 33 5q13 4 20 11q6 6 9 20q3 13 3 21v25v138q0 86 46 135q47 50 132 50q47 0 81 -23q33 -23 33 -71q0 -14 -3 -30q-34 0 -55 -21t-21 -61v-65q0 -138 -129 -162q62 -11 95 -51t33 -108v-65q0 -40 21 -61t56 -21
q3 -17 3 -30q0 -49 -33 -71q-34 -23 -81 -23q-85 0 -132 50q-46 49 -46 135v138v25q0 7 -3 21t-9 20q-7 6 -20 11q-15 5 -33 5z" />
    <glyph glyph-name="bar" unicode="|" horiz-adv-x="219" 
d="M29 -25v628q0 57 -17 102q60 29 100 29q78 0 78 -108v-628q0 -57 17 -102q-60 -29 -100 -29q-78 0 -78 108z" />
    <glyph glyph-name="braceright" unicode="}" horiz-adv-x="405" 
d="M375 262l-1 -3q-18 0 -33 -5t-20 -10q-6 -6 -9 -19t-3 -21v-25v-138q0 -86 -46 -135t-132 -49q-47 0 -81 23q-33 22 -33 71q0 13 3 30q35 0 56 21t21 61v65q0 68 33 108t95 51q-129 24 -129 162v65q0 41 -21 62t-55 21q-3 17 -3 30q0 49 33 71q34 23 81 23q86 0 132 -49
t46 -135v-138v-25q0 -8 3 -21t9 -19q5 -5 20 -10t33 -5q25 0 25 -29q0 -12 -6 -20t-18 -8z" />
    <glyph glyph-name="asciitilde" unicode="~" horiz-adv-x="637" 
d="M112 132l1 -1q-45 11 -72 45t-27 81q0 67 42 104q43 38 117 38q52 0 143 -32t128 -32q62 0 81 57q44 -11 71 -45q27 -35 27 -81q0 -64 -42 -103t-117 -39q-53 0 -144 32t-127 32q-61 0 -81 -56z" />
    <glyph glyph-name="exclamdown" unicode="&#xa1;" horiz-adv-x="271" 
d="M11 -114v-1q11 22 17 82q8 87 17 199q2 37 3 56q7 73 84 73q36 0 99 -19q-1 -25 11 -156q12 -128 12 -149q0 -109 -120 -109q-58 0 -123 24zM151 536l-1 -3q54 0 80 -25q27 -26 27 -67q0 -44 -34 -78t-91 -34q-51 0 -79 26q-27 25 -27 68q0 44 34 78q35 35 91 35z" />
    <glyph glyph-name="cent" unicode="&#xa2;" horiz-adv-x="598" 
d="M267 499v3q0 53 -5 75q28 22 63 22q61 0 61 -80v-18q72 -5 116 -31q45 -27 45 -79q0 -61 -65 -85q-64 39 -126 39q-99 0 -99 -102q0 -44 25 -69t76 -25q29 0 63 8q30 7 42 14l40 21q49 -22 49 -82q0 -56 -49 -84q-50 -29 -121 -36q0 -52 4 -72q-28 -22 -63 -22
q-60 0 -60 81v17q-193 31 -193 236q0 231 197 269z" />
    <glyph glyph-name="currency" unicode="&#xa4;" horiz-adv-x="709" 
d="M418 214l-252 -1q-52 0 -64 -4q-21 30 -21 60q0 60 76 60h9v128q-44 0 -64 -4q-21 31 -21 78q0 65 77 65h261q144 0 207 -57t63 -144q0 -85 -71 -133q-70 -48 -200 -48zM157 185l293 1q59 0 72 4q21 -30 21 -60q0 -27 -16 -42q-17 -15 -60 -15h-104v-19q0 -37 -15 -46
t-61 -9h-43q-48 0 -63 9t-15 46v19q-52 0 -64 -4q-21 30 -21 56q0 60 76 60zM363 330h36q86 0 86 65q0 63 -86 63h-36v-128z" />
    <glyph glyph-name="yen" unicode="&#xa5;" horiz-adv-x="687" 
d="M180 321l35 -2l-71 102q-42 65 -79 81q7 52 42 78t78 26q25 0 48 -5q22 -5 39 -19q20 -16 30 -28q13 -14 27 -43q16 -32 24 -52q19 -47 26 -66l80 146q18 35 18 66q18 3 87 3q84 0 84 -75q0 -47 -36 -90l-92 -122h22q60 0 73 4q21 -33 21 -57q0 -54 -73 -54h-360
q-60 0 -75 -4q-20 32 -20 57q0 54 72 54zM260 73h-57q-60 0 -75 -4q-20 32 -20 57q0 54 72 54h361q60 0 73 4q21 -33 21 -57q0 -54 -73 -54h-103v-19q0 -38 -15 -47t-61 -9h-44q-49 0 -64 9t-15 47v19z" />
    <glyph glyph-name="section" unicode="&#xa7;" horiz-adv-x="516" 
d="M199 327l1 -2q0 -15 15 -28t30 -21q26 -13 49 -23q22 13 22 42q0 11 -6 20q-7 10 -24 20q-7 4 -17 9.5t-12 6.5q-11 6 -39 18q-19 -15 -19 -42zM95 124l-3 -9q61 -50 137 -50q23 0 35 5q11 5 11 18q0 11 -19 18q-17 7 -49 13q-29 6 -64 18q-36 12 -64 28q-29 16 -49 48
q-19 31 -19 75q0 50 24 87t68 54q-51 43 -51 105q0 86 66 129q67 44 161 44q92 0 143 -33t51 -85q0 -64 -59 -93q-64 44 -130 44q-23 0 -34 -4q-12 -5 -11 -16q2 -13 28 -20q38 -10 66 -17q39 -9 78 -24q38 -15 66 -50q27 -35 27 -84t-24 -87q-24 -37 -68 -54
q51 -40 51 -105q0 -59 -35 -100q-34 -40 -86 -57q-49 -16 -115 -16q-91 0 -142 36t-51 89q0 29 16 54t45 39z" />
    <glyph glyph-name="dieresis" unicode="&#xa8;" horiz-adv-x="499" 
d="M114 487q-50 0 -75 24t-25 64t32 72t86 32q49 0 75 -23q25 -22 25 -63q0 -39 -32 -73q-32 -33 -86 -33zM366 487q-50 0 -75 24t-25 64t32 72t86 32q49 0 75 -23q25 -22 25 -63q0 -39 -32 -73q-32 -33 -86 -33z" />
    <glyph glyph-name="copyright" unicode="&#xa9;" horiz-adv-x="746" 
d="M377 -24l-1 -2q-194 0 -279 83q-84 83 -84 237q0 74 21 135t63 111q43 50 114 77q72 27 166 27q191 0 273 -82q83 -83 83 -234q0 -74 -21 -135q-21 -63 -61 -111q-41 -50 -111 -78q-69 -28 -163 -28zM386 99l-3 1q77 0 117 24q41 24 41 66q0 46 -30 66q-34 -17 -89 -17
q-80 0 -80 67q0 26 17 45q17 18 42 18q37 0 66 -32q37 0 60 18q22 18 22 47q0 43 -42 73t-106 30q-106 0 -163 -58q-57 -59 -57 -159q0 -87 52 -138q53 -51 153 -51z" />
    <glyph glyph-name="guillemotleft" unicode="&#xab;" horiz-adv-x="730" 
d="M293 22l-250 182q-35 26 -35 69q0 37 35 66l250 188q4 -7 13 -18q7 -8 13 -17q51 -69 51 -105q0 -35 -41 -62l-85 -53l84 -47q22 -14 32 -31q11 -19 11 -31q0 -35 -49 -99q-25 -33 -29 -42zM636 21l-250 183q-36 26 -36 69q0 37 36 66l249 188q1 -1 6 -7t8 -11t8 -11
t6 -7q51 -72 51 -105q0 -35 -42 -62l-85 -53l84 -47q23 -14 33 -31q11 -19 11 -31q0 -32 -49 -99q-22 -30 -30 -42z" />
    <glyph glyph-name="logicalnot" unicode="&#xac;" horiz-adv-x="507" 
d="M343 74v93q0 11 -4 15t-15 4h-305q-1 11 -6 31q-5 19 -6 33q-2 18 -2 25q0 79 104 79h293q47 0 68 -26t21 -87v-81q0 -57 -20 -79q-19 -21 -59 -21q-29 0 -69 14z" />
    <glyph glyph-name="registered" unicode="&#xae;" horiz-adv-x="501" 
d="M221 396l1 11h11h12q9 -46 26 -63q16 -16 48 -16q53 0 58 60q-31 11 -44 39q36 17 36 72q-1 43 -34 64t-106 21h-54q-31 0 -40 -16t-9 -48v-136q0 -32 8 -45q8 -12 30 -12q20 0 64 12q-7 29 -7 57zM240 460q-15 0 -18 1v58h23q29 0 29 -28q0 -31 -34 -31zM255 236
q-131 0 -186 54t-55 156t60 167t181 65q125 0 179 -54t54 -154q0 -104 -57 -168t-176 -66z" />
    <glyph glyph-name="macron" unicode="&#xaf;" horiz-adv-x="400" 
d="M302 668l-3 1q41 0 63 9q21 -34 21 -72t-22 -60q-23 -23 -64 -24q-20 0 -108 5t-92 5q-41 0 -63 -9q-21 37 -21 73q0 38 24 60q23 22 69 22q17 0 105 -5t91 -5z" />
    <glyph glyph-name="degree" unicode="&#xb0;" horiz-adv-x="455" 
d="M240 679l2 -1q93 0 148 -50q54 -50 54 -146t-57 -153t-163 -57q-103 0 -157 51t-54 140t59 153q58 63 168 63zM284 475l-2 -1q0 59 -46 59q-21 0 -36 -18t-15 -46q0 -27 14 -43q13 -15 36 -15q19 0 34 17q15 16 15 47z" />
    <glyph glyph-name="plusminus" unicode="&#xb1;" horiz-adv-x="539" 
d="M414 39l-271 -1q-71 0 -108 -18q-23 57 -23 98t24 62t89 21h270q71 0 108 18q23 -57 23 -98q0 -40 -24 -61t-88 -21zM416 345l-38 -3q-11 0 -15 -4t-4 -15v-15q0 -25 7 -66q-76 -17 -111 -17q-77 0 -77 54v64h-38q-70 0 -108 -18q-23 57 -23 98t24 62t89 21h36q11 0 15 4
t4 15v18q0 78 -7 105q46 29 98 29q42 0 66 -24t24 -85v-61h39q71 0 108 18q23 -57 23 -98q0 -40 -24 -61t-88 -21z" />
    <glyph glyph-name="acute" unicode="&#xb4;" horiz-adv-x="293" 
d="M259 687l-164 -132q-32 11 -60 34q-28 24 -28 52q0 18 13 34l145 180q35 -6 66 -28q32 -23 44 -54q9 -21 6 -46t-22 -40z" />
    <glyph glyph-name="mu" unicode="&#xb5;" horiz-adv-x="755" 
d="M467 96l-1 -4q-15 -56 -41 -80q-25 -24 -71 -24q-48 0 -66 38v-80q0 -59 29 -94q28 -34 66 -37q-5 -55 -39 -84q-34 -28 -84 -28q-161 0 -161 204v455q-31 2 -54 15t-33 36q-11 23 -15 43q-4 19 -4 44q52 1 153 14q96 12 132 15q20 0 33 -6t21 -15q8 -10 11 -24
q3 -15 3 -26v-28v-253q0 -52 37 -52q35 0 59 36t24 105v116q-4 56 -24 108q172 40 199 40q20 0 33 -7q14 -7 21 -18t12 -27t6 -30q2 -14 3 -34v-275q5 -57 25 -108l-71 -16q-62 -13 -81 -17q-33 -6 -48 -6q-74 0 -74 96v8z" />
    <glyph glyph-name="mu" unicode="&#x3bc;" horiz-adv-x="755" 
d="M467 96l-1 -4q-15 -56 -41 -80q-25 -24 -71 -24q-48 0 -66 38v-80q0 -59 29 -94q28 -34 66 -37q-5 -55 -39 -84q-34 -28 -84 -28q-161 0 -161 204v455q-31 2 -54 15t-33 36q-11 23 -15 43q-4 19 -4 44q52 1 153 14q96 12 132 15q20 0 33 -6t21 -15q8 -10 11 -24
q3 -15 3 -26v-28v-253q0 -52 37 -52q35 0 59 36t24 105v116q-4 56 -24 108q172 40 199 40q20 0 33 -7q14 -7 21 -18t12 -27t6 -30q2 -14 3 -34v-275q5 -57 25 -108l-71 -16q-62 -13 -81 -17q-33 -6 -48 -6q-74 0 -74 96v8z" />
    <glyph glyph-name="paragraph" unicode="&#xb6;" horiz-adv-x="683" 
d="M583 378l-1 -573q-12 -6 -38 -6q-41 0 -60 19t-19 66v490h-43v-568q-14 -6 -39 -6q-41 0 -60 19t-19 66v156q-37 -23 -92 -23q-101 0 -152 63t-51 156q0 139 87 214t251 75h226q14 0 74 3q24 -35 24 -68q0 -34 -24 -58q-23 -23 -64 -25zM303 199v174q-47 -3 -71 -34
t-24 -81q0 -30 14 -52q14 -21 42 -21q22 0 39 14z" />
    <glyph glyph-name="cedilla" unicode="&#xb8;" horiz-adv-x="333" 
d="M55 -64l19 87h129l-13 -63q64 -8 98 -42q35 -35 35 -82q0 -71 -54 -104t-137 -33q-121 0 -121 90q0 35 19 60q38 -22 104 -22q42 0 42 17q0 10 -19 13t-43 3t-43 12t-19 38q0 11 3 26z" />
    <glyph glyph-name="guillemotright" unicode="&#xbb;" horiz-adv-x="730" 
d="M437 528l248 -182q35 -27 35 -70q0 -37 -35 -66l-250 -188l-12 18q-10 15 -13 18q-51 68 -51 105q0 35 41 62l86 52l-86 48q-42 27 -42 61q0 33 49 100q25 34 30 42zM92 529l250 -185q36 -26 36 -69q0 -37 -36 -66l-249 -188q-6 9 -13 17q-10 11 -15 20q-51 70 -51 105
t42 62l85 52l-85 48q-22 14 -32 31q-11 19 -11 31q0 30 49 100q26 35 30 42z" />
    <glyph glyph-name="onequarter" unicode="&#xbc;" horiz-adv-x="1115" 
d="M793 526l-334 -493q-31 -45 -81 -45q-64 0 -93 57q29 21 51 54l334 493q32 45 81 45q65 0 93 -57q-28 -21 -51 -54zM327 377l88 -1q16 -29 16 -59q0 -58 -67 -58h-329q-16 28 -16 60q0 57 68 57h42v157q-50 0 -81 17q-29 16 -40 59q22 6 77 23q59 18 86 26q36 10 63 10
h35q32 0 45 -13t13 -42v-236zM1037 351l-2 -175l54 3q13 -17 13 -38q0 -18 -14 -32t-39 -14h-13v-91q-44 -14 -90 -14q-105 0 -105 62v43h-64q-72 0 -138 -2q-22 23 -22 52t22 51l180 170q40 40 90 40h72q56 0 56 -55zM840 176v102l-103 -102h103z" />
    <glyph glyph-name="onehalf" unicode="&#xbd;" horiz-adv-x="1157" 
d="M793 526l-334 -493q-31 -45 -81 -45q-64 0 -93 57q29 21 51 54l334 493q32 45 81 45q65 0 93 -57q-28 -21 -51 -54zM327 377l88 -1q16 -29 16 -59q0 -58 -67 -58h-329q-16 28 -16 60q0 57 68 57h42v157q-50 0 -81 17q-29 16 -40 59q22 6 77 23q59 18 86 26q36 10 63 10
h35q32 0 45 -13t13 -42v-236zM900 129l69 -5q75 0 110 32q27 -11 46 -35q18 -23 18 -48q0 -33 -28 -55t-88 -22h-299q-22 35 -22 66q0 59 76 87q30 11 60 23q17 7 38 18q24 13 29 22q6 10 6 24q0 16 -14 27t-42 11q-52 0 -102 -28q-51 33 -51 73q0 43 54 67t144 24
q99 0 153 -30t54 -90q0 -112 -211 -161z" />
    <glyph glyph-name="threequarters" unicode="&#xbe;" horiz-adv-x="1119" 
d="M163 665l202 -2q30 0 44 -14t12 -41l-2 -38q-3 -28 -42 -45l-99 -39q83 -3 121 -29q37 -25 37 -75q0 -131 -224 -131q-93 0 -147 24t-54 74q0 43 37 67q59 -37 133 -37q60 0 60 30q0 15 -18 20q-20 5 -64 5q-30 0 -30 21v10q0 19 26 30l103 38h-135q-43 0 -66 24
q-23 25 -23 57q0 37 30 61q30 -10 99 -10zM798 524l-334 -493q-32 -45 -81 -45q-65 0 -93 57q28 21 51 54l334 493q31 45 81 45q64 0 93 -57q-29 -21 -51 -54zM1044 350l-2 -175l54 3q13 -17 13 -38q0 -18 -14 -32t-39 -14h-13v-91q-44 -14 -90 -14q-105 0 -105 62v43h-64
q-72 0 -138 -2q-22 23 -22 52t22 51l180 170q40 40 90 40h72q56 0 56 -55zM847 175v102l-103 -102h103z" />
    <glyph glyph-name="questiondown" unicode="&#xbf;" horiz-adv-x="493" 
d="M269 -149q-48 0 -86 7q-40 7 -82 24q-41 16 -67 51t-27 84q0 40 17 74t40 54q16 14 48 40q24 19 40 43q17 25 17 52q37 27 108 27q48 0 81 -21t33 -63q0 -32 -23 -60q-22 -26 -50 -42q-30 -17 -50 -30q-23 -15 -23 -26q0 -19 51 -19q64 0 127 27q61 -36 61 -95
q0 -61 -56 -94t-159 -33zM272 537l-1 -3q54 0 80 -25q27 -25 27 -67q0 -44 -34 -78t-91 -34q-51 0 -79 26q-27 26 -27 68q0 44 34 78q35 35 91 35z" />
    <glyph glyph-name="Agrave" unicode="&#xc0;" horiz-adv-x="670" 
d="M210 505l-1 -3q-39 -1 -73 -5q-25 51 -25 94q0 85 139 85h180q52 0 80 -21q29 -21 47 -74l148 -445q19 -62 42 -109q-114 -37 -168 -37q-35 0 -58 20t-39 69l-13 40h-219l-46 -120h-110q-36 0 -52 21t-15 48q1 25 14 55l127 303q22 50 42 79zM368 430l-57 -147
q-5 -17 12 -17h96zM359 702l-164 132q-37 28 -18 87q13 31 45 54t66 27l145 -180q14 -16 14 -34q0 -28 -28 -52q-28 -23 -60 -34z" />
    <glyph glyph-name="Aacute" unicode="&#xc1;" horiz-adv-x="669" 
d="M210 505l-1 -3q-39 -1 -73 -5q-25 51 -25 94q0 85 139 85h180q52 0 80 -21q29 -21 47 -74l148 -445q19 -62 42 -109q-114 -37 -168 -37q-35 0 -58 20t-39 69l-13 40h-219l-46 -120h-110q-36 0 -52 21t-15 48q1 25 14 55l127 303q22 50 42 79zM368 430l-57 -147
q-5 -17 12 -17h96zM526 833l-164 -132q-32 11 -60 34q-28 24 -28 52q0 18 13 34l145 180q35 -6 66 -28q32 -23 44 -54q9 -21 6 -46t-22 -40z" />
    <glyph glyph-name="Acircumflex" unicode="&#xc2;" horiz-adv-x="670" 
d="M210 505l-3 2q-20 -29 -42 -79l-127 -303q-13 -30 -14 -55q-2 -27 15 -48q16 -21 53 -21h110l46 120h219l13 -40q16 -49 39 -69q22 -19 59 -19q54 0 168 37q-23 47 -42 109l-148 445q-18 54 -46 74q-29 21 -79 21h-180q-139 0 -139 -85q0 -43 25 -94q34 4 73 5zM310 288
l57 147l51 -164h-96q-17 0 -12 17zM433 926l124 -157q-7 -31 -37 -49t-65 -18q-47 0 -69 30l-48 83l-38 -61q-14 -20 -30 -54q-45 0 -78 15t-42 44t24 72l54 66q24 30 44 41t53 11q71 0 108 -23z" />
    <glyph glyph-name="Atilde" unicode="&#xc3;" horiz-adv-x="670" 
d="M210 505l-3 2q-20 -29 -42 -79l-127 -303q-13 -30 -14 -55q-2 -27 15 -48q16 -21 53 -21h110l46 120h219l13 -40q16 -49 39 -69q22 -19 59 -19q54 0 168 37q-23 47 -42 109l-148 445q-18 54 -46 74q-29 21 -79 21h-180q-139 0 -139 -85q0 -43 25 -94q34 4 73 5zM310 288
l57 147l51 -164h-96q-17 0 -12 17zM562 826v-2q0 -47 -31 -71t-84 -24q-24 0 -80 8t-78 8q-55 0 -75 -38q-37 5 -61 28q-24 24 -24 60q0 89 105 94q27 0 93 -8t80 -8q53 0 69 42q40 -5 62 -28q23 -24 24 -61z" />
    <glyph glyph-name="Adieresis" unicode="&#xc4;" horiz-adv-x="670" 
d="M210 505l-3 2q-20 -29 -42 -79l-127 -303q-13 -30 -14 -55q-2 -27 15 -48q16 -21 53 -21h110l46 120h219l13 -40q16 -49 39 -69q22 -19 59 -19q54 0 168 37q-23 47 -42 109l-148 445q-18 54 -46 74q-29 21 -79 21h-180q-139 0 -139 -85q0 -43 25 -94q34 4 73 5zM310 288
l57 147l51 -164h-96q-17 0 -12 17zM219 712q-49 0 -75 24q-25 24 -25 64t32 72t86 32q49 0 75 -23q25 -22 25 -63q0 -39 -32 -73q-31 -33 -86 -33zM471 712q-49 0 -75 24q-25 24 -25 64t32 72t86 32q49 0 75 -23q25 -22 25 -63q0 -39 -32 -73q-31 -33 -86 -33z" />
    <glyph glyph-name="Aring" unicode="&#xc5;" horiz-adv-x="670" 
d="M210 505l-3 2q-20 -29 -42 -79l-127 -303q-13 -30 -14 -55q-2 -27 15 -48q16 -21 53 -21h110l46 120h219l13 -40q16 -49 39 -69q22 -19 59 -19q54 0 168 37q-23 47 -42 109l-148 445q-18 54 -46 74q-29 21 -79 21h-180q-139 0 -139 -85q0 -43 25 -94q34 4 73 5zM310 288
l57 147l51 -164h-96q-17 0 -12 17zM358 969l2 -1q65 0 102 -31t37 -91t-39 -95q-40 -35 -114 -35q-71 0 -109 32q-37 31 -37 87t41 95t117 39zM388 842l-1 -2q0 36 -32 36q-14 0 -24 -10q-11 -11 -11 -28q0 -36 34 -36q13 0 24 11q10 10 10 29z" />
    <glyph glyph-name="AE" unicode="&#xc6;" horiz-adv-x="937" 
d="M664 177l128 -4q57 0 105 13q31 -41 31 -102q0 -30 -12 -49q-12 -20 -34 -27q-23 -8 -40 -9q-24 -2 -46 -2h-270q-54 0 -82 21t-28 86v13h-163l-52 -120h-110q-36 0 -51 21t-12 48q3 25 17 55l142 303q20 43 45 79q-39 -1 -73 -5q-22 40 -22 87q0 91 145 91h506
q68 0 105 10q31 -41 31 -99q0 -29 -12 -49t-34 -27q-23 -8 -40 -9q-24 -2 -46 -2h-143v-63q0 -11 3 -14t12 -3h180q13 -32 13 -67q0 -94 -125 -94h-83v-65q0 -11 3 -14t12 -3zM335 265h79v233l-91 -216q-5 -17 12 -17z" />
    <glyph glyph-name="Ccedilla" unicode="&#xc7;" horiz-adv-x="639" 
d="M46 313l-2 -3q0 166 87 268t265 102q50 0 89 -7q42 -7 78 -24q35 -16 57 -47q21 -30 21 -71q0 -37 -21 -67t-58 -43q-89 50 -159 50q-118 0 -118 -136q0 -60 30 -93t92 -33q87 0 178 56q30 -17 44 -46q15 -30 15 -64q0 -74 -61 -113q-61 -38 -150 -49l-6 -32
q64 -8 98 -42q35 -35 35 -82q0 -71 -54 -104t-137 -33q-121 0 -121 90q0 35 19 60q38 -22 104 -22q42 0 42 17q0 10 -19 13q-20 3 -43 3t-43 12q-19 12 -19 38q0 11 3 26l13 58q-131 19 -195 102q-64 82 -64 216z" />
    <glyph glyph-name="Egrave" unicode="&#xc8;" horiz-adv-x="639" 
d="M370 177l122 -3q57 0 105 13q31 -41 31 -102q0 -30 -12 -49q-12 -20 -34 -27q-23 -8 -40 -9q-24 -2 -46 -2h-271q-53 0 -82 21q-28 21 -28 86v395q-34 0 -76 -5q-32 47 -32 94q0 39 27 63t78 24h375q68 0 105 10q31 -41 31 -99q0 -29 -12 -49t-34 -27q-23 -8 -40 -9
q-24 -2 -46 -2h-136v-63q0 -11 3 -14t12 -3h173q13 -32 13 -67q0 -94 -125 -94h-76v-65q0 -11 3 -14t12 -3zM348 702l-164 132q-38 28 -18 87q14 31 45 54t66 27l145 -180q14 -16 14 -34q0 -28 -28 -52q-28 -23 -60 -34z" />
    <glyph glyph-name="Eacute" unicode="&#xc9;" horiz-adv-x="639" 
d="M370 177l122 -3q57 0 105 13q31 -41 31 -102q0 -30 -12 -49q-12 -20 -34 -27q-23 -8 -40 -9q-24 -2 -46 -2h-271q-53 0 -82 21q-28 21 -28 86v395q-34 0 -76 -5q-32 47 -32 94q0 39 27 63t78 24h375q68 0 105 10q31 -41 31 -99q0 -29 -12 -49t-34 -27q-23 -8 -40 -9
q-24 -2 -46 -2h-136v-63q0 -11 3 -14t12 -3h173q13 -32 13 -67q0 -94 -125 -94h-76v-65q0 -11 3 -14t12 -3zM463 833l-164 -132q-32 11 -60 34q-28 24 -28 52q0 18 13 34l145 180q35 -6 66 -28q32 -23 44 -54q9 -21 6 -46t-22 -40z" />
    <glyph glyph-name="Ecircumflex" unicode="&#xca;" horiz-adv-x="639" 
d="M493 177l-127 2q-9 0 -12 3t-3 14v65h76q125 0 125 94q0 35 -13 67h-173q-9 0 -12 3t-3 14v63h136q22 0 46 2q19 2 41 9t34 27t12 49q0 58 -31 99q-37 -10 -105 -10h-375q-51 0 -78 -24t-27 -63q0 -47 32 -94q42 5 76 5v-395q0 -64 29 -85t83 -21h271q23 0 47 2
q19 2 41 9t34 27q12 19 12 49q0 61 -31 102q-48 -13 -105 -13zM419 937l124 -157q-7 -31 -37 -49t-65 -18q-47 0 -69 30l-48 83l-38 -61q-14 -19 -30 -54q-45 0 -78 15t-42 44q-9 28 24 72l54 66q24 30 44 41t53 11q71 0 108 -23z" />
    <glyph glyph-name="Edieresis" unicode="&#xcb;" horiz-adv-x="639" 
d="M493 177l-127 2q-9 0 -12 3t-3 14v65h76q125 0 125 94q0 35 -13 67h-173q-9 0 -12 3t-3 14v63h136q22 0 46 2q19 2 41 9t34 27t12 49q0 58 -31 99q-37 -10 -105 -10h-375q-51 0 -78 -24t-27 -63q0 -47 32 -94q42 5 76 5v-395q0 -64 29 -85t83 -21h271q23 0 47 2
q19 2 41 9t34 27q12 19 12 49q0 61 -31 102q-48 -13 -105 -13zM183 712q-49 0 -75 24q-25 24 -25 64t32 72t86 32q49 0 75 -23q25 -22 25 -63q0 -39 -32 -73q-32 -33 -86 -33zM435 712q-49 0 -75 24q-25 24 -25 64t32 72t86 32q49 0 75 -23q25 -22 25 -63q0 -39 -32 -73
q-31 -33 -86 -33z" />
    <glyph glyph-name="Igrave" unicode="&#xcc;" horiz-adv-x="482" 
d="M135 180l2 333q-34 0 -76 -5q-32 47 -32 84q0 39 27 63t78 24h197q68 0 105 10q31 -41 31 -99q0 -74 -78 -78q-11 -2 -11 -13v-332q33 0 75 5q32 -47 32 -90q0 -38 -27 -60q-26 -22 -79 -22h-302q-31 41 -31 89q0 73 78 78q11 2 11 13zM291 706l-164 132q-37 28 -18 87
q13 31 45 54t66 27l145 -180q14 -16 14 -34q0 -28 -28 -52q-28 -23 -60 -34z" />
    <glyph glyph-name="Iacute" unicode="&#xcd;" horiz-adv-x="482" 
d="M135 180l2 333q-34 0 -76 -5q-32 47 -32 84q0 39 27 63t78 24h197q68 0 105 10q31 -41 31 -99q0 -74 -78 -78q-11 -2 -11 -13v-332q33 0 75 5q32 -47 32 -90q0 -38 -27 -60q-26 -22 -79 -22h-302q-31 41 -31 89q0 73 78 78q11 2 11 13zM401 837l-164 -132q-32 11 -60 34
q-28 24 -28 52q0 18 13 34l145 180q35 -6 66 -28q32 -23 44 -54q9 -21 6 -46t-22 -40z" />
    <glyph glyph-name="Icircumflex" unicode="&#xce;" horiz-adv-x="482" 
d="M135 512l-1 -334q0 -11 -11 -13q-78 -5 -78 -78q0 -48 31 -89h302q51 0 79 23q27 23 27 60q0 43 -32 90q-42 -5 -75 -5v332q0 11 11 13q78 5 78 78q0 58 -31 99q-37 -10 -105 -10h-197q-51 0 -78 -24t-27 -63q0 -37 32 -84q42 5 75 5zM339 930l124 -157q-7 -31 -37 -49
t-65 -18q-47 0 -69 30l-48 83l-38 -61q-14 -20 -30 -54q-45 0 -78 15t-42 44t24 72l54 66q24 30 44 41t53 11q71 0 108 -23z" />
    <glyph glyph-name="Idieresis" unicode="&#xcf;" horiz-adv-x="494" 
d="M142 512l-1 -334q0 -11 -11 -13q-78 -5 -78 -78q0 -48 31 -89h302q51 0 79 23q27 23 27 60q0 43 -32 90q-42 -5 -75 -5v332q0 11 11 13q78 5 78 78q0 58 -31 99q-37 -10 -105 -10h-197q-51 0 -78 -24t-27 -63q0 -37 32 -84q42 5 75 5zM125 708q-49 0 -75 24
q-25 24 -25 64t32 72t86 32q49 0 75 -23q25 -22 25 -63q0 -39 -32 -73q-32 -33 -86 -33zM377 708q-49 0 -75 24q-25 24 -25 64t32 72t86 32q49 0 75 -23q25 -22 25 -63q0 -39 -32 -73q-31 -33 -86 -33z" />
    <glyph glyph-name="Eth" unicode="&#xd0;" horiz-adv-x="721" 
d="M120 388l-4 111q-33 0 -75 -5q-32 47 -32 94q0 28 12 48t34 27q25 8 44 11q21 3 50 3h209q194 0 288 -84t94 -235q0 -186 -108 -274q-107 -88 -298 -88h-94q-32 0 -54 9q-24 10 -35 22q-11 13 -19 36q-7 22 -9 41q-1 18 -3 45v127h-26q-25 0 -53 -7q-24 28 -24 62
q0 57 81 57h22zM354 385l22 1q25 0 53 7q24 -29 24 -62q0 -57 -81 -57h-19v-114h15q67 0 102 53q34 52 34 126q0 80 -34 120t-94 40h-22v-114z" />
    <glyph glyph-name="Ntilde" unicode="&#xd1;" horiz-adv-x="745" 
d="M724 527l-9 -512q-37 -20 -92 -20q-42 0 -63 6t-37 22l-239 318q3 -17 6 -171q1 -102 26 -159q-86 -21 -117 -21t-51 11q-19 10 -28 33q-9 22 -12 47q-3 24 -3 62v368q-29 0 -66 -5q-32 47 -32 84q0 39 27 63t78 24h100q48 -1 84 -18q37 -17 71 -60l173 -244l-1 142
q-4 107 -27 160q86 21 117 21q32 0 51 -10q20 -11 29 -33q9 -23 12 -46q3 -24 3 -62zM609 813v-2q0 -47 -31 -71q-32 -24 -84 -24q-24 0 -80 8t-78 8q-55 0 -75 -38q-38 4 -61 28q-24 24 -24 60q0 90 105 94q27 0 93 -8t80 -8q52 0 69 42q40 -5 62 -28q23 -24 24 -61z" />
    <glyph glyph-name="Ograve" unicode="&#xd2;" horiz-adv-x="731" 
d="M287 335v-1q0 -132 103 -132q106 0 106 133q0 63 -27 99t-75 36q-107 0 -107 -135zM393 -13l-2 2q-347 0 -347 327q0 76 21 141t63 116q43 52 111 80q70 29 159 29q339 0 339 -325q0 -75 -20 -141q-19 -64 -60 -117q-40 -52 -108 -82q-67 -30 -156 -30zM412 707l-164 132
q-38 29 -18 87q14 32 45 54t66 27l145 -180q14 -16 14 -34q0 -28 -28 -52q-28 -23 -60 -34z" />
    <glyph glyph-name="Oacute" unicode="&#xd3;" horiz-adv-x="731" 
d="M287 335v-1q0 -132 103 -132q106 0 106 133q0 63 -27 99t-75 36q-107 0 -107 -135zM393 -13l-2 2q-347 0 -347 327q0 76 21 141t63 116q43 52 111 80q70 29 159 29q339 0 339 -325q0 -75 -20 -141q-19 -64 -60 -117q-40 -52 -108 -82q-67 -30 -156 -30zM502 838
l-164 -132q-32 11 -60 34q-28 24 -28 52q0 18 13 34l145 180q35 -6 66 -28q32 -23 44 -54q9 -21 6 -46t-22 -40z" />
    <glyph glyph-name="Ocircumflex" unicode="&#xd4;" horiz-adv-x="731" 
d="M287 335v1q0 135 107 135q48 0 75 -36t27 -99q0 -133 -106 -133q-103 0 -103 132zM393 -11l2 -2q89 0 156 30q68 30 108 82q41 53 60 117q20 66 20 141q0 325 -339 325q-89 0 -159 -29q-68 -28 -111 -80q-42 -51 -63 -116t-21 -141q0 -327 347 -327zM488 935l124 -157
q-7 -31 -37 -49t-65 -18q-46 0 -69 30l-48 83l-38 -61q-13 -19 -30 -54q-45 0 -78 15t-42 44q-9 28 24 72l54 66q24 30 44 41t53 11q71 0 108 -23z" />
    <glyph glyph-name="Otilde" unicode="&#xd5;" horiz-adv-x="731" 
d="M287 335v1q0 135 107 135q48 0 75 -36t27 -99q0 -133 -106 -133q-103 0 -103 132zM393 -11l2 -2q89 0 156 30q68 30 108 82q41 53 60 117q20 66 20 141q0 325 -339 325q-89 0 -159 -29q-68 -28 -111 -80q-42 -51 -63 -116t-21 -141q0 -327 347 -327zM602 832v-2
q0 -47 -31 -71t-84 -24q-24 0 -80 8t-78 8q-55 0 -75 -38q-38 5 -61 28q-24 24 -24 60q0 89 105 94q27 0 93 -8t80 -8q53 0 69 42q40 -5 62 -28q23 -24 24 -61z" />
    <glyph glyph-name="Odieresis" unicode="&#xd6;" horiz-adv-x="731" 
d="M287 335v1q0 135 107 135q48 0 75 -36t27 -99q0 -133 -106 -133q-103 0 -103 132zM393 -11l2 -2q89 0 156 30q68 30 108 82q41 53 60 117q20 66 20 141q0 325 -339 325q-89 0 -159 -29q-68 -28 -111 -80q-42 -51 -63 -116t-21 -141q0 -327 347 -327zM261 705
q-49 0 -75 24q-25 24 -25 64t32 72t86 32q49 0 75 -23q25 -22 25 -63q0 -39 -32 -73q-31 -33 -86 -33zM513 705q-49 0 -75 24q-25 24 -25 64t32 72t86 32q49 0 75 -23q25 -22 25 -63q0 -39 -32 -73q-31 -33 -86 -33z" />
    <glyph glyph-name="multiply" unicode="&#xd7;" horiz-adv-x="554" 
d="M167 302l-89 84q-40 35 -65 47q45 85 111 85q50 0 115 -62l41 -39l74 74q26 26 66 26q38 0 70 -22q33 -23 45 -55l-144 -128l86 -82q34 -34 64 -49q-47 -83 -114 -83q-50 2 -114 64l-38 35l-73 -74q-26 -26 -66 -26q-39 0 -72 21t-42 56z" />
    <glyph glyph-name="Oslash" unicode="&#xd8;" horiz-adv-x="731" 
d="M359 -11l-16 -37q-30 -80 -99 -80q-25 0 -56 14q-30 14 -42 36l12 29l15 41q9 24 15 39q-144 73 -144 285q0 76 21 141t63 116q43 52 111 80q70 29 159 29q20 0 26 -1l12 35q28 81 99 81q25 0 56 -14q30 -13 42 -36l-39 -103q143 -74 143 -285q0 -75 -20 -141
q-19 -64 -60 -117q-40 -52 -108 -82q-67 -30 -156 -30h-18h-16zM284 336v-1q0 -132 103 -132q106 0 106 133q0 63 -27 99t-75 36q-107 0 -107 -135z" />
    <glyph glyph-name="Ugrave" unicode="&#xd9;" horiz-adv-x="736" 
d="M721 527l1 -243q0 -77 -20 -135q-20 -57 -49 -88t-75 -49q-47 -19 -82 -23q-42 -5 -84 -5t-84 5q-35 4 -82 23q-46 18 -75 49q-31 32 -50 89q-20 58 -20 135v196q-47 7 -69 45q-22 37 -22 87q0 19 3 35q37 2 90 8q14 1 90 11q46 6 80 9q19 0 33 -9q15 -10 20 -19
q7 -12 11 -30q5 -22 5 -33v-36v-290q0 -89 70 -89q69 0 69 89v237q-5 76 -27 141q166 41 186 41q26 0 42 -12t24 -36q8 -27 11 -46q2 -17 4 -57zM393 648l-164 132q-37 28 -18 87q13 31 45 54t66 27l145 -180q14 -16 14 -34q0 -28 -28 -52q-28 -23 -60 -34z" />
    <glyph glyph-name="Uacute" unicode="&#xda;" horiz-adv-x="736" 
d="M721 527l1 -243q0 -77 -20 -135q-20 -57 -49 -88t-75 -49q-47 -19 -82 -23q-42 -5 -84 -5t-84 5q-35 4 -82 23q-46 18 -75 49q-31 32 -50 89q-20 58 -20 135v196q-47 7 -69 45q-22 37 -22 87q0 19 3 35q37 2 90 8q14 1 90 11q46 6 80 9q19 0 33 -9q15 -10 20 -19
q7 -12 11 -30q5 -22 5 -33v-36v-290q0 -89 70 -89q69 0 69 89v237q-5 76 -27 141q166 41 186 41q26 0 42 -12t24 -36q8 -27 11 -46q2 -17 4 -57zM574 779l-164 -132q-32 11 -60 34q-28 24 -28 52q0 18 13 34l145 180q35 -6 66 -28q32 -23 44 -54q9 -21 6 -46t-22 -40z" />
    <glyph glyph-name="Ucircumflex" unicode="&#xdb;" horiz-adv-x="736" 
d="M721 289l-6 239q-2 40 -4 57q-3 26 -10 47q-7 24 -24 36t-42 12q-20 0 -186 -41q23 -65 27 -141v-237q0 -89 -69 -89q-70 0 -70 89v290v36q0 16 -4 33q-5 21 -10 30t-20 19q-13 9 -33 9q-34 -3 -80 -9q-76 -9 -90 -11q-31 -3 -90 -7q-3 -17 -3 -35q0 -49 23 -87
q22 -37 69 -45v-196q0 -77 20 -135q19 -55 50 -88q29 -31 75 -49q47 -19 82 -23q42 -5 84 -5t84 5q35 4 82 23q46 18 75 49q31 32 50 89q20 58 20 135zM483 927l124 -157q-7 -31 -37 -49t-65 -18q-47 0 -69 30l-48 83l-38 -61q-14 -19 -30 -54q-45 0 -78 15t-42 44
q-9 28 24 72l54 66q24 30 44 41t53 11q71 0 108 -23z" />
    <glyph glyph-name="Udieresis" unicode="&#xdc;" horiz-adv-x="736" 
d="M721 289l-6 239q-2 40 -4 57q-3 26 -10 47q-7 24 -24 36t-42 12q-20 0 -186 -41q23 -65 27 -141v-237q0 -89 -69 -89q-70 0 -70 89v290v36q0 16 -4 33q-5 21 -10 30t-20 19q-13 9 -33 9q-34 -3 -80 -9q-76 -9 -90 -11q-31 -3 -90 -7q-3 -17 -3 -35q0 -49 23 -87
q22 -37 69 -45v-196q0 -77 20 -135q19 -55 50 -88q29 -31 75 -49q47 -19 82 -23q42 -5 84 -5t84 5q35 4 82 23q46 18 75 49q31 32 50 89q20 58 20 135zM254 708q-50 0 -75 24t-25 64t32 72t86 32q49 0 75 -23q25 -22 25 -63q0 -39 -32 -73q-32 -33 -86 -33zM506 708
q-50 0 -75 24t-25 64t32 72t86 32q49 0 75 -23q25 -22 25 -63q0 -39 -32 -73q-32 -33 -86 -33z" />
    <glyph glyph-name="Yacute" unicode="&#xdd;" horiz-adv-x="689" 
d="M144 679q34 0 63 -15q27 -14 49 -36q20 -20 43 -63q21 -39 37 -76q18 -42 38 -96q1 3 18 34q18 32 24 46q9 19 17 44q9 27 9 48q0 30 -17 52q41 62 126 62q63 0 96 -33t33 -83q0 -43 -25 -89q-26 -48 -58 -84l-73 -88q-42 -53 -62 -90q-16 -31 -16 -63q0 -59 21 -117
q-160 -40 -187 -40q-26 0 -42 12t-24 36q-7 21 -10 47q-2 17 -4 57v55q0 37 -17 73l-96 194q-46 85 -92 85q10 72 49 100q38 28 100 28zM516 754l-164 -132q-32 11 -60 34q-28 24 -28 52q0 18 13 34l145 180q35 -6 66 -28q32 -23 44 -54q9 -21 6 -46t-22 -40z" />
    <glyph glyph-name="Thorn" unicode="&#xde;" horiz-adv-x="674" 
d="M366 33v-1q-166 -41 -188 -41q-26 0 -42 12t-24 36q-7 21 -10 47q-2 17 -4 57v341q-46 8 -69 45q-22 37 -22 87q0 18 3 35q37 2 90 8q14 1 90 11q46 6 80 9q52 0 66 -62h36q317 -9 317 -235q0 -109 -68 -174q-67 -64 -215 -64q-22 0 -64 3q6 -61 24 -114zM369 285l-1 -1
q84 0 84 82q0 72 -75 72h-37q-1 3 -1 12v-165h9h12h9z" />
    <glyph glyph-name="germandbls" unicode="&#xdf;" horiz-adv-x="713" 
d="M642 425l-6 -5q-66 0 -66 -47q0 -20 16 -37q18 -20 39 -35q23 -17 45 -36t39 -51q16 -31 16 -71q0 -63 -52 -111q-53 -48 -148 -48q-190 0 -190 101q0 47 30 84q19 -12 72 -12q31 0 42 7q12 8 12 24q0 17 -16 32q-15 14 -39 28q-30 18 -45 28q-22 15 -39 41
q-16 25 -16 59q0 51 33 87q34 37 88 41q0 44 -16 63q-17 20 -52 20q-47 0 -68 -30t-21 -103v-313q4 -69 20 -108q-26 -5 -66 -15q-54 -14 -70 -18q-28 -7 -46 -7q-23 0 -38 9q-14 8 -22 29q-7 17 -10 36q-2 12 -4 44v369q0 72 26 129q26 55 72 87q48 32 102 47q56 15 123 15
q129 0 209 -60t80 -156q0 -64 -34 -117z" />
    <glyph glyph-name="agrave" unicode="&#xe0;" 
d="M596 310l-2 -104q0 -42 33 -42q9 0 27 6q13 -33 13 -66q0 -53 -37 -84q-38 -32 -99 -32q-56 0 -92 21t-56 77q-53 -95 -183 -98q-85 0 -138 40q-54 40 -54 120q0 58 35 98q35 39 84 54q50 15 113 15q60 0 109 -16q-4 64 -93 64q-105 0 -157 -43q-52 30 -52 88q0 57 70 90
q71 33 189 33q53 0 95 -6q41 -6 79 -21t62 -39t39 -63t15 -92zM349 211l-1 25q-20 0 -43 -5q-20 -4 -40 -21q-19 -16 -19 -42q0 -21 12 -33t32 -12q59 0 59 88zM358 558l-164 132q-38 28 -18 87q14 31 45 54t66 27l145 -180q14 -16 14 -34q0 -28 -28 -52q-28 -23 -60 -34z
" />
    <glyph glyph-name="aacute" unicode="&#xe1;" 
d="M596 310l-2 -104q0 -42 33 -42q9 0 27 6q13 -33 13 -66q0 -53 -37 -84q-38 -32 -99 -32q-56 0 -92 21t-56 77q-53 -95 -183 -98q-85 0 -138 40q-54 40 -54 120q0 58 35 98q35 39 84 54q50 15 113 15q60 0 109 -16q-4 64 -93 64q-105 0 -157 -43q-52 30 -52 88q0 57 70 90
q71 33 189 33q53 0 95 -6q41 -6 79 -21t62 -39t39 -63t15 -92zM349 211l-1 25q-20 0 -43 -5q-20 -4 -40 -21q-19 -16 -19 -42q0 -21 12 -33t32 -12q59 0 59 88zM448 688l-164 -132q-32 11 -60 34q-28 24 -28 52q0 18 13 34l145 180q35 -6 66 -28q32 -23 44 -54q9 -21 6 -46
t-22 -40z" />
    <glyph glyph-name="acircumflex" unicode="&#xe2;" 
d="M596 310l-2 -104q0 -42 33 -42q9 0 27 6q13 -33 13 -66q0 -53 -37 -84q-38 -32 -99 -32q-56 0 -92 21t-56 77q-53 -95 -183 -98q-85 0 -138 40q-54 40 -54 120q0 58 35 98q35 39 84 54q50 15 113 15q60 0 109 -16q-4 64 -93 64q-105 0 -157 -43q-52 30 -52 88q0 57 70 90
q71 33 189 33q53 0 95 -6q41 -6 79 -21t62 -39t39 -63t15 -92zM349 211l-1 25q-20 0 -43 -5q-20 -4 -40 -21q-19 -16 -19 -42q0 -21 12 -33t32 -12q59 0 59 88zM407 782l124 -157q-7 -31 -37 -49t-65 -18q-47 0 -69 30l-48 83l-38 -61q-14 -20 -30 -54q-45 0 -78 15t-42 44
t24 72l54 66q24 30 44 41t53 11q71 0 108 -23z" />
    <glyph glyph-name="atilde" unicode="&#xe3;" 
d="M596 310l-2 -104q0 -42 33 -42q9 0 27 6q13 -33 13 -66q0 -53 -37 -84q-38 -32 -99 -32q-56 0 -92 21t-56 77q-53 -95 -183 -98q-85 0 -138 40q-54 40 -54 120q0 58 35 98q35 39 84 54q50 15 113 15q60 0 109 -16q-4 64 -93 64q-105 0 -157 -43q-52 30 -52 88q0 57 70 90
q71 33 189 33q53 0 95 -6q41 -6 79 -21t62 -39t39 -63t15 -92zM349 211l-1 25q-20 0 -43 -5q-20 -4 -40 -21q-19 -16 -19 -42q0 -21 12 -33t32 -12q59 0 59 88zM533 670v-2q0 -47 -31 -71q-32 -24 -84 -24q-24 0 -80 8t-78 8q-55 0 -75 -38q-38 5 -61 28q-24 24 -24 60
q0 89 105 94q27 0 93 -8t80 -8q52 0 69 42q40 -5 62 -28q23 -24 24 -61z" />
    <glyph glyph-name="adieresis" unicode="&#xe4;" 
d="M596 310l-2 -104q0 -42 33 -42q9 0 27 6q13 -33 13 -66q0 -53 -37 -84q-38 -32 -99 -32q-56 0 -92 21t-56 77q-53 -95 -183 -98q-85 0 -138 40q-54 40 -54 120q0 58 35 98q35 39 84 54q50 15 113 15q60 0 109 -16q-4 64 -93 64q-105 0 -157 -43q-52 30 -52 88q0 57 70 90
q71 33 189 33q53 0 95 -6q41 -6 79 -21t62 -39t39 -63t15 -92zM349 211l-1 25q-20 0 -43 -5q-20 -4 -40 -21q-19 -16 -19 -42q0 -21 12 -33t32 -12q59 0 59 88zM178 563q-50 0 -75 24t-25 64t32 72t86 32q49 0 75 -23q25 -22 25 -63q0 -39 -32 -73q-31 -33 -86 -33zM430 563
q-50 0 -75 24t-25 64t32 72t86 32q49 0 75 -23q25 -22 25 -63q0 -39 -32 -73q-32 -33 -86 -33z" />
    <glyph glyph-name="aring" unicode="&#xe5;" 
d="M596 310l-2 -104q0 -42 33 -42q9 0 27 6q13 -33 13 -66q0 -53 -37 -84q-38 -32 -99 -32q-56 0 -92 21t-56 77q-53 -95 -183 -98q-85 0 -138 40q-54 40 -54 120q0 58 35 98q35 39 84 54q50 15 113 15q60 0 109 -16q-4 64 -93 64q-105 0 -157 -43q-52 30 -52 88q0 57 70 90
q71 33 189 33q53 0 95 -6q41 -6 79 -21t62 -39t39 -63t15 -92zM349 211l-1 25q-20 0 -43 -5q-20 -4 -40 -21q-19 -16 -19 -42q0 -21 12 -33t32 -12q59 0 59 88zM332 820l2 -1q65 0 102 -31t37 -91q0 -61 -39 -95q-40 -35 -114 -35q-71 0 -109 32q-37 31 -37 87t41 95t117 39
zM362 693l-1 -2q0 36 -32 36q-14 0 -24 -10q-11 -11 -11 -28q0 -36 34 -36q13 0 24 11q10 10 10 29z" />
    <glyph glyph-name="ae" unicode="&#xe6;" horiz-adv-x="930" 
d="M10 148h4q0 58 35 98q35 39 84 54q50 15 113 15q62 0 111 -16q-4 64 -95 64q-105 0 -157 -43q-52 30 -52 88q0 57 70 90q71 33 189 33q139 0 188 -70q57 70 177 70q99 0 171 -45t72 -125q0 -41 -22 -70q-22 -30 -61 -46q-39 -17 -82 -24q-41 -7 -93 -7q-35 0 -80 8
q14 -47 105 -47q99 0 164 43q21 -14 33 -40q12 -27 12 -52q0 -68 -72 -103q-71 -34 -180 -34q-95 0 -156 23q-59 22 -94 86q-25 -55 -79 -82t-118 -27q-79 0 -133 42t-54 117zM252 167v2q0 -21 12 -33t32 -12q58 0 61 81q-2 30 -2 34q-37 -1 -70 -18t-33 -54zM592 291l-1 -2
q60 1 90 18t30 43q0 36 -40 36q-39 0 -58 -27t-21 -68z" />
    <glyph glyph-name="ccedilla" unicode="&#xe7;" horiz-adv-x="619" 
d="M41 242l-4 -3q0 134 83 212q82 78 239 78q100 0 171 -49q72 -49 72 -118q0 -40 -27 -69q-27 -28 -79 -28q-25 0 -46 7q-2 40 -25 56q-25 17 -58 17q-43 0 -66 -23q-22 -22 -22 -59q0 -86 106 -86q91 0 144 50q51 -35 51 -100q0 -58 -49 -94q-49 -35 -144 -43l-6 -31
q64 -8 98 -42q35 -35 35 -82q0 -71 -54 -104t-137 -33q-121 0 -121 90q0 35 19 60q38 -22 104 -22q42 0 42 17q0 10 -19 13t-43 3q-23 0 -43 12q-19 12 -19 38q0 11 3 26l13 59q-107 18 -163 83q-55 64 -55 165z" />
    <glyph glyph-name="egrave" unicode="&#xe8;" horiz-adv-x="641" 
d="M45 245h-1q0 134 82 210q83 77 228 77q128 0 201 -45t73 -127q0 -41 -22 -70q-22 -30 -61 -46q-39 -17 -82 -24q-41 -7 -93 -7q-39 0 -84 8q14 -47 110 -47q99 0 164 43q21 -14 33 -40q12 -27 12 -52q0 -68 -72 -103q-71 -34 -180 -34q-308 0 -308 257zM294 289l-1 1
q61 2 92 18q32 17 32 42q0 36 -40 36q-39 0 -60 -28q-22 -29 -23 -69zM368 554l-164 132q-38 28 -18 87q14 31 45 54t66 27l145 -180q14 -16 14 -34q0 -28 -28 -52q-28 -23 -60 -34z" />
    <glyph glyph-name="eacute" unicode="&#xe9;" horiz-adv-x="641" 
d="M45 245h-1q0 134 82 210q83 77 228 77q128 0 201 -45t73 -127q0 -41 -22 -70q-22 -30 -61 -46q-39 -17 -82 -24q-41 -7 -93 -7q-39 0 -84 8q14 -47 110 -47q99 0 164 43q21 -14 33 -40q12 -27 12 -52q0 -68 -72 -103q-71 -34 -180 -34q-308 0 -308 257zM294 289l-1 1
q61 2 92 18q32 17 32 42q0 36 -40 36q-39 0 -60 -28q-22 -29 -23 -69zM489 683l-164 -132q-32 11 -60 34q-28 24 -28 52q0 18 13 34l145 180q35 -6 66 -28q32 -23 44 -54q9 -21 6 -46t-22 -40z" />
    <glyph glyph-name="ecircumflex" unicode="&#xea;" horiz-adv-x="641" 
d="M45 245l1 -5q0 -257 308 -257q107 0 180 35q72 35 72 104q0 25 -12 52q-12 26 -33 40q-65 -43 -164 -43q-96 0 -110 47q45 -8 84 -8q47 0 93 8q43 7 82 24q38 16 61 47q22 29 22 70q0 82 -73 127q-74 45 -201 45q-146 0 -228 -76t-82 -210zM296 284l1 -1q1 40 23 69
q21 28 60 28q40 0 40 -36q0 -25 -32 -42q-31 -16 -92 -18zM441 771l124 -157q-7 -31 -37 -49t-65 -18q-47 0 -69 30l-48 83l-38 -61q-14 -19 -30 -54q-45 0 -78 15t-42 44q-9 28 24 72l54 66q24 30 44 41t53 11q71 0 108 -23z" />
    <glyph glyph-name="edieresis" unicode="&#xeb;" horiz-adv-x="641" 
d="M45 245l1 -5q0 -257 308 -257q107 0 180 35q72 35 72 104q0 25 -12 52q-12 26 -33 40q-65 -43 -164 -43q-96 0 -110 47q45 -8 84 -8q47 0 93 8q43 7 82 24q38 16 61 47q22 29 22 70q0 82 -73 127q-74 45 -201 45q-146 0 -228 -76t-82 -210zM296 284l1 -1q1 40 23 69
q21 28 60 28q40 0 40 -36q0 -25 -32 -42q-31 -16 -92 -18zM223 547q-49 0 -75 24q-25 24 -25 64t32 72t86 32q49 0 75 -23q25 -22 25 -63q0 -39 -32 -73q-31 -33 -86 -33zM475 547q-49 0 -75 24q-25 24 -25 64t32 72t86 32q49 0 75 -23q25 -22 25 -63q0 -39 -32 -73
q-31 -33 -86 -33z" />
    <glyph glyph-name="igrave" unicode="&#xec;" horiz-adv-x="392" 
d="M342 432v-293q5 -57 25 -108l-71 -16q-62 -13 -81 -17q-33 -6 -48 -6q-24 0 -39 9q-14 8 -22 29q-7 17 -10 36q-2 12 -4 44v255q-24 1 -43 11q-17 9 -27 23q-9 13 -15 33q-5 17 -7 35q-1 10 -1 35q52 1 147 14q89 12 128 15q20 0 33 -6t21 -15q8 -10 11 -24q3 -15 3 -26
v-28zM208 554l-164 132q-38 28 -18 87q14 31 45 54t66 27l145 -180q14 -16 14 -34q0 -28 -28 -52q-28 -23 -60 -34z" />
    <glyph glyph-name="iacute" unicode="&#xed;" horiz-adv-x="392" 
d="M342 432v-293q5 -57 25 -108l-71 -16q-62 -13 -81 -17q-33 -6 -48 -6q-24 0 -39 9q-14 8 -22 29q-7 17 -10 36q-2 12 -4 44v255q-24 1 -43 11q-17 9 -27 23q-9 13 -15 33q-5 17 -7 35q-1 10 -1 35q52 1 147 14q89 12 128 15q20 0 33 -6t21 -15q8 -10 11 -24q3 -15 3 -26
v-28zM286 677l-164 -132q-32 11 -60 34q-28 24 -28 52q0 18 13 34l145 180q35 -6 66 -28q32 -23 44 -54q9 -21 6 -46t-22 -40z" />
    <glyph glyph-name="icircumflex" unicode="&#xee;" horiz-adv-x="425" 
d="M360 141l-3 290v29q0 11 -3 26q-3 16 -10 24q-8 9 -21 15t-33 6q-36 -3 -127 -15q-95 -13 -147 -14q0 -25 1 -35q2 -18 7 -35q6 -20 15 -33t27 -22q17 -8 44 -10v-255q2 -32 4 -44q3 -19 10 -36q8 -21 22 -29q15 -9 39 -9q15 0 48 6q19 4 81 17l71 16q-20 51 -25 108z
M289 786l124 -157q-7 -31 -37 -49t-65 -18q-47 0 -69 30l-48 83l-38 -61q-14 -20 -30 -54q-45 0 -78 15t-42 44t24 72l54 66q24 30 44 41t53 11q71 0 108 -23z" />
    <glyph glyph-name="idieresis" unicode="&#xef;" horiz-adv-x="494" 
d="M395 141l-3 290v29q0 11 -3 26q-3 16 -10 24q-7 9 -21 15t-33 6q-36 -3 -127 -15q-95 -13 -147 -14q0 -25 1 -35q2 -18 7 -35q6 -20 15 -33q8 -13 27 -22q17 -8 44 -10v-255q2 -32 4 -44q3 -19 10 -36q8 -21 22 -29q15 -9 39 -9q15 0 48 6q19 4 81 17l71 16
q-20 51 -25 108zM96 565q-50 0 -75 24t-25 64t32 72t86 32q49 0 75 -23q25 -22 25 -63q0 -39 -32 -73q-32 -33 -86 -33zM348 565q-50 0 -75 24t-25 64t32 72t86 32q49 0 75 -23q25 -22 25 -63q0 -39 -32 -73q-32 -33 -86 -33z" />
    <glyph glyph-name="eth" unicode="&#xf0;" horiz-adv-x="643" 
d="M354 422l-1 3q-1 73 -23 116l-85 -45q-44 15 -44 56q0 34 27 49l15 8q-24 6 -54 6q-31 0 -69 -7q-23 31 -23 56q0 48 51 72t122 24q111 0 187 -43l51 26q20 11 33 30q27 -11 41 -28q15 -18 15 -37q0 -27 -34 -45l-28 -15q71 -98 71 -284q0 -203 -82 -289
q-82 -87 -249 -87q-136 0 -208 69t-72 192q0 106 50 168q49 61 144 61q120 0 165 -56zM369 320l-1 29q-76 0 -106 -24t-30 -69q0 -34 20 -54q19 -19 45 -19q31 0 51 35q20 34 21 102z" />
    <glyph glyph-name="ntilde" unicode="&#xf1;" horiz-adv-x="727" 
d="M337 141l-5 81q2 57 22 92q21 36 48 36q28 0 28 -42v-170q0 -149 159 -149q129 0 154 109q-36 5 -50 20q-13 15 -15 53v159q0 98 -41 150q-41 51 -111 51q-124 0 -192 -132v32v29q0 11 -3 26q-3 16 -10 24q-7 9 -21 15t-33 6q-36 -3 -127 -15q-95 -13 -147 -14
q0 -25 1 -35q2 -18 7 -35q6 -20 15 -33q8 -13 27 -22q17 -8 44 -10v-255q2 -32 4 -44q3 -19 10 -36q8 -21 22 -29q15 -9 39 -9q15 0 48 6q19 4 81 17l71 16q-20 51 -25 108zM572 671v-2q0 -47 -31 -71t-84 -24q-24 0 -80 8t-78 8q-55 0 -75 -38q-38 4 -61 28q-24 24 -24 60
q0 89 105 94q27 0 93 -8t80 -8q53 0 69 42q40 -5 62 -28q23 -24 24 -61z" />
    <glyph glyph-name="ograve" unicode="&#xf2;" 
d="M273 260l-2 -3q0 -32 18 -56t53 -24q30 0 51 22q21 23 21 60q0 39 -19 61t-49 22q-31 0 -52 -22t-21 -60zM346 -15l1 2q-160 0 -237 68q-76 67 -76 189q0 124 81 205t232 81q156 0 231 -69t75 -190q0 -124 -79 -204t-228 -82zM363 553l-164 132q-37 29 -18 87
q13 32 45 54t66 27l145 -180q14 -16 14 -34q0 -28 -28 -52q-28 -23 -60 -34z" />
    <glyph glyph-name="oacute" unicode="&#xf3;" 
d="M273 260l-2 -3q0 -32 18 -56t53 -24q30 0 51 22q21 23 21 60q0 39 -19 61t-49 22q-31 0 -52 -22t-21 -60zM346 -15l1 2q-160 0 -237 68q-76 67 -76 189q0 124 81 205t232 81q156 0 231 -69t75 -190q0 -124 -79 -204t-228 -82zM467 683l-164 -132q-32 11 -60 34
q-28 24 -28 52q0 18 13 34l145 180q35 -6 66 -28q32 -23 44 -54q9 -21 6 -46t-22 -40z" />
    <glyph glyph-name="ocircumflex" unicode="&#xf4;" 
d="M273 260l-2 -3q0 -32 18 -56t53 -24q30 0 51 22q21 23 21 60q0 39 -19 61t-49 22q-31 0 -52 -22t-21 -60zM346 -15l1 2q-160 0 -237 68q-76 67 -76 189q0 124 81 205t232 81q156 0 231 -69t75 -190q0 -124 -79 -204t-228 -82zM428 779l124 -157q-7 -31 -37 -49t-65 -18
q-46 0 -69 30l-48 83l-38 -61q-13 -19 -30 -54q-45 0 -78 15t-42 44q-9 28 24 72l54 66q24 30 44 41t53 11q71 0 108 -23z" />
    <glyph glyph-name="otilde" unicode="&#xf5;" 
d="M273 260l-2 -3q0 -32 18 -56t53 -24q30 0 51 22q21 23 21 60q0 39 -19 61t-49 22q-31 0 -52 -22t-21 -60zM346 -15l1 2q-160 0 -237 68q-76 67 -76 189q0 124 81 205t232 81q156 0 231 -69t75 -190q0 -124 -79 -204t-228 -82zM549 671v-2q0 -47 -31 -71q-32 -24 -84 -24
q-24 0 -80 8t-78 8q-55 0 -75 -38q-37 4 -61 28t-24 60q0 89 105 94q27 0 93 -8t80 -8q52 0 69 42q40 -5 62 -28q23 -24 24 -61z" />
    <glyph glyph-name="odieresis" unicode="&#xf6;" 
d="M273 260l-2 -3q0 -32 18 -56t53 -24q30 0 51 22q21 23 21 60q0 39 -19 61t-49 22q-31 0 -52 -22t-21 -60zM346 -15l1 2q-160 0 -237 68q-76 67 -76 189q0 124 81 205t232 81q156 0 231 -69t75 -190q0 -124 -79 -204t-228 -82zM207 551q-49 0 -75 24q-25 24 -25 64t32 72
t86 32q49 0 75 -23q25 -22 25 -63q0 -39 -32 -73q-31 -33 -86 -33zM459 551q-49 0 -75 24q-25 24 -25 64t32 72t86 32q49 0 75 -23q25 -22 25 -63q0 -39 -32 -73q-31 -33 -86 -33z" />
    <glyph glyph-name="divide" unicode="&#xf7;" horiz-adv-x="478" 
d="M137 229h222q65 0 89 21t24 62q0 45 -23 102q-37 -18 -108 -18h-222q-64 0 -88 -21t-24 -62q0 -44 23 -101q36 17 107 17zM229 23h-2q-50 0 -73 22q-24 23 -24 60q0 38 32 68t84 30q51 0 74 -22q24 -23 24 -60q0 -38 -31 -68t-84 -30zM227 423h-2q-50 0 -73 22
q-24 23 -24 60q0 38 32 68t84 30q51 0 74 -22q24 -23 24 -60q0 -38 -31 -68t-84 -30z" />
    <glyph glyph-name="oslash" unicode="&#xf8;" 
d="M386 531l11 24q26 63 88 63q21 0 46 -11q23 -10 34 -30q-7 -13 -36 -84q125 -62 125 -222q0 -124 -79 -204t-228 -82h-7l-12 -35q-22 -63 -81 -63q-23 0 -50 12q-26 11 -37 29q2 6 15 38l17 43q-158 56 -158 237q0 124 81 205t232 81q31 0 39 -1zM274 257l-2 -3
q0 -32 18 -56t53 -24q30 0 51 22t21 60q0 39 -19 61t-49 22q-31 0 -52 -22q-21 -23 -21 -60z" />
    <glyph glyph-name="ugrave" unicode="&#xf9;" horiz-adv-x="711" 
d="M423 268l-3 114q-4 56 -24 108q172 40 199 40q20 0 33 -7q14 -7 21 -18t12 -27t6 -30q2 -14 3 -34v-275q5 -57 25 -108l-71 -16q-62 -13 -81 -17q-33 -6 -48 -6q-24 0 -39 9q-14 8 -22 29q-7 17 -10 36q-2 12 -4 44v11q-34 -71 -78 -102q-44 -32 -105 -32q-70 0 -111 47
q-40 46 -40 144v187q-24 1 -43 11q-17 9 -27 23q-9 13 -15 33q-5 17 -7 35q-1 10 -1 35q52 1 147 14q89 12 128 15q20 0 33 -6t21 -15q8 -10 11 -24q3 -15 3 -26v-28v-223q0 -42 35 -42q22 0 37 27t15 74zM365 525l-164 132q-37 29 -18 87q13 32 45 54t66 27l145 -180
q14 -16 14 -34q0 -28 -28 -52q-28 -23 -60 -34z" />
    <glyph glyph-name="uacute" unicode="&#xfa;" horiz-adv-x="711" 
d="M423 268l-3 114q-4 56 -24 108q172 40 199 40q20 0 33 -7q14 -7 21 -18t12 -27t6 -30q2 -14 3 -34v-275q5 -57 25 -108l-71 -16q-62 -13 -81 -17q-33 -6 -48 -6q-24 0 -39 9q-14 8 -22 29q-7 17 -10 36q-2 12 -4 44v11q-34 -71 -78 -102q-44 -32 -105 -32q-70 0 -111 47
q-40 46 -40 144v187q-24 1 -43 11q-17 9 -27 23q-9 13 -15 33q-5 17 -7 35q-1 10 -1 35q52 1 147 14q89 12 128 15q20 0 33 -6t21 -15q8 -10 11 -24q3 -15 3 -26v-28v-223q0 -42 35 -42q22 0 37 27t15 74zM536 656l-164 -132q-32 11 -60 34q-28 24 -28 52q0 18 13 34
l145 180q35 -6 66 -28q32 -23 44 -54q9 -21 6 -46t-22 -40z" />
    <glyph glyph-name="ucircumflex" unicode="&#xfb;" horiz-adv-x="711" 
d="M423 384l-1 -119q0 -47 -15 -74t-37 -27q-35 0 -35 42v223v29q0 11 -3 26q-3 16 -10 24q-8 9 -21 15t-33 6q-36 -3 -127 -15q-95 -13 -147 -14q0 -25 1 -35q2 -18 7 -35q6 -20 15 -33t27 -22q17 -8 44 -10v-187q0 -97 41 -144q40 -46 111 -46q61 0 105 32q43 32 78 102
v-11q2 -32 4 -44q3 -19 10 -36q8 -21 22 -29q15 -9 39 -9q15 0 48 6q19 4 81 17l71 16q-20 51 -25 108v275q-2 22 -3 35q-2 14 -6 30t-12 27t-21 18t-33 7q-27 0 -199 -40q19 -52 24 -108zM446 784l124 -157q-7 -31 -37 -49t-65 -18q-46 0 -69 30l-48 83l-38 -61
q-13 -20 -30 -54q-45 0 -78 15t-42 44t24 72l54 66q24 30 44 41t53 11q71 0 108 -23z" />
    <glyph glyph-name="udieresis" unicode="&#xfc;" horiz-adv-x="711" 
d="M423 384l-1 -119q0 -47 -15 -74t-37 -27q-35 0 -35 42v223v29q0 11 -3 26q-3 16 -10 24q-8 9 -21 15t-33 6q-36 -3 -127 -15q-95 -13 -147 -14q0 -25 1 -35q2 -18 7 -35q6 -20 15 -33t27 -22q17 -8 44 -10v-187q0 -97 41 -144q40 -46 111 -46q61 0 105 32q43 32 78 102
v-11q2 -32 4 -44q3 -19 10 -36q8 -21 22 -29q15 -9 39 -9q15 0 48 6q19 4 81 17l71 16q-20 51 -25 108v275q-2 22 -3 35q-2 14 -6 30t-12 27t-21 18t-33 7q-27 0 -199 -40q19 -52 24 -108zM223 562q-49 0 -75 24q-25 24 -25 64t32 72t86 32q49 0 75 -23q25 -22 25 -63
q0 -39 -32 -73q-31 -33 -86 -33zM475 562q-49 0 -75 24q-25 24 -25 64t32 72t86 32q49 0 75 -23q25 -22 25 -63q0 -39 -32 -73q-31 -33 -86 -33z" />
    <glyph glyph-name="yacute" unicode="&#xfd;" horiz-adv-x="688" 
d="M425 127l-5 -5q-36 -77 -79 -108t-105 -31q-152 0 -152 191v187q-24 1 -43 11q-17 9 -27 23q-9 13 -15 33q-5 17 -7 35q-1 10 -1 35q52 1 147 14q89 12 128 15q20 0 33 -6t21 -15q8 -10 11 -24q3 -15 3 -26v-28v-223q0 -42 35 -42q23 0 38 27t15 74v116q-4 58 -24 108
q172 40 193 40q20 0 33 -7q14 -7 21 -18t12 -27t6 -30q2 -14 3 -34v-128q0 -71 -5 -143q-5 -65 -18 -134q-14 -70 -37 -121q-24 -51 -60 -94q-37 -43 -91 -65t-126 -22q-82 0 -129 41q-46 40 -46 101q0 69 59 98q34 -29 82 -29q31 0 55 15q25 16 38 36t22 51q9 30 12 56
q3 25 3 53zM536 653l-164 -132q-32 11 -60 34q-28 24 -28 52q0 18 13 34l145 180q35 -6 66 -28q32 -23 44 -54q9 -21 6 -46t-22 -40z" />
    <glyph glyph-name="thorn" unicode="&#xfe;" horiz-adv-x="679" 
d="M309 26l4 -129q1 -38 15 -58q14 -19 48 -24q-26 -108 -144 -108q-76 0 -121 54t-45 166v592q0 105 -44 169q37 9 114 34q82 27 99 27q73 0 74 -139v-204q53 128 171 128q98 0 143 -72t45 -183q-3 -136 -64 -213q-62 -78 -154 -78q-100 0 -141 38zM317 333v-46
q0 -110 64 -110q27 0 42 21t15 49q0 41 -25 66q-26 26 -61 26q-17 0 -35 -6z" />
    <glyph glyph-name="ydieresis" unicode="&#xff;" horiz-adv-x="688" 
d="M425 127l-1 -7q0 -28 -3 -53t-12 -55q-9 -31 -22 -51q-14 -22 -37 -36q-24 -15 -55 -15q-48 0 -82 29q-59 -29 -59 -98q0 -60 46 -100t129 -40q69 0 126 23q54 22 91 65q36 41 60 95q25 54 38 122q13 69 18 134q5 72 5 143v128q-2 22 -3 35q-2 14 -6 30t-12 27t-21 18
t-33 7q-21 0 -193 -40q19 -50 24 -108v-116q0 -46 -15 -73t-38 -27q-35 0 -35 42v223v29q0 11 -3 26q-3 16 -10 24q-8 9 -21 15t-33 6q-36 -3 -127 -15q-95 -13 -147 -14q0 -25 1 -35q2 -18 7 -35q6 -20 15 -33t27 -22q17 -8 44 -10v-187q0 -191 152 -191q61 0 105 32
t80 108zM225 560q-49 0 -75 24q-25 24 -25 64t32 72t86 32q49 0 75 -23q25 -22 25 -63q0 -39 -32 -73q-31 -33 -86 -33zM477 560q-49 0 -75 24q-25 24 -25 64t32 72t86 32q49 0 75 -23q25 -22 25 -63q0 -39 -32 -73q-31 -33 -86 -33z" />
    <glyph glyph-name="Amacron" unicode="&#x100;" horiz-adv-x="670" 
d="M210 505l-1 -3q-39 -1 -73 -5q-25 51 -25 94q0 85 139 85h180q52 0 80 -21q29 -21 47 -74l148 -445q19 -62 42 -109q-114 -37 -168 -37q-35 0 -58 20t-39 69l-13 40h-219l-46 -120h-110q-36 0 -52 21t-15 48q1 25 14 55l127 303q22 50 42 79zM368 430l-57 -147
q-5 -17 12 -17h96zM455 878l-3 2q40 0 63 9q21 -35 21 -72q0 -38 -22 -60q-23 -23 -64 -24q-20 0 -108 5t-92 5q-40 0 -63 -9q-21 38 -21 72q0 38 24 60q23 22 69 22q17 0 105 -5t91 -5z" />
    <glyph glyph-name="amacron" unicode="&#x101;" 
d="M596 310l-2 -104q0 -42 33 -42q9 0 27 6q13 -33 13 -66q0 -53 -37 -84q-38 -32 -99 -32q-56 0 -92 21t-56 77q-53 -95 -183 -98q-85 0 -138 40q-54 40 -54 120q0 58 35 98q35 39 84 54q50 15 113 15q60 0 109 -16q-4 64 -93 64q-105 0 -157 -43q-52 30 -52 88q0 57 70 90
q71 33 189 33q53 0 95 -6q41 -6 79 -21t62 -39t39 -63t15 -92zM349 211l-1 25q-20 0 -43 -5q-20 -4 -40 -21q-19 -16 -19 -42q0 -21 12 -33t32 -12q59 0 59 88zM431 723l-3 1q40 0 63 9q21 -35 21 -72q0 -38 -22 -60q-23 -23 -64 -24q-20 0 -108 5t-92 5q-40 0 -63 -9
q-21 38 -21 73q0 37 24 60q23 22 69 22q17 0 105 -5t91 -5z" />
    <glyph glyph-name="Abreve" unicode="&#x102;" horiz-adv-x="670" 
d="M210 505l-3 2q-20 -29 -42 -79l-127 -303q-13 -30 -14 -55q-2 -27 15 -48q16 -21 53 -21h110l46 120h219l13 -40q16 -49 39 -69q22 -19 59 -19q54 0 168 37q-23 47 -42 109l-148 445q-18 54 -46 74q-29 21 -79 21h-180q-139 0 -139 -85q0 -43 25 -94q34 4 73 5zM310 288
l57 147l51 -164h-96q-17 0 -12 17zM360 712l2 -1q-86 1 -142 39q-55 37 -55 91q0 33 21 57q20 23 65 28q48 -60 110 -60q61 0 111 60q43 -4 64 -28t21 -56q0 -54 -55 -91q-56 -38 -142 -39z" />
    <glyph glyph-name="abreve" unicode="&#x103;" 
d="M596 310l-2 -104q0 -42 33 -42q9 0 27 6q13 -33 13 -66q0 -53 -37 -84q-38 -32 -99 -32q-56 0 -92 21t-56 77q-53 -95 -183 -98q-85 0 -138 40q-54 40 -54 120q0 58 35 98q35 39 84 54q50 15 113 15q60 0 109 -16q-4 64 -93 64q-105 0 -157 -43q-52 30 -52 88q0 57 70 90
q71 33 189 33q53 0 95 -6q41 -6 79 -21t62 -39t39 -63t15 -92zM349 211l-1 25q-20 0 -43 -5q-20 -4 -40 -21q-19 -16 -19 -42q0 -21 12 -33t32 -12q59 0 59 88zM326 563l1 -1q-86 1 -142 39q-55 37 -55 91q0 33 21 57q20 23 65 28q48 -60 110 -60t111 60q45 -5 65 -28
q21 -24 21 -56q0 -54 -55 -91q-56 -38 -142 -39z" />
    <glyph glyph-name="Aogonek" unicode="&#x104;" horiz-adv-x="670" 
d="M718 -154l-2 -1q0 -46 -37 -73t-106 -27q-58 0 -91 30t-33 78q0 81 84 145q-34 18 -54 80l-13 40h-219l-46 -120h-110q-67 0 -67 63q0 26 14 60l127 303q22 50 42 79q-39 -1 -73 -5q-25 51 -25 94q0 85 139 85h180q51 0 80 -21t47 -74l148 -445q19 -62 42 -109
q-31 -9 -48 -15q-14 -5 -36 -17q-19 -10 -27 -26t-8 -37q0 -39 37 -39q21 0 37 6q18 -28 18 -54zM365 432l-57 -147q-5 -17 12 -17h96z" />
    <glyph glyph-name="aogonek" unicode="&#x105;" 
d="M663 -154l-1 2q0 -46 -37 -73t-106 -27q-58 0 -91 30t-33 78q0 79 76 140q-62 17 -89 90q-53 -95 -183 -98q-85 0 -138 40q-54 40 -54 120q0 58 35 98q34 39 84 54t113 15q60 0 109 -16q-4 64 -93 64q-105 0 -157 -43q-52 30 -52 88q0 57 70 90t189 33q53 0 95 -6
q41 -6 79 -21t62 -39t39 -63t15 -92v-105q0 -42 33 -42q9 0 27 6q13 -33 13 -66q0 -31 -15 -55q-14 -23 -33 -37t-33 -34q-15 -21 -15 -46q0 -37 37 -37q19 0 36 6q18 -28 18 -54zM350 212l-1 25q-20 0 -43 -5q-20 -4 -40 -21q-19 -16 -19 -42q0 -21 12 -33t32 -12
q59 0 59 88z" />
    <glyph glyph-name="Cacute" unicode="&#x106;" horiz-adv-x="639" 
d="M384 -12l1 -4q-170 2 -254 87t-84 239q0 166 87 268t265 102q50 0 89 -7q42 -7 78 -24q35 -16 57 -47q21 -30 21 -71q0 -37 -21 -67t-58 -43q-89 50 -159 50q-118 0 -118 -136q0 -60 30 -93t92 -33q87 0 178 56q30 -17 44 -46q15 -30 15 -64q0 -45 -25 -79t-66 -52
q-40 -18 -84 -27t-88 -9zM527 830l-164 -132q-32 11 -60 34q-28 24 -28 52q0 18 13 34l145 180q35 -6 66 -28q32 -23 44 -54q9 -21 6 -46t-22 -40z" />
    <glyph glyph-name="cacute" unicode="&#x107;" horiz-adv-x="617" 
d="M347 -12h-2q-151 0 -229 69t-78 189q0 131 80 209q79 78 233 78q100 0 174 -50t74 -120q0 -41 -27 -68t-78 -27q-25 0 -46 7q-2 38 -27 56t-60 18q-43 0 -63 -24q-20 -25 -20 -60q0 -85 107 -85q93 0 143 50q26 -16 39 -45q14 -30 14 -58q0 -65 -60 -102
q-59 -37 -174 -37zM479 684l-164 -132q-32 11 -60 34q-28 24 -28 52q0 18 13 34l145 180q35 -6 66 -28q32 -23 44 -54q9 -21 6 -46t-22 -40z" />
    <glyph glyph-name="Ccircumflex" unicode="&#x108;" horiz-adv-x="639" 
d="M384 -12l-4 -2q46 0 89 9t84 27t66 52t25 79q0 35 -15 65t-44 47q-91 -56 -178 -56q-62 0 -92 33t-30 93q0 136 118 136q70 0 159 -50q36 13 58 44q21 30 21 68q0 54 -38 90q-37 36 -89 48q-51 12 -116 12q-178 0 -265 -102t-87 -268q0 -153 84 -238t254 -87zM459 924
l124 -157q-7 -31 -37 -49t-65 -18q-47 0 -69 30l-48 83l-38 -61q-14 -20 -30 -54q-45 0 -78 15t-42 44t24 72l54 66q24 30 44 41t53 11q71 0 108 -23z" />
    <glyph glyph-name="ccircumflex" unicode="&#x109;" horiz-adv-x="619" 
d="M347 -12l2 -1q115 0 174 37q60 38 60 102q0 28 -14 58q-13 28 -39 45q-50 -50 -143 -50q-107 0 -107 85q0 35 20 60q20 24 63 24q35 0 60 -18q26 -18 27 -55q21 -7 46 -7q51 0 78 27t27 68q0 70 -74 120t-174 50q-153 0 -233 -78t-80 -209q0 -120 78 -189t229 -69z
M421 775l124 -157q-7 -31 -37 -49t-65 -18q-47 0 -69 30l-48 83l-38 -61q-14 -19 -30 -54q-45 0 -78 15t-42 44q-9 28 24 72l54 66q24 30 44 41t53 11q71 0 108 -23z" />
    <glyph glyph-name="Cdotaccent" unicode="&#x10a;" horiz-adv-x="639" 
d="M384 -12l-4 -2q46 0 89 9t84 27t66 52t25 79q0 35 -15 65t-44 47q-91 -56 -178 -56q-62 0 -92 33t-30 93q0 136 118 136q70 0 159 -50q36 13 58 44q21 30 21 68q0 54 -38 90q-37 36 -89 48q-51 12 -116 12q-178 0 -265 -102t-87 -268q0 -153 84 -238t254 -87zM362 713
l-1 -1q-55 0 -84 27q-28 27 -28 72q0 48 36 84t97 36q56 0 84 -27q29 -27 29 -72q0 -47 -36 -83t-97 -36z" />
    <glyph glyph-name="cdotaccent" unicode="&#x10b;" horiz-adv-x="617" 
d="M347 -12l2 -1q115 0 174 37q60 38 60 102q0 28 -14 58q-13 28 -39 45q-50 -50 -143 -50q-107 0 -107 85q0 35 20 60q20 24 63 24q35 0 60 -18q26 -18 27 -55q21 -7 46 -7q51 0 78 27t27 68q0 70 -74 120t-174 50q-153 0 -233 -78t-80 -209q0 -120 78 -189t229 -69z
M337 562l-1 -1q-56 0 -84 27t-28 72q0 48 36 84t97 36q55 0 84 -27t29 -72q0 -47 -36 -83t-97 -36z" />
    <glyph glyph-name="Ccaron" unicode="&#x10c;" horiz-adv-x="639" 
d="M384 -12l-4 -2q46 0 89 9t84 27t66 52t25 79q0 35 -15 65t-44 47q-91 -56 -178 -56q-62 0 -92 33t-30 93q0 136 118 136q70 0 159 -50q36 13 58 44q21 30 21 68q0 54 -38 90q-37 36 -89 48q-51 12 -116 12q-178 0 -265 -102t-87 -268q0 -153 84 -238t254 -87zM286 736
l-125 158q8 32 37 50q30 18 65 18q47 0 69 -30l47 -87l40 61q13 20 30 54q45 0 78 -15t42 -44t-24 -72l-56 -66q-24 -28 -44 -40q-17 -10 -51 -10q-71 0 -108 23z" />
    <glyph glyph-name="ccaron" unicode="&#x10d;" horiz-adv-x="617" 
d="M347 -12l2 -1q115 0 174 37q60 38 60 102q0 28 -14 58q-13 28 -39 45q-50 -50 -143 -50q-107 0 -107 85q0 35 20 60q20 24 63 24q35 0 60 -18q26 -18 27 -55q21 -7 46 -7q51 0 78 27t27 68q0 70 -74 120t-174 50q-153 0 -233 -78t-80 -209q0 -120 78 -189t229 -69z
M251 581l-125 158q8 32 37 50q30 18 65 18q46 0 69 -30l47 -87l40 61q14 19 30 54q45 0 78 -15t42 -44q9 -28 -24 -72l-56 -66q-24 -28 -44 -40q-17 -10 -51 -10q-71 0 -108 23z" />
    <glyph glyph-name="Dcaron" unicode="&#x10e;" horiz-adv-x="721" 
d="M373 162l-1 1q67 0 102 53q34 52 34 126q0 80 -34 120t-94 40h-22v-340h15zM119 150l-4 350q-33 0 -75 -5q-32 47 -32 94q0 29 12 48q12 20 34 27q25 8 44 11q21 3 50 3h209q193 0 288 -84q94 -84 94 -235q0 -186 -108 -274q-107 -88 -298 -88h-94q-31 0 -54 9
q-24 10 -35 22q-11 13 -19 36q-7 22 -9 41q-2 18 -3 45zM236 738l-125 158q8 32 37 50q30 18 65 18q47 0 69 -30l47 -87l40 61q13 20 30 54q45 0 78 -15t42 -44t-24 -72l-56 -66q-24 -28 -44 -40q-17 -10 -51 -10q-71 0 -108 23z" />
    <glyph glyph-name="dcaron" unicode="&#x10f;" horiz-adv-x="788" 
d="M640 613l3 -471q5 -54 25 -111q-33 -5 -99 -23q-63 -17 -81 -17q-23 0 -37 10t-22 29q-7 16 -10 36q-3 18 -3 43q-60 -122 -178 -122q-104 0 -156 72q-52 71 -52 187q0 123 62 205q62 81 174 81q80 0 129 -49v82q-3 82 -35 135q33 7 99 23l73 19q24 6 34 6q46 0 59 -33
t15 -102zM398 201l-2 42q0 109 -67 109q-29 0 -45 -19q-17 -20 -17 -48q0 -42 26 -66q25 -24 65 -24q19 0 40 6zM660 493v-3q67 31 67 87q0 18 -13 45t-13 43q0 37 33 59q34 23 74 23q55 0 84 -38t29 -87q0 -73 -49 -126q-50 -54 -123 -54q-67 0 -89 51z" />
    <glyph glyph-name="Dcroat" unicode="&#x110;" horiz-adv-x="721" 
d="M120 388l-4 111q-33 0 -75 -5q-32 47 -32 94q0 28 12 48t34 27q25 8 44 11q21 3 50 3h209q194 0 288 -84t94 -235q0 -186 -108 -274q-107 -88 -298 -88h-94q-32 0 -54 9q-24 10 -35 22q-11 13 -19 36q-7 22 -9 41q-1 18 -3 45v127h-26q-25 0 -53 -7q-24 28 -24 62
q0 57 81 57h22zM354 385l22 1q25 0 53 7q24 -29 24 -62q0 -57 -81 -57h-19v-114h15q67 0 102 53q34 52 34 126q0 80 -34 120t-94 40h-22v-114z" />
    <glyph glyph-name="dcroat" unicode="&#x111;" horiz-adv-x="749" 
d="M640 560l2 -417q5 -54 25 -111q-33 -5 -99 -23q-63 -17 -81 -17q-23 0 -37 10t-22 29q-7 16 -10 36q-3 18 -3 43q-60 -122 -178 -122q-103 0 -156 72q-52 71 -52 187q0 123 62 205q61 81 174 81q80 0 129 -49v77h-100q-25 0 -53 -7q-24 28 -24 57q0 57 81 57h96v40
q27 6 81 20l61 16q22 5 29 5q35 0 51 -21q17 -21 21 -61h15q25 0 53 7q24 -28 24 -60q0 -54 -81 -54h-8zM397 202l-2 42q0 109 -67 109q-29 0 -45 -19q-17 -20 -17 -48q0 -42 26 -66t65 -24q19 0 40 6z" />
    <glyph glyph-name="Emacron" unicode="&#x112;" horiz-adv-x="639" 
d="M370 177l122 -3q57 0 105 13q31 -41 31 -102q0 -30 -12 -49q-12 -20 -34 -27q-23 -8 -40 -9q-24 -2 -46 -2h-271q-53 0 -82 21q-28 21 -28 86v395q-34 0 -76 -5q-32 47 -32 94q0 39 27 63t78 24h375q68 0 105 10q31 -41 31 -99q0 -29 -12 -49t-34 -27q-23 -8 -40 -9
q-24 -2 -46 -2h-136v-63q0 -11 3 -14t12 -3h173q13 -32 13 -67q0 -94 -125 -94h-76v-65q0 -11 3 -14t12 -3zM429 878l-3 2q40 0 63 9q21 -35 21 -72q0 -38 -22 -60q-23 -23 -64 -24q-20 0 -108 5t-92 5q-40 0 -63 -9q-21 38 -21 72q0 38 24 60q23 22 69 22q17 0 105 -5
t91 -5z" />
    <glyph glyph-name="emacron" unicode="&#x113;" horiz-adv-x="641" 
d="M45 245h-1q0 134 82 210q83 77 228 77q128 0 201 -45t73 -127q0 -41 -22 -70q-22 -30 -61 -46q-39 -17 -82 -24q-41 -7 -93 -7q-39 0 -84 8q14 -47 110 -47q99 0 164 43q21 -14 33 -40q12 -27 12 -52q0 -68 -72 -103q-71 -34 -180 -34q-308 0 -308 257zM294 289l-1 1
q61 2 92 18q32 17 32 42q0 36 -40 36q-39 0 -60 -28q-22 -29 -23 -69zM444 720l-3 2q41 0 63 9q21 -35 21 -72q0 -38 -22 -60q-23 -23 -64 -24q-20 0 -108 5t-92 5q-41 0 -63 -9q-21 38 -21 72q0 38 24 60q23 22 69 22q17 0 105 -5t91 -5z" />
    <glyph glyph-name="Ebreve" unicode="&#x114;" horiz-adv-x="639" 
d="M493 177l-127 2q-9 0 -12 3t-3 14v65h76q125 0 125 94q0 35 -13 67h-173q-9 0 -12 3t-3 14v63h136q22 0 46 2q19 2 41 9t34 27t12 49q0 58 -31 99q-37 -10 -105 -10h-375q-51 0 -78 -24t-27 -63q0 -47 32 -94q42 5 76 5v-395q0 -64 29 -85t83 -21h271q23 0 47 2
q19 2 41 9t34 27q12 19 12 49q0 61 -31 102q-48 -13 -105 -13zM329 711l1 -1q-86 1 -142 39q-55 37 -55 91q0 33 21 57q20 23 65 28q48 -60 110 -60q61 0 111 60q45 -5 65 -28q21 -24 21 -56q0 -54 -55 -91q-56 -38 -142 -39z" />
    <glyph glyph-name="ebreve" unicode="&#x115;" horiz-adv-x="641" 
d="M45 245l1 -5q0 -257 308 -257q107 0 180 35q72 35 72 104q0 25 -12 52q-12 26 -33 40q-65 -43 -164 -43q-96 0 -110 47q45 -8 84 -8q47 0 93 8q43 7 82 24q38 16 61 47q22 29 22 70q0 82 -73 127q-74 45 -201 45q-146 0 -228 -76t-82 -210zM296 284l1 -1q1 40 23 69
q21 28 60 28q40 0 40 -36q0 -25 -32 -42q-31 -16 -92 -18zM357 559l2 -1q-86 1 -142 39q-55 37 -55 91q0 33 21 57q20 23 65 28q48 -60 110 -60t111 60q43 -4 64 -28t21 -56q0 -54 -55 -91q-56 -38 -142 -39z" />
    <glyph glyph-name="Edotaccent" unicode="&#x116;" horiz-adv-x="639" 
d="M493 177l-127 2q-9 0 -12 3t-3 14v65h76q125 0 125 94q0 35 -13 67h-173q-9 0 -12 3t-3 14v63h136q22 0 46 2q19 2 41 9t34 27t12 49q0 58 -31 99q-37 -10 -105 -10h-375q-51 0 -78 -24t-27 -63q0 -47 32 -94q42 5 76 5v-395q0 -64 29 -85t83 -21h271q23 0 47 2
q19 2 41 9t34 27q12 19 12 49q0 61 -31 102q-48 -13 -105 -13zM318 712l-1 -1q-55 0 -84 27q-28 27 -28 72q0 48 36 84t97 36q56 0 84 -27q29 -27 29 -72q0 -47 -36 -83t-97 -36z" />
    <glyph glyph-name="edotaccent" unicode="&#x117;" horiz-adv-x="641" 
d="M45 245l1 -5q0 -257 308 -257q107 0 180 35q72 35 72 104q0 25 -12 52q-12 26 -33 40q-65 -43 -164 -43q-96 0 -110 47q45 -8 84 -8q47 0 93 8q43 7 82 24q38 16 61 47q22 29 22 70q0 82 -73 127q-74 45 -201 45q-146 0 -228 -76t-82 -210zM296 284l1 -1q1 40 23 69
q21 28 60 28q40 0 40 -36q0 -25 -32 -42q-31 -16 -92 -18zM353 555l-1 -1q-56 0 -84 27t-28 72q0 48 36 84t97 36q55 0 84 -27t29 -72q0 -47 -36 -83t-97 -36z" />
    <glyph glyph-name="Eogonek" unicode="&#x118;" horiz-adv-x="639" 
d="M559 -154q0 -46 -37 -73q-38 -27 -106 -27q-58 0 -91 30t-33 78q0 79 83 144h-149q-54 0 -82 21t-28 86v395q-34 0 -76 -5q-32 47 -32 94q0 39 27 63t78 24h375q68 0 105 10q31 -41 31 -99q0 -29 -12 -49t-34 -27q-23 -8 -40 -9q-24 -2 -46 -2h-136v-63q0 -11 3 -14
t12 -3h173q13 -32 13 -67q0 -94 -125 -94h-76v-65q0 -11 3 -14t12 -3h123q57 0 105 13q31 -41 31 -102q0 -51 -31 -69q-31 -17 -82 -19q-23 -2 -36 -24t-13 -45q0 -37 37 -37q19 0 36 6q18 -28 18 -54z" />
    <glyph glyph-name="eogonek" unicode="&#x119;" horiz-adv-x="641" 
d="M494 -154l-1 1q0 -46 -37 -73q-38 -27 -106 -27q-58 0 -91 30t-33 78q0 76 71 136q-253 21 -253 254q0 134 82 210q83 77 228 77q128 0 201 -45t73 -127q0 -41 -22 -70q-22 -30 -61 -46q-39 -17 -82 -24q-41 -7 -93 -7q-39 0 -84 8q14 -47 110 -47q99 0 164 43
q21 -14 33 -40q12 -27 12 -52q0 -56 -49 -89q-49 -32 -129 -43q-25 -29 -25 -62q0 -37 37 -37q21 0 37 6q18 -28 18 -54zM294 290l-1 1q61 2 92 18q32 17 32 42q0 36 -40 36q-39 0 -60 -28q-22 -29 -23 -69z" />
    <glyph glyph-name="Ecaron" unicode="&#x11a;" horiz-adv-x="639" 
d="M493 177l-127 2q-9 0 -12 3t-3 14v65h76q125 0 125 94q0 35 -13 67h-173q-9 0 -12 3t-3 14v63h136q22 0 46 2q19 2 41 9t34 27t12 49q0 58 -31 99q-37 -10 -105 -10h-375q-51 0 -78 -24t-27 -63q0 -47 32 -94q42 5 76 5v-395q0 -64 29 -85t83 -21h271q23 0 47 2
q19 2 41 9t34 27q12 19 12 49q0 61 -31 102q-48 -13 -105 -13zM242 731l-125 158q8 32 37 50q30 18 65 18q47 0 69 -30l47 -87l40 61q13 19 30 54q45 0 78 -15t42 -44q9 -28 -24 -72l-56 -66q-24 -28 -44 -40q-17 -10 -51 -10q-71 0 -108 23z" />
    <glyph glyph-name="ecaron" unicode="&#x11b;" horiz-adv-x="641" 
d="M45 245l1 -5q0 -257 308 -257q107 0 180 35q72 35 72 104q0 25 -12 52q-12 26 -33 40q-65 -43 -164 -43q-96 0 -110 47q45 -8 84 -8q47 0 93 8q43 7 82 24q38 16 61 47q22 29 22 70q0 82 -73 127q-74 45 -201 45q-146 0 -228 -76t-82 -210zM296 284l1 -1q1 40 23 69
q21 28 60 28q40 0 40 -36q0 -25 -32 -42q-31 -16 -92 -18zM268 578l-125 158q8 32 37 50q30 18 65 18q47 0 69 -30l47 -87l40 61q13 20 30 54q45 0 78 -15t42 -44t-24 -72l-56 -66q-24 -28 -44 -40q-17 -10 -51 -10q-71 0 -108 23z" />
    <glyph glyph-name="Gcircumflex" unicode="&#x11c;" horiz-adv-x="702" 
d="M495 229h4v-20q0 -29 -87 -29q-128 0 -128 153q0 140 128 140q97 0 168 -41q34 13 55 43t21 64q0 50 -41 85t-96 47t-123 12q-178 0 -265 -102t-87 -268q0 -64 17 -123q16 -55 50 -103q33 -46 91 -73t135 -27q122 0 189 73q11 -36 37 -54q27 -18 62 -18q45 0 79 21v243
q0 74 -22 96q-23 23 -84 23h-184q-13 -35 -13 -65q0 -77 94 -77zM472 926l124 -157q-7 -31 -37 -49t-65 -18q-46 0 -69 30l-48 83l-38 -61q-13 -20 -30 -54q-45 0 -78 15t-42 44t24 72l54 66q24 30 44 41t53 11q71 0 108 -23z" />
    <glyph glyph-name="gcircumflex" unicode="&#x11d;" horiz-adv-x="692" 
d="M613 332l-7 -7q0 49 -20 87q44 9 66 34q23 26 23 54q0 34 -24 58t-64 24q-19 0 -41 -8v-10q0 -47 -40 -74q-69 36 -170 36q-134 0 -223 -59q-88 -58 -88 -165q0 -123 112 -171q-45 -19 -72 -54t-27 -79q0 -78 77 -102q-60 -18 -60 -78q0 -41 38 -70t91 -39
q57 -11 120 -11q332 0 339 193q0 67 -44 106q-43 38 -105 49t-124 15t-106 12t-44 28q0 6 2 12q38 -7 95 -7q126 0 211 61t85 165zM317 372v-1q66 0 66 -55q0 -24 -18 -44t-51 -20q-68 0 -68 55q0 25 18 45t53 20zM385 -156h-1q0 -16 -25 -25t-60 -9q-109 0 -111 45
q0 9 5 19q19 -4 71 -6t86 -6q35 -5 35 -18zM405 784l124 -157q-7 -31 -37 -49t-65 -18q-47 0 -69 30l-48 83l-38 -61q-14 -20 -30 -54q-45 0 -78 15t-42 44t24 72l54 66q24 30 44 41t53 11q71 0 108 -23z" />
    <glyph glyph-name="Gbreve" unicode="&#x11e;" horiz-adv-x="702" 
d="M495 229h4v-20q0 -29 -87 -29q-128 0 -128 153q0 140 128 140q97 0 168 -41q34 13 55 43t21 64q0 50 -41 85t-96 47t-123 12q-178 0 -265 -102t-87 -268q0 -64 17 -123q16 -55 50 -103q33 -46 91 -73t135 -27q122 0 189 73q11 -36 37 -54q27 -18 62 -18q45 0 79 21v243
q0 74 -22 96q-23 23 -84 23h-184q-13 -35 -13 -65q0 -77 94 -77zM370 716l1 -1q-86 1 -142 39q-55 37 -55 91q0 33 21 57q20 23 65 28q48 -60 110 -60t111 60q45 -5 65 -28q21 -24 21 -56q0 -54 -55 -91q-56 -38 -142 -39z" />
    <glyph glyph-name="gbreve" unicode="&#x11f;" horiz-adv-x="692" 
d="M613 332l-7 -7q0 49 -20 87q44 9 66 34q23 26 23 54q0 34 -24 58t-64 24q-19 0 -41 -8v-10q0 -47 -40 -74q-69 36 -170 36q-134 0 -223 -59q-88 -58 -88 -165q0 -123 112 -171q-45 -19 -72 -54t-27 -79q0 -78 77 -102q-60 -18 -60 -78q0 -41 38 -70t91 -39
q57 -11 120 -11q332 0 339 193q0 67 -44 106q-43 38 -105 49t-124 15t-106 12t-44 28q0 6 2 12q38 -7 95 -7q126 0 211 61t85 165zM317 372v-1q66 0 66 -55q0 -24 -18 -44t-51 -20q-68 0 -68 55q0 25 18 45t53 20zM385 -156h-1q0 -16 -25 -25t-60 -9q-109 0 -111 45
q0 9 5 19q19 -4 71 -6t86 -6q35 -5 35 -18zM322 567l1 -1q-86 1 -142 39q-55 37 -55 91q0 33 21 57q20 23 65 28q48 -60 110 -60t111 60q45 -5 65 -28q21 -24 21 -56q0 -54 -55 -91q-56 -38 -142 -39z" />
    <glyph glyph-name="Gdotaccent" unicode="&#x120;" horiz-adv-x="702" 
d="M495 229h4v-20q0 -29 -87 -29q-128 0 -128 153q0 140 128 140q97 0 168 -41q34 13 55 43t21 64q0 50 -41 85t-96 47t-123 12q-178 0 -265 -102t-87 -268q0 -64 17 -123q16 -55 50 -103q33 -46 91 -73t135 -27q122 0 189 73q11 -36 37 -54q27 -18 62 -18q45 0 79 21v243
q0 74 -22 96q-23 23 -84 23h-184q-13 -35 -13 -65q0 -77 94 -77zM373 715l-1 -1q-56 0 -84 27t-28 72q0 48 36 84t97 36q55 0 84 -27t29 -72q0 -47 -36 -83t-97 -36z" />
    <glyph glyph-name="gdotaccent" unicode="&#x121;" horiz-adv-x="656" 
d="M332 532l-6 -5q-130 0 -216 -60t-86 -164q0 -123 112 -171q-45 -20 -72 -54t-27 -79q0 -78 77 -102q-60 -18 -60 -78q0 -41 38 -70t91 -39q57 -11 120 -11q332 0 339 193q0 67 -44 106q-43 38 -105 49t-124 15t-106 12t-44 28q0 6 2 12q38 -7 95 -7q126 0 211 61t85 165
q0 66 -40 118q73 45 73 115q0 38 -24 65t-70 27q-31 0 -61 -15t-43 -40q29 -26 29 -72q0 -3 -2 -19q-59 19 -142 20zM386 -153h-1q0 -16 -25 -25q-26 -9 -60 -9q-110 0 -111 45q0 9 5 19q19 -4 71 -6t86 -6q35 -5 35 -18zM317 374v-1q66 0 66 -55q0 -25 -18 -44
q-18 -20 -51 -20q-68 0 -68 55q0 25 18 45t53 20zM303 575l-1 -1q-56 0 -84 27t-28 72q0 48 36 84t97 36q55 0 84 -27t29 -72q0 -47 -36 -83t-97 -36z" />
    <glyph glyph-name="Gcommaaccent" unicode="&#x122;" horiz-adv-x="702" 
d="M502 229l-6 -2q-94 0 -94 77q0 30 13 65h184q62 0 84 -22t22 -96v-243q-35 -21 -79 -21q-35 0 -62 18q-26 18 -37 54q-67 -73 -189 -73q-76 0 -135 27q-58 27 -91 73q-32 46 -49 103q-16 55 -16 123q0 166 87 268t265 102q67 0 123 -12t96 -46q41 -35 41 -85
q0 -34 -21 -64t-55 -43q-71 41 -168 41q-128 0 -128 -140q0 -153 128 -153q87 0 87 29v20zM320 -280v-3q67 31 67 87q0 18 -13 45t-13 43q0 36 33 59q34 23 74 23q55 0 84 -38t29 -87q0 -73 -49 -126q-50 -54 -123 -54q-67 0 -89 51z" />
    <glyph glyph-name="gcommaaccent" unicode="&#x123;" horiz-adv-x="656" 
d="M332 532l-6 -5q-130 0 -216 -60t-86 -164q0 -123 112 -171q-45 -20 -72 -54t-27 -79q0 -78 77 -102q-60 -18 -60 -78q0 -41 38 -70t91 -39q57 -11 120 -11q332 0 339 193q0 67 -44 106q-43 38 -105 49t-124 15t-106 12t-44 28q0 6 2 12q38 -7 95 -7q126 0 211 61t85 165
q0 66 -40 118q73 45 73 115q0 38 -24 65t-70 27q-31 0 -61 -15t-43 -40q29 -26 29 -72q0 -3 -2 -19q-59 19 -142 20zM386 -153h-1q0 -16 -25 -25q-26 -9 -60 -9q-110 0 -111 45q0 9 5 19q19 -4 71 -6t86 -6q35 -5 35 -18zM317 374v-1q66 0 66 -55q0 -25 -18 -44
q-18 -20 -51 -20q-68 0 -68 55q0 25 18 45t53 20zM454 817l-2 1q-67 -31 -67 -87q0 -19 13 -46t13 -42q0 -35 -33 -58q-32 -22 -73 -22q-55 0 -84 38t-29 87q0 71 50 126q50 54 123 54q67 0 89 -51z" />
    <glyph glyph-name="Hcircumflex" unicode="&#x124;" horiz-adv-x="777" 
d="M505 498l-5 -75h-150q-9 0 -12 3t-3 14v109v36q0 16 -4 33q-5 21 -10 30t-20 19q-13 9 -33 9q-34 -3 -80 -9q-76 -10 -90 -11q-31 -3 -90 -7q-3 -17 -3 -35q0 -49 23 -87q22 -37 69 -45v-341q2 -40 4 -57q3 -19 11 -46q8 -24 24 -36t42 -12q22 0 188 41q-22 65 -27 141
v76h151q8 0 11 -4t3 -15v-86q2 -40 4 -57q3 -19 11 -46q7 -24 24 -36t42 -12t191 41q-22 65 -27 141v354q-2 40 -4 57q-3 26 -10 47q-7 24 -24 36t-42 12t-191 -41q22 -65 27 -141zM512 920l124 -157q-7 -31 -37 -49t-65 -18q-46 0 -69 30l-48 83l-38 -61q-13 -20 -30 -54
q-45 0 -78 15t-42 44t24 72l54 66q24 30 44 41t53 11q71 0 108 -23z" />
    <glyph glyph-name="hcircumflex" unicode="&#x125;" horiz-adv-x="747" 
d="M663 173l-2 161q0 98 -41 150q-40 51 -111 51q-125 0 -192 -132v209q-2 33 -4 48q-3 22 -10 43q-8 25 -22 36q-15 12 -38 12q-17 0 -99 -27q-77 -25 -114 -34q44 -64 44 -169v-408q2 -32 4 -44q3 -19 10 -36q8 -21 22 -29q15 -9 39 -9q13 0 45 6q17 3 78 17q44 10 71 15
q-20 51 -25 108v77q0 58 21 96t48 38q28 0 28 -42v-170q0 -149 159 -149q129 0 154 109q-36 5 -50 20q-13 15 -15 53zM278 994l124 -157q-7 -31 -37 -49t-65 -18q-46 0 -69 30l-48 83l-38 -61q-13 -20 -30 -54q-45 0 -78 15t-42 44t24 72l54 66q24 30 44 41t53 11
q71 0 108 -23z" />
    <glyph glyph-name="Hbar" unicode="&#x126;" horiz-adv-x="825" 
d="M736 576l17 2q18 0 48 6q24 -26 24 -54q0 -23 -17 -37q-16 -13 -59 -13h-8v-305q5 -77 27 -141q-166 -41 -191 -41t-42 12t-24 36q-7 21 -10 47q-2 17 -4 57v81q0 10 -3 15q-3 4 -11 4h-151v-71q4 -76 27 -141q-166 -41 -188 -41q-25 0 -42 12t-24 36q-7 21 -10 47
q-2 17 -4 57v334h-12q-17 0 -48 -6q-24 26 -24 54q0 23 17 37q16 13 59 13h8v69q126 34 162 34q65 0 75 -103h168v69q129 34 165 34q65 0 75 -103zM332 480v-42q0 -11 3 -14t12 -3h150v59h-165z" />
    <glyph glyph-name="Itilde" unicode="&#x128;" horiz-adv-x="482" 
d="M135 512l-1 -334q0 -11 -11 -13q-78 -5 -78 -78q0 -48 31 -89h302q51 0 79 23q27 23 27 60q0 43 -32 90q-42 -5 -75 -5v332q0 11 11 13q78 5 78 78q0 58 -31 99q-37 -10 -105 -10h-197q-51 0 -78 -24t-27 -63q0 -37 32 -84q42 5 75 5zM465 819v-2q0 -47 -31 -71
q-32 -24 -84 -24q-24 0 -80 8t-78 8q-55 0 -75 -38q-37 4 -61 28t-24 60q0 90 105 94q27 0 93 -8t80 -8q52 0 69 42q40 -5 62 -28q23 -24 24 -61z" />
    <glyph glyph-name="itilde" unicode="&#x129;" horiz-adv-x="452" 
d="M377 141l-3 290v29q0 11 -3 26q-3 16 -10 24q-7 9 -21 15t-33 6q-36 -3 -127 -15q-95 -13 -147 -14q0 -25 1 -35q2 -18 7 -35q6 -20 15 -33q8 -13 27 -22q17 -8 44 -10v-255q2 -32 4 -44q3 -19 10 -36q8 -21 22 -29q15 -9 39 -9q15 0 48 6q19 4 81 17l71 16
q-20 51 -25 108zM429 667v-2q0 -47 -31 -71q-32 -24 -84 -24q-24 0 -80 8t-78 8q-55 0 -75 -38q-38 4 -61 28q-24 24 -24 60q0 90 105 94q27 0 93 -8t80 -8q52 0 69 42q40 -5 62 -28q23 -24 24 -61z" />
    <glyph glyph-name="imacron" unicode="&#x12b;" horiz-adv-x="400" 
d="M342 432v-293q5 -57 25 -108l-71 -16q-62 -13 -81 -17q-33 -6 -48 -6q-24 0 -39 9q-14 8 -22 29q-7 17 -10 36q-2 12 -4 44v255q-24 1 -43 11q-17 9 -27 23q-9 13 -15 33q-5 17 -7 35q-1 10 -1 35q52 1 147 14q89 12 128 15q20 0 33 -6t21 -15q8 -10 11 -24q3 -15 3 -26
v-28zM292 727l-3 2q41 0 63 9q21 -34 21 -72t-22 -60q-23 -23 -64 -24q-20 0 -108 5t-92 5q-41 0 -63 -9q-21 37 -21 72q0 37 24 60q23 22 69 22q17 0 105 -5t91 -5z" />
    <glyph glyph-name="Ibreve" unicode="&#x12c;" horiz-adv-x="482" 
d="M135 512l-1 -334q0 -11 -11 -13q-78 -5 -78 -78q0 -48 31 -89h302q51 0 79 23q27 23 27 60q0 43 -32 90q-42 -5 -75 -5v332q0 11 11 13q78 5 78 78q0 58 -31 99q-37 -10 -105 -10h-197q-51 0 -78 -24t-27 -63q0 -37 32 -84q42 5 75 5zM247 717l1 -1q-86 1 -142 39
q-55 37 -55 91q0 33 21 57q20 23 65 28q48 -60 110 -60q61 0 111 60q45 -5 65 -28q21 -24 21 -56q0 -54 -55 -91q-56 -38 -142 -39z" />
    <glyph glyph-name="Iogonek" unicode="&#x12e;" horiz-adv-x="482" 
d="M477 -154l-1 4q0 -46 -37 -73q-38 -27 -106 -27q-58 0 -91 30t-33 78q0 79 83 144h-216q-31 41 -31 89q0 73 78 78q11 2 11 13v332q-34 0 -76 -5q-32 47 -32 84q0 39 27 63t78 24h197q68 0 105 10q31 -41 31 -99q0 -73 -78 -78q-11 -2 -11 -13v-332q33 0 75 5
q32 -47 32 -90q0 -23 -15 -43t-33 -30q-19 -11 -33 -31q-15 -21 -15 -48q0 -37 37 -37q19 0 36 6q18 -28 18 -54z" />
    <glyph glyph-name="iogonek" unicode="&#x12f;" horiz-adv-x="392" 
d="M94 366l-5 -260q1 -29 5 -55q3 -20 18 -40q15 -19 42 -21q-73 -61 -73 -138q0 -48 33 -78t91 -30q69 0 107 27t38 74q0 25 -18 54q-16 -6 -36 -6q-37 0 -37 37q0 33 26 62q25 28 81 39q-20 51 -25 108v291v29q0 11 -3 26q-3 16 -10 24q-8 9 -21 15t-33 6q-36 -3 -127 -15
q-95 -13 -147 -14q0 -25 1 -35q2 -18 7 -35q6 -19 15 -33q9 -13 27 -22q17 -8 44 -10zM327 664l-1 1q0 -51 -34 -81t-100 -30q-125 0 -125 97q0 50 38 82q37 31 101 31q58 0 90 -27q31 -27 31 -73z" />
    <glyph glyph-name="Kcommaaccent" unicode="&#x136;" horiz-adv-x="725" 
d="M340 303l-3 -132q5 -77 27 -141q-166 -41 -188 -41q-26 0 -42 12t-24 36q-7 21 -10 47q-2 17 -4 57v341q-46 8 -69 45q-22 37 -22 87q0 18 3 35q37 2 90 8q14 1 90 11q46 6 80 9q20 0 33 -9q15 -10 20 -19q7 -12 11 -30q5 -22 5 -33v-36v-153h29q50 0 69 36q20 37 20 83
q0 50 -27 103q56 59 138 59q68 0 101 -43t33 -102q0 -118 -108 -190q27 -72 77 -128q49 -55 98 -66q-3 -80 -49 -117t-111 -37q-47 0 -78 12t-60 45q-28 32 -49 94q-20 59 -37 157h-43zM276 -234v-3q67 31 67 87q0 18 -13 45t-13 43q0 36 33 59q34 23 74 23q55 0 84 -38
t29 -87q0 -73 -49 -126q-50 -54 -123 -54q-67 0 -89 51z" />
    <glyph glyph-name="kcommaaccent" unicode="&#x137;" horiz-adv-x="689" 
d="M64 111l2 402q0 105 -44 169q37 9 114 34q82 27 99 27q23 0 38 -12q16 -13 23 -36q7 -21 10 -43q2 -15 4 -48v-241q86 164 228 164q64 0 96 -35t32 -87q0 -59 -36 -98q-36 -38 -108 -40q32 -39 82 -39q28 0 51 14q27 -40 27 -93q0 -68 -41 -117q-41 -48 -114 -48
q-52 0 -90 22q-39 22 -60 60q-20 36 -31 78q-10 39 -10 86q46 6 76 27t30 46q0 14 -9 23t-24 9q-55 0 -101 -76v-120q5 -57 25 -108q-27 -5 -71 -15q-61 -14 -78 -17q-32 -6 -45 -6q-24 0 -39 9q-14 8 -22 29q-7 17 -10 36q-2 12 -4 44zM217 -254v-3q67 31 67 87
q0 18 -13 45t-13 43q0 36 33 59q34 23 74 23q55 0 84 -38t29 -87q0 -73 -49 -126q-49 -54 -123 -54q-66 0 -89 51z" />
    <glyph glyph-name="Lacute" unicode="&#x139;" horiz-adv-x="578" 
d="M99 144l-1 338q-46 8 -69 45q-22 37 -22 87q0 18 3 35q37 2 90 8q14 1 90 11q46 6 80 9q20 0 33 -9q15 -10 20 -19q7 -12 11 -30q5 -22 5 -33v-36v-323q0 -18 10 -18h49h48q99 0 162 29q20 -26 30 -60q11 -36 11 -55q0 -40 -14 -66q-13 -25 -42 -37q-27 -11 -60 -16
q-28 -4 -81 -4h-263q-21 0 -39 8q-17 8 -26 20t-15 33q-5 19 -7 39q-1 17 -3 44zM362 823l-164 -132q-32 11 -60 34q-28 24 -28 52q0 18 13 34l145 180q35 -6 66 -28q32 -23 44 -54q9 -21 6 -46t-22 -40z" />
    <glyph glyph-name="lacute" unicode="&#x13a;" horiz-adv-x="381" 
d="M313 609v-394q5 -47 25 -63q22 -17 63 -17q-2 -68 -43 -105t-102 -37q-84 0 -137 45t-53 138v343q0 105 -44 169q33 6 116 33q84 27 101 27q74 0 74 -139zM288 880l-164 -132q-32 11 -60 34q-28 24 -28 52q0 18 13 34l145 180q35 -6 66 -28q32 -23 44 -54q9 -21 6 -46
t-22 -40z" />
    <glyph glyph-name="Lcommaaccent" unicode="&#x13b;" horiz-adv-x="578" 
d="M99 144l-1 338q-46 8 -69 45q-22 37 -22 87q0 18 3 35q37 2 90 8q14 1 90 11q46 6 80 9q20 0 33 -9q15 -10 20 -19q7 -12 11 -30q5 -22 5 -33v-36v-323q0 -18 10 -18h49h48q99 0 162 29q20 -26 30 -60q11 -36 11 -55q0 -40 -14 -66q-13 -25 -42 -37q-27 -11 -60 -16
q-28 -4 -81 -4h-263q-21 0 -39 8q-17 8 -26 20t-15 33q-5 19 -7 39q-1 17 -3 44zM231 -285v-3q67 31 67 87q0 18 -13 45t-13 43q0 37 33 59q34 23 74 23q55 0 84 -38t29 -87q0 -73 -49 -126q-49 -54 -123 -54q-66 0 -89 51z" />
    <glyph glyph-name="lcommaaccent" unicode="&#x13c;" horiz-adv-x="380" 
d="M97 -287v-3q67 31 67 87q0 19 -13 46t-13 42q0 37 33 59q34 23 74 23q55 0 84 -38t29 -87q0 -73 -49 -126q-49 -54 -123 -54q-66 0 -89 51zM312 606v-394q5 -47 25 -63q22 -17 63 -17q-2 -68 -43 -105t-102 -37q-85 0 -137 45q-53 45 -53 138v343q0 105 -44 169
q33 6 116 33q84 27 101 27q74 0 74 -139z" />
    <glyph glyph-name="Lcaron" unicode="&#x13d;" horiz-adv-x="578" 
d="M99 144l-1 338q-46 8 -69 45q-22 37 -22 87q0 18 3 35q37 2 90 8q14 1 90 11q46 6 80 9q20 0 33 -9q15 -10 20 -19q7 -12 11 -30q5 -22 5 -33v-36v-323q0 -18 10 -18h49h48q99 0 162 29q20 -26 30 -60q11 -36 11 -55q0 -40 -14 -66q-13 -25 -42 -37q-27 -11 -60 -16
q-28 -4 -81 -4h-263q-21 0 -39 8q-17 8 -26 20t-15 33q-5 19 -7 39q-1 17 -3 44zM363 420v-3q67 31 67 87q0 19 -13 46t-13 42q0 36 33 59q34 23 74 23q55 0 84 -38t29 -87q0 -73 -49 -126q-49 -54 -123 -54q-66 0 -89 51z" />
    <glyph glyph-name="lcaron" unicode="&#x13e;" horiz-adv-x="529" 
d="M312 609v-394q5 -47 25 -63q22 -17 63 -17q-2 -68 -43 -105t-102 -37q-85 0 -137 45q-53 45 -53 138v343q0 105 -44 169q33 6 116 33q84 27 101 27q74 0 74 -139zM334 494v-3q67 31 67 87q0 18 -13 45t-13 43q0 36 33 59q34 23 74 23q55 0 84 -38t29 -87q0 -73 -49 -126
q-50 -54 -123 -54q-67 0 -89 51z" />
    <glyph glyph-name="Ldot" unicode="&#x13f;" horiz-adv-x="578" 
d="M99 144h-3q2 -27 3 -44q2 -20 7 -39q6 -21 15 -33t26 -20q18 -8 39 -8h263q53 0 81 4q33 5 60 16q28 12 42 38t14 66q0 23 -10 56q-10 34 -30 60q-63 -29 -162 -29h-48h-49q-10 0 -10 18v323v36q0 16 -4 33q-5 21 -10 30t-20 19q-13 9 -33 9q-34 -3 -80 -9
q-76 -10 -90 -11q-31 -3 -90 -7q-3 -16 -3 -35q0 -49 23 -87q22 -38 69 -45v-341zM178 705h-1q-49 0 -75 21q-25 21 -25 57q0 37 33 66q34 29 88 29q50 0 75 -21q26 -21 26 -57q0 -38 -33 -66q-34 -29 -88 -29z" />
    <glyph glyph-name="Lslash" unicode="&#x141;" horiz-adv-x="578" 
d="M99 144l-2 50l-39 -27q-23 5 -38 24t-15 41q0 37 34 61l58 40v148q-47 7 -69 45q-22 37 -22 87q0 19 3 35q37 2 90 8q14 1 90 11q46 6 80 9q19 0 33 -9q15 -10 20 -19q7 -12 11 -30q5 -22 5 -33v-36v-45l76 53q21 16 38 36q27 -7 47 -26q20 -18 20 -41q0 -34 -42 -62
l-138 -97v-140q0 -18 10 -18h49h48q99 0 162 29q20 -26 30 -60q11 -36 11 -55q0 -40 -14 -66q-13 -25 -42 -37q-27 -11 -60 -16q-28 -4 -81 -4h-263q-21 0 -39 8q-17 8 -26 20t-15 33q-5 19 -7 39q-1 17 -3 44z" />
    <glyph glyph-name="lslash" unicode="&#x142;" horiz-adv-x="475" 
d="M375 529l15 11q21 16 38 36q27 -7 47 -26q20 -18 20 -41q0 -33 -42 -62l-78 -55v-178q5 -47 25 -63q22 -17 63 -17q-2 -68 -43 -105t-102 -37q-84 0 -137 45t-53 138v42l-53 -37q-23 5 -38 24q-15 20 -15 41q0 37 34 61l72 50v163q0 105 -44 169q33 6 116 33
q84 27 101 27q74 0 74 -139v-80z" />
    <glyph glyph-name="Nacute" unicode="&#x143;" horiz-adv-x="745" 
d="M724 527l-9 -512q-37 -20 -92 -20q-42 0 -63 6t-37 22l-239 318q3 -17 6 -171q1 -102 26 -159q-86 -21 -117 -21t-51 11q-19 10 -28 33q-9 22 -12 47q-3 24 -3 62v368q-29 0 -66 -5q-32 47 -32 84q0 39 27 63t78 24h100q48 -1 84 -18q37 -17 71 -60l173 -244l-1 142
q-4 107 -27 160q86 21 117 21q32 0 51 -10q20 -11 29 -33q9 -23 12 -46q3 -24 3 -62zM592 769l-164 -132q-32 11 -60 34q-28 24 -28 52q0 18 13 34l145 180q35 -6 66 -28q32 -23 44 -54q9 -21 6 -46t-22 -40z" />
    <glyph glyph-name="nacute" unicode="&#x144;" horiz-adv-x="727" 
d="M337 224l2 -86q5 -57 25 -108l-71 -16q-62 -13 -81 -17q-33 -6 -48 -6q-24 0 -39 9q-14 8 -22 29q-7 17 -10 36q-2 12 -4 44v255q-24 1 -43 11q-18 9 -27 23t-15 33q-5 17 -7 35q-1 10 -1 35q52 1 147 14q89 12 128 15q19 0 33 -6t21 -15q8 -10 11 -24q3 -15 3 -26v-28
v-32q67 132 192 132q71 0 111 -51q41 -52 41 -150v-159q1 -37 15 -52q13 -14 50 -19q-25 -109 -154 -109q-159 0 -159 149v170q0 42 -28 42q-27 0 -48 -36q-20 -35 -22 -92zM537 654l-164 -132q-32 11 -60 34q-28 24 -28 52q0 18 13 34l145 180q35 -6 66 -28q32 -23 44 -54
q9 -21 6 -46t-22 -40z" />
    <glyph glyph-name="Ncommaaccent" unicode="&#x145;" horiz-adv-x="745" 
d="M724 527l-9 -512q-37 -20 -92 -20q-42 0 -63 6t-37 22l-239 318q3 -17 6 -171q1 -102 26 -159q-86 -21 -117 -21t-51 11q-19 10 -28 33q-9 22 -12 47q-3 24 -3 62v368q-29 0 -66 -5q-32 47 -32 84q0 39 27 63t78 24h100q48 -1 84 -18q37 -17 71 -60l173 -244l-1 142
q-4 107 -27 160q86 21 117 21q32 0 51 -10q20 -11 29 -33q9 -23 12 -46q3 -24 3 -62zM285 -225v-3q67 31 67 87q0 18 -13 45t-13 43q0 36 33 59q34 23 74 23q55 0 84 -38t29 -87q0 -73 -49 -126q-49 -54 -123 -54q-66 0 -89 51z" />
    <glyph glyph-name="ncommaaccent" unicode="&#x146;" horiz-adv-x="727" 
d="M337 224l2 -86q5 -57 25 -108l-71 -16q-62 -13 -81 -17q-33 -6 -48 -6q-24 0 -39 9q-14 8 -22 29q-7 17 -10 36q-2 12 -4 44v255q-24 1 -43 11q-18 9 -27 23t-15 33q-5 17 -7 35q-1 10 -1 35q52 1 147 14q89 12 128 15q19 0 33 -6t21 -15q8 -10 11 -24q3 -15 3 -26v-28
v-32q67 132 192 132q71 0 111 -51q41 -52 41 -150v-159q1 -37 15 -52q13 -14 50 -19q-25 -109 -154 -109q-159 0 -159 149v170q0 42 -28 42q-27 0 -48 -36q-20 -35 -22 -92zM259 -247v-3q67 31 67 87q0 18 -13 45t-13 43q0 36 33 59q34 23 74 23q55 0 84 -38t29 -87
q0 -73 -49 -126q-49 -54 -123 -54q-66 0 -89 51z" />
    <glyph glyph-name="Ncaron" unicode="&#x147;" horiz-adv-x="745" 
d="M724 527l-9 -512q-37 -20 -92 -20q-42 0 -63 6t-37 22l-239 318q3 -17 6 -171q1 -102 26 -159q-86 -21 -117 -21t-51 11q-19 10 -28 33q-9 22 -12 47q-3 24 -3 62v368q-29 0 -66 -5q-32 47 -32 84q0 39 27 63t78 24h100q48 -1 84 -18q37 -17 71 -60l173 -244l-1 142
q-4 107 -27 160q86 21 117 21q32 0 51 -10q20 -11 29 -33q9 -23 12 -46q3 -24 3 -62zM322 692l-125 158q8 32 37 50q30 18 65 18q47 0 69 -30l47 -87l40 61q13 20 30 54q45 0 78 -15t42 -44t-24 -72l-56 -66q-24 -28 -44 -40q-17 -10 -51 -10q-71 0 -108 23z" />
    <glyph glyph-name="ncaron" unicode="&#x148;" horiz-adv-x="727" 
d="M337 141l-5 81q2 57 22 92q21 36 48 36q28 0 28 -42v-170q0 -149 159 -149q129 0 154 109q-36 5 -50 20q-13 15 -15 53v159q0 98 -41 150q-41 51 -111 51q-124 0 -192 -132v32v29q0 11 -3 26q-3 16 -10 24q-7 9 -21 15t-33 6q-36 -3 -127 -15q-95 -13 -147 -14
q0 -25 1 -35q2 -18 7 -35q6 -20 15 -33q8 -13 27 -22q17 -8 44 -10v-255q2 -32 4 -44q3 -19 10 -36q8 -21 22 -29q15 -9 39 -9q15 0 48 6q19 4 81 17l71 16q-20 51 -25 108zM288 562l-125 158q8 32 37 50q30 18 65 18q47 0 69 -30l47 -87l40 61q13 20 30 54q45 0 78 -15
t42 -44t-24 -72l-56 -66q-24 -28 -44 -40q-17 -10 -51 -10q-71 0 -108 23z" />
    <glyph glyph-name="Omacron" unicode="&#x14c;" horiz-adv-x="731" 
d="M287 335v-1q0 -132 103 -132q106 0 106 133q0 63 -27 99t-75 36q-107 0 -107 -135zM393 -13l-2 2q-347 0 -347 327q0 76 21 141t63 116q43 52 111 80q70 29 159 29q339 0 339 -325q0 -75 -20 -141q-19 -64 -60 -117q-40 -52 -108 -82q-67 -30 -156 -30zM500 871l-3 1
q41 0 63 9q21 -35 21 -72q0 -38 -22 -60q-23 -23 -64 -24q-20 0 -108 5t-92 5q-41 0 -63 -9q-21 38 -21 73q0 37 24 60q23 22 69 22q17 0 105 -5t91 -5z" />
    <glyph glyph-name="omacron" unicode="&#x14d;" 
d="M273 260l-2 -3q0 -32 18 -56t53 -24q30 0 51 22q21 23 21 60q0 39 -19 61t-49 22q-31 0 -52 -22t-21 -60zM346 -15l1 2q-160 0 -237 68q-76 67 -76 189q0 124 81 205t232 81q156 0 231 -69t75 -190q0 -124 -79 -204t-228 -82zM443 721l-3 1q40 0 63 9q21 -35 21 -72
q0 -38 -22 -60q-23 -23 -64 -24q-20 0 -108 5t-92 5q-40 0 -63 -9q-21 38 -21 73q0 37 24 60q23 22 69 22q17 0 105 -5t91 -5z" />
    <glyph glyph-name="Obreve" unicode="&#x14e;" horiz-adv-x="731" 
d="M287 335v1q0 135 107 135q48 0 75 -36t27 -99q0 -133 -106 -133q-103 0 -103 132zM393 -11l2 -2q89 0 156 30q68 30 108 82q41 53 60 117q20 66 20 141q0 325 -339 325q-89 0 -159 -29q-68 -28 -111 -80q-42 -51 -63 -116t-21 -141q0 -327 347 -327zM395 717l1 -1
q-86 1 -142 39q-55 37 -55 91q0 33 21 57q20 23 65 28q48 -60 110 -60q61 0 111 60q45 -5 65 -28q21 -24 21 -56q0 -54 -55 -91q-56 -38 -142 -39z" />
    <glyph glyph-name="obreve" unicode="&#x14f;" 
d="M273 260l-2 -3q0 -32 18 -56t53 -24q30 0 51 22q21 23 21 60q0 39 -19 61t-49 22q-31 0 -52 -22t-21 -60zM346 -15l1 2q-160 0 -237 68q-76 67 -76 189q0 124 81 205t232 81q156 0 231 -69t75 -190q0 -124 -79 -204t-228 -82zM347 560l1 -1q-86 1 -142 39q-55 37 -55 91
q0 33 21 57q20 23 65 28q48 -60 110 -60q61 0 111 60q45 -5 65 -28q21 -24 21 -56q0 -54 -55 -91q-56 -38 -142 -39z" />
    <glyph glyph-name="Ohungarumlaut" unicode="&#x150;" horiz-adv-x="731" 
d="M287 335v-1q0 -132 103 -132q106 0 106 133q0 63 -27 99t-75 36q-107 0 -107 -135zM393 -13l-2 2q-347 0 -347 327q0 76 21 141t63 116q43 52 111 80q70 29 159 29q339 0 339 -325q0 -75 -20 -141q-19 -64 -60 -117q-40 -52 -108 -82q-67 -30 -156 -30zM429 838
l-165 -129q-77 26 -77 78q0 18 14 35l145 179q76 -11 101 -75q19 -58 -18 -88zM668 839l-165 -129q-31 11 -53 30q-23 20 -23 48q0 19 13 35l145 179q76 -11 101 -75q19 -58 -18 -88z" />
    <glyph glyph-name="ohungarumlaut" unicode="&#x151;" 
d="M273 260l-2 -3q0 -32 18 -56t53 -24q30 0 51 22q21 23 21 60q0 39 -19 61t-49 22q-31 0 -52 -22t-21 -60zM346 -15l1 2q-160 0 -237 68q-76 67 -76 189q0 124 81 205t232 81q156 0 231 -69t75 -190q0 -124 -79 -204t-228 -82zM369 682l-165 -129q-77 26 -77 78
q0 18 14 35l145 179q76 -11 101 -75q19 -58 -18 -88zM608 683l-165 -129q-31 11 -53 30q-23 20 -23 48q0 19 13 35l145 179q76 -11 101 -75q19 -58 -18 -88z" />
    <glyph glyph-name="OE" unicode="&#x152;" horiz-adv-x="983" 
d="M570 679l262 -4q68 0 105 10q31 -41 31 -99q0 -30 -12 -49q-12 -20 -34 -27q-23 -8 -40 -9q-24 -2 -46 -2h-136v-63q0 -11 3 -14t12 -3h173q13 -30 13 -66q0 -94 -125 -94h-76v-65q0 -11 3 -14t12 -3h123q57 0 105 13q31 -41 31 -102q0 -30 -12 -49q-12 -20 -34 -27
q-23 -8 -40 -9q-24 -2 -46 -2h-271q-57 0 -85 28q-53 -40 -143 -40q-139 0 -217 90t-78 236q0 72 20 138q19 63 59 117q39 53 104 83t147 30q61 0 125 -26q22 22 67 22zM288 331l-1 1q0 -26 5 -54q5 -27 16 -52q12 -27 37 -43t60 -16q31 0 55 7v319q-22 7 -51 7
q-65 0 -93 -48q-28 -47 -28 -121z" />
    <glyph glyph-name="oe" unicode="&#x153;" horiz-adv-x="972" 
d="M35 235v-1q0 128 77 213q76 84 228 84q89 0 156 -47q78 48 189 48q127 0 201 -45q73 -45 73 -127q0 -41 -22 -70q-22 -30 -61 -46q-39 -17 -82 -24q-41 -7 -93 -7q-39 0 -84 8q14 -47 110 -47q99 0 164 43q21 -14 33 -40q12 -27 12 -52q0 -68 -72 -103q-71 -34 -180 -34
q-121 0 -194 40q-81 -39 -168 -39q-128 0 -208 63q-79 63 -79 183zM376 244l-1 -3q0 63 19 114q-22 8 -41 8q-39 0 -60 -30t-21 -77q0 -44 20 -73q19 -28 59 -28q13 0 35 5q-10 33 -10 84zM625 285l-1 1q61 2 92 18q32 17 32 42q0 36 -40 36q-39 0 -60 -28q-22 -29 -23 -69z
" />
    <glyph glyph-name="Racute" unicode="&#x154;" horiz-adv-x="712" 
d="M353 208l-1 -38q5 -73 27 -140l-53 -13l-56 -14q-18 -5 -42 -9q-21 -4 -36 -4q-26 0 -42 12t-24 36q-7 21 -10 47q-2 17 -4 57v358q-34 0 -76 -5q-32 47 -32 94q0 29 12 48q12 20 34 27q25 8 44 11q21 3 50 3h218q176 0 258 -58t82 -172q0 -146 -90 -192q51 -86 123 -102
q-3 -85 -45 -124t-106 -39q-21 0 -39 3q-17 3 -31 9q-16 7 -26 16q-12 11 -21 18t-18 24q-11 21 -14 27q-6 15 -11 30l-9 30l-9 32q-7 25 -8 30q-14 -2 -45 -2zM383 345q84 0 84 82q0 72 -75 72h-40v-153q5 -1 31 -1zM474 833l-164 -132q-32 11 -60 34q-28 24 -28 52
q0 18 13 34l145 180q35 -6 66 -28q32 -23 44 -54q9 -21 6 -46t-22 -40z" />
    <glyph glyph-name="racute" unicode="&#x155;" horiz-adv-x="614" 
d="M337 273l-3 -101q1 -37 15 -52q13 -14 50 -19q-24 -109 -154 -109q-158 0 -158 149v225q-24 1 -43 11q-18 9 -27 23t-15 33q-5 17 -7 35q-1 10 -1 35q52 1 147 14q89 12 128 15q19 0 33 -6t21 -15q8 -10 11 -24q3 -15 3 -26v-28v-41q35 74 72 107t90 33q50 0 77 -33
t27 -86q-3 -77 -79 -120q-50 27 -94 27q-61 0 -93 -47zM371 681l-164 -132q-32 11 -60 34q-28 24 -28 52q0 18 13 34l145 180q35 -6 66 -28q32 -23 44 -54q9 -21 6 -46t-22 -40z" />
    <glyph glyph-name="Rcommaaccent" unicode="&#x156;" horiz-adv-x="712" 
d="M353 208l-1 -38q5 -73 27 -140l-53 -13l-56 -14q-18 -5 -42 -9q-21 -4 -36 -4q-26 0 -42 12t-24 36q-7 21 -10 47q-2 17 -4 57v358q-34 0 -76 -5q-32 47 -32 94q0 29 12 48q12 20 34 27q25 8 44 11q21 3 50 3h218q176 0 258 -58t82 -172q0 -146 -90 -192q51 -86 123 -102
q-3 -85 -45 -124t-106 -39q-21 0 -39 3q-17 3 -31 9q-16 7 -26 16q-12 11 -21 18t-18 24q-11 21 -14 27q-6 15 -11 30l-9 30l-9 32q-7 25 -8 30q-14 -2 -45 -2zM383 345q84 0 84 82q0 72 -75 72h-40v-153q5 -1 31 -1zM272 -245v-3q67 31 67 87q0 18 -13 45t-13 43
q0 37 33 59q34 23 74 23q55 0 84 -38t29 -87q0 -73 -49 -126q-50 -54 -123 -54q-67 0 -89 51z" />
    <glyph glyph-name="rcommaaccent" unicode="&#x157;" horiz-adv-x="614" 
d="M337 273l-3 -101q1 -37 15 -52q13 -14 50 -19q-24 -109 -154 -109q-158 0 -158 149v225q-24 1 -43 11q-18 9 -27 23t-15 33q-5 17 -7 35q-1 10 -1 35q52 1 147 14q89 12 128 15q19 0 33 -6t21 -15q8 -10 11 -24q3 -15 3 -26v-28v-41q35 74 72 107t90 33q50 0 77 -33
t27 -86q-3 -77 -79 -120q-50 27 -94 27q-61 0 -93 -47zM106 -283v-3q67 31 67 87q0 18 -13 45t-13 43q0 37 33 59q34 23 74 23q55 0 84 -38t29 -87q0 -73 -49 -126q-50 -54 -123 -54q-67 0 -89 51z" />
    <glyph glyph-name="Rcaron" unicode="&#x158;" horiz-adv-x="712" 
d="M353 173l-4 31q31 0 45 2q1 -5 8 -30l9 -31q3 -11 9 -30q5 -15 11 -30q3 -6 14 -27q9 -16 18 -24t21 -18q10 -9 26 -16q13 -6 32 -9q18 -3 39 -3q65 0 107 39t45 125q-72 16 -123 102q90 46 90 192q0 115 -82 173q-83 59 -258 59h-218q-28 0 -49 -3q-18 -3 -43 -11
q-22 -7 -34 -27q-12 -19 -12 -48q0 -47 32 -94q42 5 76 5v-358q2 -40 4 -57q3 -19 11 -46q7 -24 24 -36t42 -12q9 0 36 5q24 4 42 9l56 14l53 14q-22 67 -27 140zM380 344q-26 0 -31 1v153h40q75 0 75 -72q0 -82 -84 -82zM243 724l-125 158q8 32 37 50q30 18 65 18
q46 0 69 -30l47 -87l40 61q14 20 30 54q45 0 78 -15t42 -44t-24 -72l-56 -66q-24 -28 -44 -40q-17 -10 -51 -10q-71 0 -108 23z" />
    <glyph glyph-name="rcaron" unicode="&#x159;" horiz-adv-x="614" 
d="M337 173l-2 96q32 47 93 47q44 0 94 -27q76 43 79 120q0 53 -27 86t-76 33q-52 0 -90 -33q-37 -33 -72 -107v41v29q0 11 -3 26q-3 16 -10 24q-7 9 -21 15t-33 6q-36 -3 -127 -15q-95 -13 -147 -14q0 -25 1 -35q2 -18 7 -35q6 -20 15 -33q8 -13 27 -22q17 -8 44 -10v-225
q0 -149 158 -149q130 0 154 109q-35 4 -49 20q-13 15 -15 53zM179 579l-125 158q8 32 37 50q30 18 65 18q46 0 69 -30l47 -87l40 61q14 19 30 54q45 0 78 -15t42 -44q9 -28 -24 -72l-56 -66q-24 -28 -44 -40q-17 -10 -51 -10q-71 0 -108 23z" />
    <glyph glyph-name="Sacute" unicode="&#x15a;" horiz-adv-x="589" 
d="M573 218l-1 -2q-4 -113 -78 -172q-73 -58 -230 -58q-252 0 -252 145q0 72 56 107q34 -27 86 -46q50 -18 98 -18q20 0 27 1q16 2 23 4q12 3 18 10t6 20q0 16 -22 25q-24 10 -56 14q-30 4 -72 17q-36 11 -73 32q-35 20 -57 61q-22 42 -24 101q0 104 80 164q79 60 230 60
q118 0 179 -36q62 -36 62 -102q0 -33 -19 -59q-20 -28 -57 -41q-81 57 -195 57q-66 0 -66 -27q0 -16 35 -28q28 -10 84 -25q53 -14 99 -34q50 -21 84 -64q35 -44 35 -106zM429 832l-164 -132q-32 11 -60 34q-28 24 -28 52q0 18 13 34l145 180q35 -6 66 -28q32 -23 44 -54
q9 -21 6 -46t-22 -40z" />
    <glyph glyph-name="sacute" unicode="&#x15b;" horiz-adv-x="592" 
d="M270 362l-4 3q0 -9 30 -17l74 -19q44 -11 87 -27q44 -17 74 -51q30 -35 30 -83q0 -176 -284 -176q-236 0 -236 120q0 30 17 56q16 25 47 39q81 -51 180 -51q32 0 32 18q0 11 -27 17q-44 10 -66 14q-39 7 -78 21q-38 13 -66 47q-27 33 -27 83q0 83 74 131q73 48 213 48
q110 0 168 -30q59 -30 59 -85q0 -28 -21 -54t-64 -39q-27 22 -78 37q-50 15 -96 15q-38 0 -38 -17zM465 691l-164 -132q-32 11 -60 34q-28 24 -28 52q0 18 13 34l145 180q35 -6 66 -28q32 -23 44 -54q9 -21 6 -46t-22 -40z" />
    <glyph glyph-name="Scircumflex" unicode="&#x15c;" horiz-adv-x="589" 
d="M573 218l-1 -2q-4 -113 -78 -172q-73 -58 -230 -58q-252 0 -252 145q0 72 56 107q34 -27 86 -46q50 -18 98 -18q20 0 27 1q16 2 23 4q12 3 18 10t6 20q0 16 -22 25q-24 10 -56 14q-30 4 -72 17q-36 11 -73 32q-35 20 -57 61q-22 42 -24 101q0 104 80 164q79 60 230 60
q118 0 179 -36q62 -36 62 -102q0 -33 -19 -59q-20 -28 -57 -41q-81 57 -195 57q-66 0 -66 -27q0 -16 35 -28q28 -10 84 -25q53 -14 99 -34q50 -21 84 -64q35 -44 35 -106zM384 922l124 -157q-7 -31 -37 -49t-65 -18q-46 0 -69 30l-48 83l-38 -61q-13 -20 -30 -54
q-45 0 -78 15t-42 44t24 72l54 66q24 30 44 41t53 11q71 0 108 -23z" />
    <glyph glyph-name="scircumflex" unicode="&#x15d;" horiz-adv-x="593" 
d="M270 362l-4 3q0 -9 30 -17l74 -19q44 -11 87 -27q44 -17 74 -51q30 -35 30 -83q0 -176 -284 -176q-236 0 -236 120q0 30 17 56q16 25 47 39q81 -51 180 -51q32 0 32 18q0 11 -27 17q-44 10 -66 14q-39 7 -78 21q-38 13 -66 47q-27 33 -27 83q0 83 74 131q73 48 213 48
q110 0 168 -30q59 -30 59 -85q0 -28 -21 -54t-64 -39q-27 22 -78 37q-50 15 -96 15q-38 0 -38 -17zM401 784l124 -157q-7 -31 -37 -49t-65 -18q-47 0 -69 30l-48 83l-38 -61q-14 -20 -30 -54q-45 0 -78 15t-42 44t24 72l54 66q24 30 44 41t53 11q71 0 108 -23z" />
    <glyph glyph-name="Scedilla" unicode="&#x15e;" horiz-adv-x="589" 
d="M573 218l-3 -2q-5 -98 -58 -154t-168 -70l-7 -34q64 -8 98 -42q35 -35 35 -82q0 -71 -54 -104t-137 -33q-121 0 -121 90q0 35 19 60q38 -22 104 -22q42 0 42 17q0 10 -19 13q-20 3 -43 3t-43 12q-19 12 -19 38q0 11 3 26l12 54q-202 13 -202 143q0 72 56 107
q34 -27 86 -46q50 -18 98 -18q20 0 27 1q16 2 23 4q12 3 18 10t6 20q0 16 -22 25q-24 10 -56 14q-30 4 -72 17q-36 11 -73 32q-35 20 -57 61q-22 42 -24 101q0 104 80 164q79 60 230 60q118 0 179 -36q62 -36 62 -102q0 -33 -19 -59q-20 -28 -57 -41q-81 57 -195 57
q-66 0 -66 -27q0 -16 35 -28q28 -10 84 -25q53 -14 99 -34q50 -21 84 -64q35 -44 35 -106z" />
    <glyph glyph-name="scedilla" unicode="&#x15f;" horiz-adv-x="592" 
d="M270 362l-5 4q0 -10 30 -17l74 -19q43 -10 87 -27t74 -51t30 -83q0 -155 -219 -173l-6 -32q64 -8 98 -42q35 -35 35 -82q0 -71 -54 -104t-137 -33q-121 0 -121 90q0 35 19 60q38 -22 104 -22q42 0 42 17q0 10 -19 13q-20 3 -43 3t-43 12q-19 12 -19 38q0 11 3 26l12 55
q-171 15 -171 117q0 30 17 56q16 25 47 39q81 -51 180 -51q32 0 32 18q0 11 -27 17q-44 10 -66 14q-39 7 -78 21q-38 13 -66 47q-27 33 -27 83q0 83 74 131q73 48 213 48q110 0 168 -30q59 -30 59 -85q0 -28 -21 -54t-64 -39q-27 22 -78 37q-50 15 -96 15q-38 0 -38 -17z
" />
    <glyph glyph-name="Scaron" unicode="&#x160;" horiz-adv-x="589" 
d="M573 218l-1 -2q-4 -113 -78 -172q-73 -58 -230 -58q-252 0 -252 145q0 72 56 107q34 -27 86 -46q50 -18 98 -18q20 0 27 1q16 2 23 4q12 3 18 10t6 20q0 16 -22 25q-24 10 -56 14q-30 4 -72 17q-36 11 -73 32q-35 20 -57 61q-22 42 -24 101q0 104 80 164q79 60 230 60
q118 0 179 -36q62 -36 62 -102q0 -33 -19 -59q-20 -28 -57 -41q-81 57 -195 57q-66 0 -66 -27q0 -16 35 -28q28 -10 84 -25q53 -14 99 -34q50 -21 84 -64q35 -44 35 -106zM195 729l-125 158q8 32 37 50q30 18 65 18q46 0 69 -30l47 -87l40 61q14 19 30 54q45 0 78 -15
t42 -44q9 -28 -24 -72l-56 -66q-24 -28 -44 -40q-17 -10 -51 -10q-71 0 -108 23z" />
    <glyph glyph-name="scaron" unicode="&#x161;" horiz-adv-x="592" 
d="M270 362l-4 3q0 -9 30 -17l74 -19q44 -11 87 -27q44 -17 74 -51q30 -35 30 -83q0 -176 -284 -176q-236 0 -236 120q0 30 17 56q16 25 47 39q81 -51 180 -51q32 0 32 18q0 11 -27 17q-44 10 -66 14q-39 7 -78 21q-38 13 -66 47q-27 33 -27 83q0 83 74 131q73 48 213 48
q110 0 168 -30q59 -30 59 -85q0 -28 -21 -54t-64 -39q-27 22 -78 37q-50 15 -96 15q-38 0 -38 -17zM229 591l-125 158q8 32 37 50q30 18 65 18q46 0 69 -30l47 -87l40 61q14 19 30 54q45 0 78 -15t42 -44q9 -28 -24 -72l-56 -66q-24 -28 -44 -40q-17 -10 -51 -10
q-71 0 -108 23z" />
    <glyph glyph-name="Tcommaaccent" unicode="&#x162;" horiz-adv-x="637" 
d="M428 439l2 -267q4 -76 27 -141q-166 -41 -188 -41q-25 0 -42 12t-24 36q-7 21 -10 47q-2 17 -4 57v322q-7 1 -30 1q-67 0 -129 -33q-43 76 -43 135q0 60 33 87t119 27q40 0 151 -6t150 -6q76 0 141 24q44 -76 44 -127q0 -55 -35 -84q-34 -28 -129 -28h-22q-11 -2 -11 -15
zM193 -278v-2q67 31 67 87q0 19 -13 45t-13 42q0 36 33 59q34 23 74 23q55 0 84 -38t29 -87q0 -73 -49 -126q-49 -54 -123 -54q-66 0 -89 51z" />
    <glyph glyph-name="tcommaaccent" unicode="&#x163;" horiz-adv-x="473" 
d="M295 561l-1 -27q64 0 129 22q2 -12 11 -54q1 -7 14 -60q6 -26 6 -39q0 -55 -90 -55h-69v-66q0 -127 130 -139q-7 -85 -52 -118t-124 -33q-37 0 -70 12t-63 36t-48 69q-17 44 -19 104v306q-4 70 -24 118q157 40 197 40q73 0 73 -116zM123 -275v-2q67 31 67 87q0 19 -13 45
t-13 42q0 37 33 59q34 23 74 23q55 0 84 -38t29 -87q0 -73 -49 -126q-49 -54 -123 -54q-66 0 -89 51z" />
    <glyph glyph-name="Tcaron" unicode="&#x164;" horiz-adv-x="637" 
d="M428 173l-3 265q0 13 11 15h22q94 0 129 29t35 84q0 51 -44 127q-64 -24 -141 -24q-39 0 -150 6t-151 6q-86 0 -119 -27t-33 -87q0 -59 43 -135q61 33 129 33q23 0 30 -1v-322q2 -40 4 -57q3 -19 11 -46q7 -24 24 -36t42 -12q22 0 188 41q-23 64 -27 141zM219 728
l-125 158q8 32 37 50q30 18 65 18q46 0 69 -30l47 -87l40 61q14 20 30 54q45 0 78 -15t42 -44t-24 -72l-56 -66q-24 -28 -44 -40q-17 -10 -51 -10q-71 0 -108 23z" />
    <glyph glyph-name="tcaron" unicode="&#x165;" horiz-adv-x="709" 
d="M295 532l-2 26q0 116 -73 116q-40 0 -197 -40q20 -48 24 -118v-306q2 -59 19 -103q18 -45 48 -69t63 -36t71 -12q80 0 125 33t52 118q-130 12 -130 139v66h51q90 0 90 55q0 13 -6 39q-2 8 -4 17t-4.5 22t-4.5 21q-9 42 -11 54q-65 -22 -111 -22zM453 421v-3q67 31 67 87
q0 18 -13 45t-13 43q0 37 33 59q34 23 74 23q55 0 84 -38t29 -87q0 -73 -49 -126q-49 -54 -123 -54q-66 0 -89 51z" />
    <glyph glyph-name="Utilde" unicode="&#x168;" horiz-adv-x="736" 
d="M721 289l-6 239q-2 40 -4 57q-3 26 -10 47q-7 24 -24 36t-42 12q-20 0 -186 -41q23 -65 27 -141v-237q0 -89 -69 -89q-70 0 -70 89v290v36q0 16 -4 33q-5 21 -10 30t-20 19q-13 9 -33 9q-34 -3 -80 -9q-76 -9 -90 -11q-31 -3 -90 -7q-3 -17 -3 -35q0 -49 23 -87
q22 -37 69 -45v-196q0 -77 20 -135q19 -55 50 -88q29 -31 75 -49q47 -19 82 -23q42 -5 84 -5t84 5q35 4 82 23q46 18 75 49q31 32 50 89q20 58 20 135zM617 814v-2q0 -47 -31 -71q-32 -24 -84 -24q-24 0 -80 8t-78 8q-55 0 -75 -38q-37 5 -61 28q-24 24 -24 60q0 89 105 94
q27 0 93 -8t80 -8q52 0 69 42q40 -5 62 -28q23 -24 24 -61z" />
    <glyph glyph-name="utilde" unicode="&#x169;" horiz-adv-x="711" 
d="M423 384l-1 -119q0 -47 -15 -74t-37 -27q-35 0 -35 42v223v29q0 11 -3 26q-3 16 -10 24q-8 9 -21 15t-33 6q-36 -3 -127 -15q-95 -13 -147 -14q0 -25 1 -35q2 -18 7 -35q6 -20 15 -33t27 -22q17 -8 44 -10v-187q0 -97 41 -144q40 -46 111 -46q61 0 105 32q43 32 78 102
v-11q2 -32 4 -44q3 -19 10 -36q8 -21 22 -29q15 -9 39 -9q15 0 48 6q19 4 81 17l71 16q-20 51 -25 108v275q-2 22 -3 35q-2 14 -6 30t-12 27t-21 18t-33 7q-27 0 -199 -40q19 -52 24 -108zM578 677v-2q0 -47 -31 -71t-84 -24q-24 0 -80 8t-78 8q-55 0 -75 -38q-38 4 -61 28
q-24 24 -24 60q0 89 105 94q27 0 93 -8t80 -8q53 0 69 42q40 -5 62 -28q23 -24 24 -61z" />
    <glyph glyph-name="Umacron" unicode="&#x16a;" horiz-adv-x="736" 
d="M721 527l1 -243q0 -77 -20 -135q-20 -57 -49 -88t-75 -49q-47 -19 -82 -23q-42 -5 -84 -5t-84 5q-35 4 -82 23q-46 18 -75 49q-31 32 -50 89q-20 58 -20 135v196q-47 7 -69 45q-22 37 -22 87q0 19 3 35q37 2 90 8q14 1 90 11q46 6 80 9q19 0 33 -9q15 -10 20 -19
q7 -12 11 -30q5 -22 5 -33v-36v-290q0 -89 70 -89q69 0 69 89v237q-5 76 -27 141q166 41 186 41q26 0 42 -12t24 -36q8 -27 11 -46q2 -17 4 -57zM521 847l-3 2q40 0 63 9q21 -34 21 -72t-22 -60q-23 -23 -64 -24q-20 0 -108 5t-92 5q-40 0 -63 -9q-21 37 -21 72q0 37 24 60
q23 22 69 22q17 0 105 -5t91 -5z" />
    <glyph glyph-name="umacron" unicode="&#x16b;" horiz-adv-x="711" 
d="M423 268l-3 114q-4 56 -24 108q172 40 199 40q20 0 33 -7q14 -7 21 -18t12 -27t6 -30q2 -14 3 -34v-275q5 -57 25 -108l-71 -16q-62 -13 -81 -17q-33 -6 -48 -6q-24 0 -39 9q-14 8 -22 29q-7 17 -10 36q-2 12 -4 44v11q-34 -71 -78 -102q-44 -32 -105 -32q-70 0 -111 47
q-40 46 -40 144v187q-24 1 -43 11q-17 9 -27 23q-9 13 -15 33q-5 17 -7 35q-1 10 -1 35q52 1 147 14q89 12 128 15q20 0 33 -6t21 -15q8 -10 11 -24q3 -15 3 -26v-28v-223q0 -42 35 -42q22 0 37 27t15 74zM472 716l-3 2q41 0 63 9q21 -35 21 -72q0 -38 -22 -60
q-23 -23 -64 -24q-20 0 -108 5t-92 5q-41 0 -63 -9q-21 38 -21 72q0 38 24 60q23 22 69 22q17 0 105 -5t91 -5z" />
    <glyph glyph-name="Ubreve" unicode="&#x16c;" horiz-adv-x="736" 
d="M721 289l-6 239q-2 40 -4 57q-3 26 -10 47q-7 24 -24 36t-42 12q-20 0 -186 -41q23 -65 27 -141v-237q0 -89 -69 -89q-70 0 -70 89v290v36q0 16 -4 33q-5 21 -10 30t-20 19q-13 9 -33 9q-34 -3 -80 -9q-76 -9 -90 -11q-31 -3 -90 -7q-3 -17 -3 -35q0 -49 23 -87
q22 -37 69 -45v-196q0 -77 20 -135q19 -55 50 -88q29 -31 75 -49q47 -19 82 -23q42 -5 84 -5t84 5q35 4 82 23q46 18 75 49q31 32 50 89q20 58 20 135zM400 687l1 -1q-86 1 -142 39q-55 37 -55 91q0 33 21 57q20 23 65 28q48 -60 110 -60t111 60q45 -5 65 -28q21 -24 21 -56
q0 -54 -55 -91q-56 -38 -142 -39z" />
    <glyph glyph-name="ubreve" unicode="&#x16d;" horiz-adv-x="711" 
d="M423 384l-1 -119q0 -47 -15 -74t-37 -27q-35 0 -35 42v223v29q0 11 -3 26q-3 16 -10 24q-8 9 -21 15t-33 6q-36 -3 -127 -15q-95 -13 -147 -14q0 -25 1 -35q2 -18 7 -35q6 -20 15 -33t27 -22q17 -8 44 -10v-187q0 -97 41 -144q40 -46 111 -46q61 0 105 32q43 32 78 102
v-11q2 -32 4 -44q3 -19 10 -36q8 -21 22 -29q15 -9 39 -9q15 0 48 6q19 4 81 17l71 16q-20 51 -25 108v275q-2 22 -3 35q-2 14 -6 30t-12 27t-21 18t-33 7q-27 0 -199 -40q19 -52 24 -108zM372 546l1 -1q-86 1 -142 39q-55 37 -55 91q0 33 21 57q20 23 65 28q48 -60 110 -60
t111 60q45 -5 65 -28q21 -24 21 -56q0 -54 -55 -91q-56 -38 -142 -39z" />
    <glyph glyph-name="Uring" unicode="&#x16e;" horiz-adv-x="736" 
d="M721 289l-6 239q-2 40 -4 57q-3 26 -10 47q-7 24 -24 36t-42 12q-20 0 -186 -41q23 -65 27 -141v-237q0 -89 -69 -89q-70 0 -70 89v290v36q0 16 -4 33q-5 21 -10 30t-20 19q-13 9 -33 9q-34 -3 -80 -9q-76 -9 -90 -11q-31 -3 -90 -7q-3 -17 -3 -35q0 -49 23 -87
q22 -37 69 -45v-196q0 -77 20 -135q19 -55 50 -88q29 -31 75 -49q47 -19 82 -23q42 -5 84 -5t84 5q35 4 82 23q46 18 75 49q31 32 50 89q20 58 20 135zM426 929l2 -1q65 0 102 -31t37 -91t-39 -95q-40 -35 -114 -35q-71 0 -109 32q-37 31 -37 87t41 95t117 39zM456 802
l-1 -2q0 36 -32 36q-14 0 -24 -10q-11 -11 -11 -28q0 -36 34 -36q13 0 24 11q10 10 10 29z" />
    <glyph glyph-name="uring" unicode="&#x16f;" horiz-adv-x="711" 
d="M423 384l-1 -119q0 -47 -15 -74t-37 -27q-35 0 -35 42v223v29q0 11 -3 26q-3 16 -10 24q-8 9 -21 15t-33 6q-36 -3 -127 -15q-95 -13 -147 -14q0 -25 1 -35q2 -18 7 -35q6 -20 15 -33t27 -22q17 -8 44 -10v-187q0 -97 41 -144q40 -46 111 -46q61 0 105 32q43 32 78 102
v-11q2 -32 4 -44q3 -19 10 -36q8 -21 22 -29q15 -9 39 -9q15 0 48 6q19 4 81 17l71 16q-20 51 -25 108v275q-2 22 -3 35q-2 14 -6 30t-12 27t-21 18t-33 7q-27 0 -199 -40q19 -52 24 -108zM394 796l2 -1q65 0 102 -31t37 -91q0 -61 -39 -95q-40 -35 -114 -35q-71 0 -109 32
q-37 31 -37 87t41 95t117 39zM424 669l-1 -2q0 36 -32 36q-14 0 -24 -10q-11 -11 -11 -28q0 -36 34 -36q13 0 24 11q10 10 10 29z" />
    <glyph glyph-name="Uhungarumlaut" unicode="&#x170;" horiz-adv-x="736" 
d="M721 527l1 -243q0 -77 -20 -135q-20 -57 -49 -88t-75 -49q-47 -19 -82 -23q-42 -5 -84 -5t-84 5q-35 4 -82 23q-46 18 -75 49q-31 32 -50 89q-20 58 -20 135v196q-47 7 -69 45q-22 37 -22 87q0 19 3 35q37 2 90 8q14 1 90 11q46 6 80 9q19 0 33 -9q15 -10 20 -19
q7 -12 11 -30q5 -22 5 -33v-36v-290q0 -89 70 -89q69 0 69 89v237q-5 76 -27 141q166 41 186 41q26 0 42 -12t24 -36q8 -27 11 -46q2 -17 4 -57zM421 818l-165 -129q-77 26 -77 78q0 18 14 35l145 179q76 -11 101 -75q19 -58 -18 -88zM660 819l-165 -129q-31 11 -53 30
q-23 20 -23 48q0 19 13 35l145 179q76 -11 101 -75q19 -58 -18 -88z" />
    <glyph glyph-name="uhungarumlaut" unicode="&#x171;" horiz-adv-x="711" 
d="M423 268l-3 114q-4 56 -24 108q172 40 199 40q20 0 33 -7q14 -7 21 -18t12 -27t6 -30q2 -14 3 -34v-275q5 -57 25 -108l-71 -16q-62 -13 -81 -17q-33 -6 -48 -6q-24 0 -39 9q-14 8 -22 29q-7 17 -10 36q-2 12 -4 44v11q-34 -71 -78 -102q-44 -32 -105 -32q-70 0 -111 47
q-40 46 -40 144v187q-24 1 -43 11q-17 9 -27 23q-9 13 -15 33q-5 17 -7 35q-1 10 -1 35q52 1 147 14q89 12 128 15q20 0 33 -6t21 -15q8 -10 11 -24q3 -15 3 -26v-28v-223q0 -42 35 -42q22 0 37 27t15 74zM369 676l-165 -129q-77 26 -77 78q0 18 14 35l145 179
q76 -11 101 -75q19 -58 -18 -88zM608 677l-165 -129q-31 11 -53 30q-23 20 -23 48q0 19 13 35l145 179q76 -11 101 -75q19 -58 -18 -88z" />
    <glyph glyph-name="Uogonek" unicode="&#x172;" horiz-adv-x="736" 
d="M551 -154l-1 -2q0 -46 -37 -73t-106 -27q-58 0 -91 30t-33 78q0 73 71 135q-40 3 -73 12q-34 9 -68 30q-33 20 -58 53q-24 32 -39 84t-15 120v196q-47 8 -69 45t-22 87q0 18 3 35q37 2 90 8q14 1 90 11q46 6 80 9q19 0 33 -9q15 -10 20 -19q7 -12 11 -30q5 -22 5 -33v-36
v-290q0 -89 70 -89q69 0 69 89v237q-5 77 -27 141q166 41 186 41q26 0 42 -12t24 -36q8 -27 11 -46q2 -17 4 -57v-238q0 -242 -192 -289q-34 -9 -52 -24t-18 -43q0 -17 10 -28q11 -12 28 -12q19 0 36 6q18 -28 18 -54z" />
    <glyph glyph-name="uogonek" unicode="&#x173;" horiz-adv-x="722" 
d="M433 268l-2 116q-5 56 -24 108q172 40 199 40q20 0 33 -7t21 -18t12 -27t6 -30t3 -34v-275q5 -55 27 -111q-93 -29 -93 -100q0 -37 37 -37q20 0 37 6q18 -29 18 -54q0 -46 -37 -73q-38 -27 -106 -27q-58 0 -91 30t-33 78q0 77 73 138h-5q-24 0 -39 9q-14 8 -22 29
q-7 17 -10 36q-2 12 -4 44v11q-35 -70 -78 -102q-44 -32 -105 -32q-70 0 -111 47q-40 46 -40 144v187q-31 2 -54 15t-33 36q-11 23 -15 43q-4 19 -4 44q52 1 153 14q96 12 132 15q20 0 33 -6t21 -15q8 -10 11 -24q3 -15 3 -26v-28v-223q0 -42 35 -42q22 0 37 27t15 74z" />
    <glyph glyph-name="wcircumflex" unicode="&#x175;" horiz-adv-x="888" 
d="M598 467h-1q32 -20 32 -75q0 -19 -6 -46q-1 -6 -3.5 -16t-4 -17t-2.5 -12q-3 -12 -14 -45l-11 -33l-46 152q-10 34 -26 51q-15 17 -43 17h-54q-29 0 -42 -15q-14 -15 -27 -52l-48 -136q-8 83 -16 126q-9 50 -28 90q-20 42 -52 60q-33 18 -83 18q-130 0 -140 -132
q38 0 59 -57t36 -147q14 -87 23 -114q31 -96 144 -96q55 0 141 27q-4 15 -4 37q0 26 8 52l47 150l35 -159q29 -107 147 -107q57 0 142 27q-5 25 -5 29q0 42 27 107l55 135q27 69 27 122q0 62 -39 93q-38 31 -96 31q-42 0 -81 -17q-37 -17 -51 -48zM518 731l124 -157
q-7 -31 -37 -49t-65 -18q-46 0 -69 30l-48 83l-38 -61q-13 -19 -30 -54q-45 0 -78 15t-42 44q-9 28 24 72l54 66q24 30 44 41t53 11q71 0 108 -23z" />
    <glyph glyph-name="Ycircumflex" unicode="&#x176;" horiz-adv-x="689" 
d="M144 679l-3 -3q-62 0 -100 -28q-39 -28 -49 -100q46 0 92 -85l96 -194q17 -36 17 -73v-55q2 -40 4 -57q3 -19 11 -46q8 -24 24 -36t42 -12q27 0 187 40q-21 58 -21 117q0 32 16 63q20 37 62 90l74 88q32 36 58 84q25 46 25 89q0 50 -33 83t-96 33q-85 0 -126 -62
q17 -22 17 -52q0 -21 -9 -48q-7 -21 -17 -43q-6 -14 -24 -46q-17 -31 -18 -34q-25 69 -37 96q-18 42 -37 77q-23 43 -43 63q-22 22 -49 36q-29 15 -63 15zM430 904l124 -157q-7 -31 -37 -49t-65 -18q-46 0 -69 30l-48 83l-38 -61q-13 -20 -30 -54q-45 0 -78 15t-42 44t24 72
l54 66q24 30 44 41t53 11q71 0 108 -23z" />
    <glyph glyph-name="ycircumflex" unicode="&#x177;" horiz-adv-x="688" 
d="M425 127l-1 -7q0 -28 -3 -53t-12 -55q-9 -31 -22 -51q-14 -22 -37 -36q-24 -15 -55 -15q-48 0 -82 29q-59 -29 -59 -98q0 -60 46 -100t129 -40q69 0 126 23q54 22 91 65q36 41 60 95q25 54 38 122q13 69 18 134q5 72 5 143v128q-2 22 -3 35q-2 14 -6 30t-12 27t-21 18
t-33 7q-21 0 -193 -40q19 -50 24 -108v-116q0 -46 -15 -73t-38 -27q-35 0 -35 42v223v29q0 11 -3 26q-3 16 -10 24q-8 9 -21 15t-33 6q-36 -3 -127 -15q-95 -13 -147 -14q0 -25 1 -35q2 -18 7 -35q6 -20 15 -33t27 -22q17 -8 44 -10v-187q0 -191 152 -191q61 0 105 32
t80 108zM449 780l124 -157q-7 -31 -37 -49t-65 -18q-47 0 -69 30l-48 83l-38 -61q-14 -20 -30 -54q-45 0 -78 15t-42 44t24 72l54 66q24 30 44 41t53 11q71 0 108 -23z" />
    <glyph glyph-name="Ydieresis" unicode="&#x178;" horiz-adv-x="689" 
d="M144 679l-3 -3q-62 0 -100 -28q-39 -28 -49 -100q46 0 92 -85l96 -194q17 -36 17 -73v-55q2 -40 4 -57q3 -19 11 -46q8 -24 24 -36t42 -12q27 0 187 40q-21 58 -21 117q0 32 16 63q20 37 62 90l74 88q32 36 58 84q25 46 25 89q0 50 -33 83t-96 33q-85 0 -126 -62
q17 -22 17 -52q0 -21 -9 -48q-7 -21 -17 -43q-6 -14 -24 -46q-17 -31 -18 -34q-25 69 -37 96q-18 42 -37 77q-23 43 -43 63q-22 22 -49 36q-29 15 -63 15zM218 698q-50 0 -75 24t-25 64t32 72t86 32q49 0 75 -23q25 -22 25 -63q0 -39 -32 -73q-32 -33 -86 -33zM470 698
q-50 0 -75 24t-25 64t32 72t86 32q49 0 75 -23q25 -22 25 -63q0 -39 -32 -73q-32 -33 -86 -33z" />
    <glyph glyph-name="Zacute" unicode="&#x179;" horiz-adv-x="618" 
d="M486 360l-202 -149q20 -2 101 -15q84 -14 125 -14q44 0 85 12q29 -49 29 -103q0 -57 -39 -93t-109 -36q-66 0 -186 27t-175 27q-38 0 -60 -11q-43 46 -43 111q0 83 64 135l291 215h-181q-70 0 -132 -20l-7 19l-7 19l-6 16l-6 15l-4 14q-1 3 -4 15q-2 8 -3 13t-1 13
q0 52 41 84q40 31 126 31l255 -13q108 0 138 11q31 -53 31 -128q0 -41 -19 -78q-20 -39 -40 -60q-19 -20 -62 -57zM456 833l-164 -132q-32 11 -60 34q-28 24 -28 52q0 18 13 34l145 180q35 -6 66 -28q32 -23 44 -54q9 -21 6 -46t-22 -40z" />
    <glyph glyph-name="zacute" unicode="&#x17a;" horiz-adv-x="601" 
d="M94 205l241 133h-153q-63 0 -117 -16q-39 80 -39 105q0 103 156 103l231 -11h23h21h17q14 0 17 1q5 2 13 3q10 2 14 3l12 4q4 1 12 5q34 -61 34 -117q0 -26 -8 -48q-7 -20 -26 -39q-18 -18 -33 -30q-13 -11 -44 -30l-142 -78q1 0 59 -2t66 -2q58 0 113 11q35 -73 35 -114
q0 -94 -139 -94q-61 0 -144 4t-133 4q-64 0 -102 -6q-38 62 -38 112q0 62 54 99zM449 685l-164 -132q-32 11 -60 34q-28 24 -28 52q0 18 13 34l145 180q35 -6 66 -28q32 -23 44 -54q9 -21 6 -46t-22 -40z" />
    <glyph glyph-name="Zdotaccent" unicode="&#x17b;" horiz-adv-x="618" 
d="M288 210l194 145q43 37 62 57q22 24 41 60q19 37 19 78q0 75 -31 128q-30 -11 -138 -11l-255 13q-86 0 -126 -31t-40 -84q0 -8 1 -13t3 -13q3 -12 4 -15l4 -13l6 -15l7 -15l8 -18l8 -18q62 20 132 20h181l-291 -215q-64 -52 -64 -135q0 -65 43 -111q22 11 60 11
q56 0 176 -27t186 -27q70 0 109 36t39 93q0 54 -29 103q-41 -12 -85 -12q-40 0 -124 14q-81 14 -100 15zM327 703l-1 -1q-56 0 -84 27t-28 72q0 48 36 84t97 36q55 0 84 -27t29 -72q0 -47 -36 -83t-97 -36z" />
    <glyph glyph-name="zdotaccent" unicode="&#x17c;" horiz-adv-x="601" 
d="M339 340l-246 -134q-54 -38 -54 -99q0 -50 38 -112q37 6 102 6q50 0 133 -4t144 -4q139 0 139 94q0 41 -35 114q-55 -11 -113 -11q-8 0 -66 2t-59 2l142 78q31 19 44 30q15 12 33 30q19 19 26 39q8 22 8 48q0 56 -34 117q-8 -4 -12 -5l-11 -3q-5 -2 -13 -3t-13 -3
q-3 -1 -16 -1h-16h-21h-22l-231 11q-156 0 -156 -103q0 -25 39 -105q54 16 117 16h153zM318 564l-1 -1q-55 0 -84 27q-28 27 -28 72q0 48 36 84t97 36q56 0 84 -27q29 -27 29 -72q0 -47 -36 -83t-97 -36z" />
    <glyph glyph-name="Zcaron" unicode="&#x17d;" horiz-adv-x="618" 
d="M288 210l194 145q43 37 62 57q22 24 41 60q19 37 19 78q0 75 -31 128q-30 -11 -138 -11l-255 13q-86 0 -126 -31t-40 -84q0 -8 1 -13t3 -13q3 -12 4 -15l4 -13l6 -15l7 -15l8 -18l8 -18q62 20 132 20h181l-291 -215q-64 -52 -64 -135q0 -65 43 -111q22 11 60 11
q56 0 176 -27t186 -27q70 0 109 36t39 93q0 54 -29 103q-41 -12 -85 -12q-40 0 -124 14q-81 14 -100 15zM241 717l-125 158q8 32 37 50q30 18 65 18q46 0 69 -30l47 -87l40 61q14 19 30 54q45 0 78 -15t42 -44q9 -28 -24 -72l-56 -66q-24 -28 -44 -40q-17 -10 -51 -10
q-71 0 -108 23z" />
    <glyph glyph-name="zcaron" unicode="&#x17e;" horiz-adv-x="601" 
d="M339 340l-246 -134q-54 -38 -54 -99q0 -50 38 -112q37 6 102 6q50 0 133 -4t144 -4q139 0 139 94q0 41 -35 114q-55 -11 -113 -11q-8 0 -66 2t-59 2l142 78q31 19 44 30q15 12 33 30q19 19 26 39q8 22 8 48q0 56 -34 117q-8 -4 -12 -5l-11 -3q-5 -2 -13 -3t-13 -3
q-3 -1 -16 -1h-16h-21h-22l-231 11q-156 0 -156 -103q0 -25 39 -105q54 16 117 16h153zM230 592l-125 158q8 32 37 50q30 18 65 18q47 0 69 -30l47 -87l40 61q13 20 30 54q45 0 78 -15t42 -44t-24 -72l-56 -66q-24 -28 -44 -40q-17 -10 -51 -10q-71 0 -108 23z" />
    <glyph glyph-name="florin" unicode="&#x192;" horiz-adv-x="490" 
d="M346 341l-33 -272q-6 -56 -19 -101q-14 -49 -37 -97q-24 -50 -55 -85t-78 -58q-45 -22 -104 -22t-93 31t-34 79q0 32 19 66q16 -10 36 -10q22 0 40 9t30 29t21 39t15 50q6 28 9 50q1 7 3.5 24t3.5 27l31 251l-80 -10q-14 37 -14 70q0 111 113 111h25q-1 6 -1 26
q0 101 63 155t166 54q58 0 95 -25q38 -26 38 -78q0 -27 -17 -67q-19 3 -37 3q-78 0 -98 -68l140 10q9 -30 9 -62q0 -56 -33 -93q-33 -38 -96 -38l-3 1q-3 0 -10 0.5t-15 0.5z" />
    <glyph glyph-name="AEacute" unicode="&#x1fc;" horiz-adv-x="937" 
d="M664 177l128 -4q57 0 105 13q31 -41 31 -102q0 -30 -12 -49q-12 -20 -34 -27q-23 -8 -40 -9q-24 -2 -46 -2h-270q-54 0 -82 21t-28 86v13h-163l-52 -120h-110q-36 0 -51 21t-12 48q3 25 17 55l142 303q20 43 45 79q-39 -1 -73 -5q-22 40 -22 87q0 91 145 91h506
q68 0 105 10q31 -41 31 -99q0 -29 -12 -49t-34 -27q-23 -8 -40 -9q-24 -2 -46 -2h-143v-63q0 -11 3 -14t12 -3h180q13 -32 13 -67q0 -94 -125 -94h-83v-65q0 -11 3 -14t12 -3zM335 265h79v233l-91 -216q-5 -17 12 -17zM657 845l-164 -132q-32 11 -60 34q-28 24 -28 52
q0 18 13 34l145 180q35 -6 66 -28q32 -23 44 -54q9 -21 6 -46t-22 -40z" />
    <glyph glyph-name="aeacute" unicode="&#x1fd;" horiz-adv-x="930" 
d="M10 148h4q0 58 35 98q35 39 84 54q50 15 113 15q62 0 111 -16q-4 64 -95 64q-105 0 -157 -43q-52 30 -52 88q0 57 70 90q71 33 189 33q139 0 188 -70q57 70 177 70q99 0 171 -45t72 -125q0 -41 -22 -70q-22 -30 -61 -46q-39 -17 -82 -24q-41 -7 -93 -7q-35 0 -80 8
q14 -47 105 -47q99 0 164 43q21 -14 33 -40q12 -27 12 -52q0 -68 -72 -103q-71 -34 -180 -34q-95 0 -156 23q-59 22 -94 86q-25 -55 -79 -82t-118 -27q-79 0 -133 42t-54 117zM252 167v2q0 -21 12 -33t32 -12q58 0 61 81q-2 30 -2 34q-37 -1 -70 -18t-33 -54zM592 291l-1 -2
q60 1 90 18t30 43q0 36 -40 36q-39 0 -58 -27t-21 -68zM668 663l-164 -132q-32 11 -60 34q-28 24 -28 52q0 18 13 34l145 180q35 -6 66 -28q32 -23 44 -54q9 -21 6 -46t-22 -40z" />
    <glyph glyph-name="Scommaaccent" unicode="&#x218;" horiz-adv-x="589" 
d="M159 -289l1 -3q67 31 67 87q0 19 -13 46t-13 42q0 37 33 59q34 23 73 23q55 0 84 -38t29 -87q0 -73 -49 -126q-49 -54 -123 -54q-66 0 -89 51zM574 215l-1 -2q-4 -113 -78 -172q-73 -58 -230 -58q-252 0 -252 145q0 72 56 107q34 -27 86 -46q50 -18 98 -18q20 0 27 1
q16 2 23 4q13 3 18 10q6 8 6 20q0 16 -22 25q-24 10 -56 14q-30 4 -72 17q-36 11 -73 32q-35 20 -57 61q-22 42 -24 101q0 104 80 164t230 60q117 0 179 -36t62 -102q0 -33 -19 -59q-20 -28 -57 -41q-81 57 -195 57q-66 0 -66 -27q0 -16 35 -28q28 -10 84 -25q53 -14 99 -34
q50 -21 84 -64q35 -44 35 -106z" />
    <glyph glyph-name="scommaaccent" unicode="&#x219;" horiz-adv-x="592" 
d="M270 362l-4 3q0 -9 30 -17l74 -19q44 -11 87 -27q44 -17 74 -51q30 -35 30 -83q0 -176 -284 -176q-236 0 -236 120q0 30 17 56q16 25 47 39q81 -51 180 -51q32 0 32 18q0 11 -27 17q-44 10 -66 14q-39 7 -78 21q-38 13 -66 47q-27 33 -27 83q0 83 74 131q73 48 213 48
q110 0 168 -30q59 -30 59 -85q0 -28 -21 -54t-64 -39q-27 22 -78 37q-50 15 -96 15q-38 0 -38 -17zM156 -289v-3q67 31 67 87q0 18 -13 45t-13 43q0 37 33 59q34 23 74 23q55 0 84 -38t29 -87q0 -73 -49 -126q-50 -54 -123 -54q-67 0 -89 51z" />
    <glyph glyph-name="circumflex" unicode="&#x2c6;" horiz-adv-x="464" 
d="M341 685l124 -157q-7 -31 -37 -49t-65 -18q-47 0 -69 30l-48 83l-38 -61q-14 -19 -30 -54q-45 0 -78 15t-42 44q-9 28 24 72l54 66q24 30 44 41t53 11q71 0 108 -23z" />
    <glyph glyph-name="caron" unicode="&#x2c7;" horiz-adv-x="464" 
d="M130 482l-125 158q8 32 37 50q30 18 65 18q47 0 69 -30l47 -87l40 61q13 20 30 54q45 0 78 -15t42 -44t-24 -72l-56 -66q-24 -28 -44 -40q-17 -10 -51 -10q-71 0 -108 23z" />
    <glyph glyph-name="breve" unicode="&#x2d8;" horiz-adv-x="420" 
d="M210 479l1 -1q-86 1 -142 39q-55 37 -55 91q0 33 21 57q20 23 65 28q48 -60 110 -60t111 60q45 -5 65 -28q21 -24 21 -56q0 -54 -55 -91q-56 -38 -142 -39z" />
    <glyph glyph-name="dotaccent" unicode="&#x2d9;" horiz-adv-x="270" 
d="M124 490l-1 -1q-55 0 -84 27q-28 27 -28 72q0 48 36 84t97 36q56 0 84 -27q29 -27 29 -72q0 -47 -36 -83t-97 -36z" />
    <glyph glyph-name="ring" unicode="&#x2da;" horiz-adv-x="323" 
d="M171 732l2 -1q65 0 102 -31t37 -91q0 -61 -39 -95q-40 -35 -114 -35q-71 0 -109 32q-37 31 -37 87t41 95q40 39 117 39zM201 605l-1 -2q0 36 -32 36q-14 0 -24 -10q-11 -11 -11 -28q0 -36 34 -36q13 0 24 11q10 10 10 29z" />
    <glyph glyph-name="ogonek" unicode="&#x2db;" horiz-adv-x="287" 
d="M278 -154v2q0 -46 -37 -73q-38 -27 -106 -27q-58 0 -91 30t-33 78q0 99 127 175l87 -24q-15 -12 -27 -34q-12 -23 -12 -42q0 -37 37 -37q21 0 37 6q18 -28 18 -54z" />
    <glyph glyph-name="tilde" unicode="&#x2dc;" horiz-adv-x="455" 
d="M443 618v-2q0 -47 -31 -71q-32 -24 -84 -24q-24 0 -80 8t-78 8q-55 0 -75 -38q-37 5 -61 28q-24 24 -24 60q0 89 105 94q27 0 93 -8t80 -8q52 0 69 42q40 -5 62 -28q23 -24 24 -61z" />
    <glyph glyph-name="hungarumlaut" unicode="&#x2dd;" horiz-adv-x="530" 
d="M253 619l-165 -129q-77 26 -77 78q0 18 14 35l145 179q76 -11 101 -75q19 -58 -18 -88zM492 620l-165 -129q-31 11 -53 30q-23 20 -23 48q0 19 13 35l145 179q76 -11 101 -75q19 -58 -18 -88z" />
    <glyph glyph-name="Delta" unicode="&#x394;" horiz-adv-x="684" 
d="M441 585l231 -501q12 -38 -7 -62t-60 -24h-496q-37 0 -60 26t-8 59l232 500q11 24 24 33t39 9h41q25 0 39 -8q12 -7 25 -32zM246 141h212l-107 243z" />
    <glyph glyph-name="Delta" unicode="&#x2206;" horiz-adv-x="684" 
d="M441 585l231 -501q12 -38 -7 -62t-60 -24h-496q-37 0 -60 26t-8 59l232 500q11 24 24 33t39 9h41q25 0 39 -8q12 -7 25 -32zM246 141h212l-107 243z" />
    <glyph glyph-name="afii10023" unicode="&#x401;" horiz-adv-x="639" 
d="M194 716h-1q-53 0 -81 23q-27 23 -27 60q0 39 35 69q34 30 93 30q55 0 81 -22q27 -22 27 -60q0 -40 -34 -70q-35 -30 -93 -30zM466 716h-1q-53 0 -81 23q-27 23 -27 60q0 39 35 69q34 30 93 30q55 0 81 -22q27 -22 27 -60q0 -40 -34 -70q-35 -30 -93 -30zM491 177l-127 2
q-9 0 -12 3t-3 14v65h76q125 0 125 94q0 35 -13 67h-173q-9 0 -12 3t-3 14v63h136q22 0 46 2q19 2 41 9t34 27t12 49q0 58 -31 99q-37 -10 -105 -10h-375q-51 0 -78 -24t-27 -63q0 -47 32 -94q42 5 76 5v-395q0 -64 29 -85t83 -21h271q23 0 47 2q19 2 41 9t34 27
q12 19 12 49q0 61 -31 102q-48 -13 -105 -13z" />
    <glyph glyph-name="afii10051" unicode="&#x402;" horiz-adv-x="805" 
d="M428 206v-34q4 -84 23 -140l-52 -13q-10 -3 -29 -7.5t-26 -6.5q-20 -5 -42 -9q-20 -4 -35 -4q-25 0 -42 12t-24 36q-7 21 -10 47q-2 17 -4 57v330q-7 1 -30 1q-67 0 -129 -33q-43 76 -43 126q0 60 33 87t119 27q40 0 151 -6t150 -6q76 0 141 24q44 -76 44 -127
q0 -56 -34 -81t-129 -25h-22q-11 -2 -11 -15v-124q31 53 86 82q53 28 114 28q99 0 156 -61t57 -165q0 -97 -59 -159q-58 -61 -170 -61q-69 0 -107 30t-38 80q0 36 20 74q35 -9 61 -9q70 0 70 59q0 63 -78 63q-38 0 -72 -20q-33 -19 -39 -57z" />
    <glyph glyph-name="afii10052" unicode="&#x403;" horiz-adv-x="623" 
d="M451 453l-97 1q-11 -2 -11 -15v-265q5 -76 27 -141q-166 -41 -188 -41q-26 0 -42 12t-24 36q-7 21 -10 47q-2 17 -4 57v363q-94 16 -94 119q0 23 5 53h416q82 0 144 25q44 -79 44 -133q0 -58 -35 -88q-34 -30 -131 -30zM402 835l-164 -132q-32 11 -60 34q-28 24 -28 52
q0 18 13 34l145 180q35 -6 66 -28q32 -23 44 -54q9 -21 6 -46t-22 -40z" />
    <glyph glyph-name="afii10053" unicode="&#x404;" horiz-adv-x="636" 
d="M283 424l183 -1q42 0 42 -62v-37q0 -62 -42 -62h-188q4 -46 33 -63t90 -17q143 0 200 48q36 -31 36 -88q0 -51 -22 -83q-23 -33 -63 -48q-39 -14 -78 -19q-42 -5 -87 -5q-189 0 -268 78t-79 255q0 58 9 106t33 96t63 81t105 54t155 21q64 -2 110 -13q48 -12 84 -42
t36 -76q0 -68 -76 -92q-61 41 -150 42q-110 0 -126 -73z" />
    <glyph glyph-name="afii10054" unicode="&#x405;" horiz-adv-x="589" 
d="M573 218l-1 -2q-4 -113 -78 -172q-73 -58 -230 -58q-252 0 -252 145q0 72 56 107q34 -27 86 -46q50 -18 98 -18q20 0 27 1q16 2 23 4q12 3 18 10t6 20q0 16 -22 25q-24 10 -56 14q-30 4 -72 17q-36 11 -73 32q-35 20 -57 61q-22 42 -24 101q0 104 80 164q79 60 230 60
q118 0 179 -36q62 -36 62 -102q0 -33 -19 -59q-20 -28 -57 -41q-81 57 -195 57q-66 0 -66 -27q0 -16 35 -28q28 -10 84 -25q53 -14 99 -34q50 -21 84 -64q35 -44 35 -106z" />
    <glyph glyph-name="afii10055" unicode="&#x406;" horiz-adv-x="482" 
d="M135 180l2 333q-34 0 -76 -5q-32 47 -32 84q0 39 27 63t78 24h197q68 0 105 10q31 -41 31 -99q0 -74 -78 -78q-11 -2 -11 -13v-332q33 0 75 5q32 -47 32 -90q0 -38 -27 -60q-26 -22 -79 -22h-302q-31 41 -31 89q0 73 78 78q11 2 11 13z" />
    <glyph glyph-name="afii10056" unicode="&#x407;" horiz-adv-x="482" 
d="M135 180l2 333q-34 0 -76 -5q-32 47 -32 84q0 39 27 63t78 24h197q68 0 105 10q31 -41 31 -99q0 -74 -78 -78q-11 -2 -11 -13v-332q33 0 75 5q32 -47 32 -90q0 -38 -27 -60q-26 -22 -79 -22h-302q-31 41 -31 89q0 73 78 78q11 2 11 13z" />
    <glyph glyph-name="afii10057" unicode="&#x408;" horiz-adv-x="396" 
d="M381 551l-2 -419q0 -61 -12 -112q-12 -50 -38 -93q-25 -42 -69 -66t-102 -24q-64 0 -105 37q-42 38 -42 96q0 25 7 45q22 -2 24 -2q53 0 74 34q21 35 24 94v342q-46 7 -69 45q-22 37 -22 87q0 19 3 35q37 2 90 8q14 2 90 11q46 6 80 9q20 0 33 -9q15 -10 20 -19
q7 -12 11 -30q5 -22 5 -33v-36z" />
    <glyph glyph-name="afii10058" unicode="&#x409;" horiz-adv-x="1030" 
d="M707 527l-2 -115q29 42 77 65q49 23 99 23q87 0 135 -60t48 -153q0 -81 -28 -140t-77 -93q-47 -32 -105 -49q-55 -16 -121 -16q-37 0 -72 5q-29 4 -70 20q-38 15 -64 42q-26 28 -44 77t-18 117v234q-2 14 -15 14h-57q-8 -200 -36 -311q-28 -110 -78 -154
q-49 -43 -132 -43q-67 0 -102 38q-34 37 -34 99q0 19 2 33h7q106 0 132 263q0 4 6 76q-94 16 -94 126q0 23 5 53h557q26 0 42 -12t24 -36q8 -27 11 -46q2 -17 4 -57zM700 337l1 -54q0 -97 62 -97q29 0 47 18t18 47q0 26 -12 44t-33 27t-41 12t-42 3z" />
    <glyph glyph-name="afii10059" unicode="&#x40a;" horiz-adv-x="1047" 
d="M724 527l-2 -117q29 42 77 65q49 23 99 23q87 0 135 -60t48 -153q0 -81 -28 -140t-77 -93q-47 -32 -105 -49q-55 -16 -121 -16q-37 0 -72 5q-29 4 -70 20q-38 15 -64 42q-25 26 -43 76q-17 48 -19 115h-143v-76q5 -77 27 -141q-166 -41 -188 -41q-26 0 -42 12t-24 36
q-7 21 -10 47q-2 17 -4 57v341q-46 8 -69 45q-22 37 -22 87q0 18 3 35q37 2 90 8q14 2 90 11q46 6 80 9q20 0 33 -9q15 -10 20 -19q7 -12 11 -30q5 -22 5 -33v-36v-109q0 -11 3 -14t12 -3h128v74q-4 76 -27 141q166 41 188 41q25 0 42 -12t24 -36q8 -27 11 -46q2 -17 4 -57z
M717 335l1 -54q0 -97 62 -97q29 0 47 18t18 47q0 26 -12 44t-33 27t-41 12q-19 3 -42 3z" />
    <glyph glyph-name="afii10060" unicode="&#x40b;" horiz-adv-x="824" 
d="M428 447l2 -135q28 50 72 82q52 37 126 37q71 0 113 -49q42 -50 42 -150v-59q1 -37 15 -52q13 -14 50 -19q-25 -109 -153 -109q-159 0 -159 149v70q0 42 -28 42q-20 0 -27 -4q-43 -18 -50 -84q4 -94 20 -136q-147 -37 -183 -37q-26 0 -42 12t-24 36q-7 21 -10 47
q-2 17 -4 57v330q-7 1 -30 1q-68 0 -129 -33q-43 76 -43 126q0 60 33 87t119 27q40 0 151 -6t150 -6q77 0 141 24q44 -76 44 -127q0 -56 -34 -81t-129 -25h-22q-11 -2 -11 -15z" />
    <glyph glyph-name="afii10061" unicode="&#x40c;" horiz-adv-x="725" 
d="M340 303l-3 -132q5 -77 27 -141q-166 -41 -188 -41q-26 0 -42 12t-24 36q-7 21 -10 47q-2 17 -4 57v341q-46 8 -69 45q-22 37 -22 87q0 18 3 35q37 2 90 8q14 1 90 11q46 6 80 9q20 0 33 -9q15 -10 20 -19q7 -12 11 -30q5 -22 5 -33v-36v-153h29q50 0 69 36q20 37 20 83
q0 50 -27 103q56 59 138 59q68 0 101 -43t33 -102q0 -118 -108 -190q27 -72 77 -128q49 -55 98 -66q-3 -80 -49 -117t-111 -37q-47 0 -78 12t-60 45q-28 32 -49 94q-20 59 -37 157h-43zM553 790l-164 -132q-32 11 -60 34q-28 24 -28 52q0 18 13 34l145 180q35 -6 66 -28
q32 -23 44 -54q9 -21 6 -46t-22 -40z" />
    <glyph glyph-name="afii10062" unicode="&#x40e;" horiz-adv-x="721" 
d="M96 485l-5 -112q0 -106 50 -153q49 -46 125 -46q124 0 195 129v-29q0 -83 -43 -120t-105 -37q-91 0 -128 33q-38 -35 -38 -86q0 -58 56 -90q55 -31 162 -31q333 0 333 342v243q-2 40 -4 57q-3 26 -10 47q-8 24 -24 36t-42 12q-14 0 -34 -4q-22 -4 -42 -9q-3 -1 -54 -14
q-14 -4 -32.5 -8.5t-20.5 -4.5q23 -64 27 -141v-73q-38 -66 -84 -66t-46 57v135v36q0 16 -4 33q-5 21 -10 30t-20 19q-14 9 -33 9q-29 -3 -79 -9q-76 -10 -90 -11q-30 -3 -89 -7q-3 -16 -3 -35q0 -49 23 -87t69 -45zM387 690l1 -1q-86 1 -142 39q-55 37 -55 91q0 33 21 57
q20 23 65 28q48 -60 110 -60q61 0 111 60q45 -5 65 -28q21 -24 21 -56q0 -54 -55 -91q-56 -38 -142 -39z" />
    <glyph glyph-name="afii10145" unicode="&#x40f;" horiz-adv-x="757" 
d="M311 0l-102 -6q-53 0 -82 21q-28 21 -28 86v378q-47 7 -69 45q-22 37 -22 87q0 19 3 35q37 2 90 8q14 1 90 11q46 6 80 9q19 0 33 -9q15 -10 20 -19q7 -12 11 -30q5 -22 5 -33v-36v-357q0 -11 3 -14t12 -3h128v322q-5 77 -27 141q166 41 191 41t42 -12t24 -36
q8 -27 11 -46q2 -17 4 -57v-420q0 -64 -28 -85t-82 -21h-90q-12 0 -16 -13l-31 -118q-13 -51 -45 -51h-47q-31 0 -45 51z" />
    <glyph glyph-name="afii10017" unicode="&#x410;" horiz-adv-x="670" 
d="M210 505l-1 -3q-39 -1 -73 -5q-25 51 -25 94q0 85 139 85h180q52 0 80 -21q29 -21 47 -74l148 -445q19 -62 42 -109q-114 -37 -168 -37q-35 0 -58 20t-39 69l-13 40h-219l-46 -120h-110q-36 0 -52 21t-15 48q1 25 14 55l127 303q22 50 42 79zM368 430l-57 -147
q-5 -17 12 -17h96z" />
    <glyph glyph-name="afii10018" unicode="&#x411;" horiz-adv-x="652" 
d="M115 106v391q-34 0 -76 -5q-32 47 -32 94q0 39 27 63t78 24h391q68 0 105 10q31 -41 31 -109q0 -30 -12 -49q-12 -20 -34 -27q-23 -8 -40 -9q-24 -2 -46 -2h-154v-74q52 16 114 16q109 0 162 -57q53 -58 53 -145q0 -37 -9 -69t-24 -54q-16 -24 -40 -41q-28 -19 -48 -29
q-21 -10 -58 -19q-36 -9 -60 -12q-25 -3 -64 -6q-41 -3 -60 -3h-57q-23 0 -47 2q-16 1 -39 8q-21 6 -33 18q-13 13 -20 33q-8 22 -8 51zM381 300h-27v-148q4 0 7.5 -0.5t5.5 -1.5h2q41 0 64 21q22 21 22 51q0 73 -74 78z" />
    <glyph glyph-name="afii10019" unicode="&#x412;" horiz-adv-x="679" 
d="M393 502h-40v-114h34q73 0 73 62q0 52 -67 52zM266 -3l-1 -3q-37 0 -60 3t-46 13t-34 33q-11 24 -11 60v396q-34 0 -76 -5q-32 47 -32 94q0 28 12 48t34 27q25 8 44 11q21 3 50 3h235q286 0 286 -176q0 -44 -21 -80t-61 -54q59 -14 89 -54q30 -41 30 -95q0 -44 -17 -81
q-16 -35 -42 -58q-25 -23 -66 -39q-37 -15 -75 -25q-32 -8 -84 -13q-55 -5 -80 -5h-74zM398 272h-45v-118q18 -2 33 -2q86 0 86 63q0 57 -74 57z" />
    <glyph glyph-name="afii10020" unicode="&#x413;" horiz-adv-x="623" 
d="M451 453l-97 1q-11 -2 -11 -15v-265q5 -76 27 -141q-166 -41 -188 -41q-26 0 -42 12t-24 36q-7 21 -10 47q-2 17 -4 57v363q-94 16 -94 119q0 23 5 53h416q82 0 144 25q44 -79 44 -133q0 -58 -35 -88q-34 -30 -131 -30z" />
    <glyph glyph-name="afii10021" unicode="&#x414;" horiz-adv-x="766" 
d="M790 84l-2 -109q0 -57 15 -99q-108 -28 -133 -28q-46 0 -64 33t-18 90v28h-357q-11 0 -11 -16v-9q0 -55 15 -97q-108 -28 -133 -28q-46 0 -64 33t-18 90v112q0 84 64 84h11q43 45 69 140q26 94 33 198q-94 16 -94 119q0 23 5 53h527q25 0 42 -12t24 -36q8 -27 11 -46
q2 -17 4 -57v-359h10q64 0 64 -84zM302 166h156q8 0 11 4t3 15v320h-71q-11 0 -12 -12q-17 -253 -87 -327z" />
    <glyph glyph-name="afii10022" unicode="&#x415;" horiz-adv-x="639" 
d="M370 177l122 -3q57 0 105 13q31 -41 31 -102q0 -30 -12 -49q-12 -20 -34 -27q-23 -8 -40 -9q-24 -2 -46 -2h-271q-53 0 -82 21q-28 21 -28 86v395q-34 0 -76 -5q-32 47 -32 94q0 39 27 63t78 24h375q68 0 105 10q31 -41 31 -99q0 -29 -12 -49t-34 -27q-23 -8 -40 -9
q-24 -2 -46 -2h-136v-63q0 -11 3 -14t12 -3h173q13 -32 13 -67q0 -94 -125 -94h-76v-65q0 -11 3 -14t12 -3z" />
    <glyph glyph-name="afii10024" unicode="&#x416;" horiz-adv-x="1005" 
d="M316 127l4 -3q0 -51 15 -93q-53 -53 -144 -53q-65 0 -103 44q-37 43 -37 101q0 64 38 123q37 58 102 94q-23 67 -73 132q-51 66 -94 67q6 67 48 101q43 35 91 35q88 0 143 -70q56 -71 90 -225h7v115q-5 77 -27 141q164 41 187 41t40 -12t24 -36q8 -27 11 -46q2 -17 4 -57
v-132q38 18 58 59q19 39 19 90q0 37 -17 86q50 50 141 50q66 0 102 -40q36 -41 36 -94q0 -59 -33 -108t-90 -81q22 -73 74 -148q51 -74 111 -105q-21 -55 -66 -85t-95 -30q-93 0 -141 65q-47 64 -94 258h-7v-138q5 -76 25 -141q-161 -41 -187 -41q-24 0 -40 12t-24 36
q-7 21 -10 47q-2 17 -4 57v154q-42 -20 -63 -67q-21 -48 -21 -103z" />
    <glyph glyph-name="afii10025" unicode="&#x417;" horiz-adv-x="606" 
d="M283 286l-56 -1q-53 0 -53 54v24q0 54 53 54h55q48 0 48 34q0 35 -61 35q-81 0 -174 -41q-62 26 -62 95q0 68 66 102q67 35 189 35q296 0 296 -175q0 -53 -28 -93q-29 -41 -88 -57q74 -11 110 -54q36 -44 36 -105q0 -56 -25 -96q-25 -39 -71 -64q-44 -23 -102 -34
q-60 -11 -126 -11q-49 0 -99 8q-44 7 -88 26q-42 18 -66 51t-24 79q0 72 43 105q34 -23 96 -39q60 -16 118 -16q74 0 74 45q0 39 -61 39z" />
    <glyph glyph-name="afii10026" unicode="&#x418;" horiz-adv-x="779" 
d="M336 292l169 350q145 35 164 35q25 0 42 -12t24 -36q8 -27 11 -46q2 -17 4 -57v-354q4 -76 27 -141q-166 -41 -186 -41q-25 0 -42 12t-24 36q-7 21 -10 47q-2 17 -4 57v217l-167 -333q-4 -1 -54 -14q-52 -14 -70 -17q-28 -5 -42 -5q-26 0 -42 12t-24 36q-7 21 -10 47
q-2 17 -4 57v341q-46 7 -69 45q-22 37 -22 87q0 19 3 35q36 2 89 8l88 11q45 6 80 9q19 0 33 -9q15 -10 20 -19q7 -12 11 -30q5 -22 5 -33v-36v-259z" />
    <glyph glyph-name="afii10027" unicode="&#x419;" horiz-adv-x="779" 
d="M447 624l-3 1q-45 5 -78 39t-33 77q0 38 21 62t52 36q42 16 63 23q31 10 59 29q28 18 35 45q47 -4 81 -39q35 -35 35 -76q0 -37 -21 -63t-52 -39q-33 -14 -64 -24q-34 -11 -60 -28q-28 -19 -35 -43zM333 293l169 350q145 35 164 35q26 0 42 -12t24 -36q8 -27 11 -46
q2 -17 4 -57v-354q5 -77 27 -141q-166 -41 -186 -41q-26 0 -42 12t-24 36q-7 21 -10 47q-2 17 -4 57v217l-167 -333q-4 -1 -54 -14q-52 -14 -70 -17q-28 -5 -42 -5q-25 0 -42 12t-24 36q-7 21 -10 47q-2 17 -4 57v341q-47 8 -69 45t-22 87q0 18 3 35q36 2 89 8l88 11
q45 6 80 9q20 0 33 -9q15 -10 20 -19q7 -12 11 -30q5 -22 5 -33v-36v-259z" />
    <glyph glyph-name="afii10028" unicode="&#x41a;" horiz-adv-x="725" 
d="M340 303l-3 -132q5 -77 27 -141q-166 -41 -188 -41q-26 0 -42 12t-24 36q-7 21 -10 47q-2 17 -4 57v341q-46 8 -69 45q-22 37 -22 87q0 18 3 35q37 2 90 8q14 1 90 11q46 6 80 9q20 0 33 -9q15 -10 20 -19q7 -12 11 -30q5 -22 5 -33v-36v-153h29q50 0 69 36q20 37 20 83
q0 50 -27 103q56 59 138 59q68 0 101 -43t33 -102q0 -118 -108 -190q27 -72 77 -128q49 -55 98 -66q-3 -80 -49 -117t-111 -37q-47 0 -78 12t-60 45q-28 32 -49 94q-20 59 -37 157h-43z" />
    <glyph glyph-name="afii10029" unicode="&#x41b;" horiz-adv-x="740" 
d="M71 679l560 -2q25 0 42 -12t24 -36q8 -27 11 -46q2 -17 4 -57v-354q4 -76 27 -141q-166 -41 -191 -41q-26 0 -42 12t-24 36q-7 21 -10 47q-2 17 -4 57v338q0 10 -3 15q-3 4 -11 4h-59q-8 -200 -36 -311q-28 -110 -78 -154q-49 -43 -132 -43q-67 0 -102 38q-34 37 -34 99
q0 19 2 33h7q106 0 132 263q0 4 6 76q-94 16 -94 126q0 23 5 53z" />
    <glyph glyph-name="afii10030" unicode="&#x41c;" horiz-adv-x="892" 
d="M320 390l9 -216q4 -91 26 -145l-52 -13q-10 -3 -29 -7.5t-26 -6.5q-20 -4 -42 -9q-20 -4 -35 -4q-23 0 -40 12t-24 36q-7 21 -10 48q-3 24 -3 56l14 343q-46 7 -67 44q-21 36 -21 86q0 20 3 36q43 3 138 15t143 12q42 0 66 -21t40 -67l77 -223l67 223q18 53 48 72
q30 20 80 15l76 -11q58 -8 74 -30q17 -23 20 -89l18 -369q4 -91 26 -145l-53 -13l-56 -14q-18 -5 -42 -9q-21 -4 -36 -4q-23 0 -40 12t-24 36q-7 21 -10 48q-3 24 -3 56l6 246l-51 -140q-13 -34 -30 -52t-45 -18h-52q-26 0 -42 18q-17 19 -33 52z" />
    <glyph glyph-name="afii10031" unicode="&#x41d;" horiz-adv-x="777" 
d="M505 424l-1 71q-4 77 -27 141q166 41 191 41q26 0 42 -12t24 -36q8 -27 11 -46q2 -17 4 -57v-354q5 -76 27 -141q-166 -41 -191 -41t-42 12t-24 36q-7 21 -10 47q-2 17 -4 57v86q0 10 -3 15q-3 4 -11 4h-151v-76q4 -77 27 -141q-166 -41 -188 -41q-25 0 -42 12t-24 36
q-7 21 -10 47q-2 17 -4 57v341q-47 8 -69 45t-22 87q0 18 3 35q37 2 90 8q14 1 90 11q46 6 80 9q19 0 33 -9q15 -10 20 -19q7 -12 11 -30q5 -22 5 -33v-36v-109q0 -11 3 -14t12 -3h150z" />
    <glyph glyph-name="afii10032" unicode="&#x41e;" horiz-adv-x="731" 
d="M287 335v-1q0 -132 103 -132q106 0 106 133q0 63 -27 99t-75 36q-107 0 -107 -135zM393 -13l-2 2q-347 0 -347 327q0 76 21 141t63 116q43 52 111 80q70 29 159 29q339 0 339 -325q0 -75 -20 -141q-19 -64 -60 -117q-40 -52 -108 -82q-67 -30 -156 -30z" />
    <glyph glyph-name="afii10033" unicode="&#x41f;" horiz-adv-x="752" 
d="M12 679l631 1q25 0 42 -12t24 -36q8 -27 11 -46q2 -17 4 -57v-354q4 -77 27 -141q-166 -41 -191 -41q-26 0 -42 12t-24 36q-7 21 -10 47q-2 17 -4 57v338q0 11 -3 15t-11 4h-124v-328q4 -76 27 -141q-166 -41 -188 -41q-25 0 -42 12t-24 36q-7 21 -10 47q-2 17 -4 57v356
q-94 16 -94 126q0 23 5 53z" />
    <glyph glyph-name="afii10034" unicode="&#x420;" horiz-adv-x="689" 
d="M356 208l-2 -37q4 -77 27 -141q-166 -41 -188 -41q-25 0 -42 12t-24 36q-7 21 -10 47q-2 17 -4 57v358q-34 0 -76 -5q-32 47 -32 94q0 28 12 48t34 27q25 8 44 11q21 3 50 3h229q329 -5 329 -235q0 -109 -68 -174q-67 -64 -215 -64q-3 0 -35 2q-7 0 -13.5 0.5t-10.5 1
t-5 0.5zM382 346q84 0 84 82q0 72 -75 72h-37v-153q5 -1 28 -1z" />
    <glyph glyph-name="afii10035" unicode="&#x421;" horiz-adv-x="643" 
d="M384 -12l1 -4q-170 2 -254 87t-84 239q0 166 87 268t265 102q50 0 89 -7q42 -7 78 -24q35 -16 57 -47q21 -30 21 -71q0 -37 -21 -67t-58 -43q-89 50 -159 50q-118 0 -118 -136q0 -60 30 -93t92 -33q87 0 178 56q30 -17 44 -46q15 -30 15 -64q0 -45 -25 -79t-66 -52
q-40 -18 -84 -27t-88 -9z" />
    <glyph glyph-name="afii10036" unicode="&#x422;" horiz-adv-x="659" 
d="M451 439l1 -267q4 -76 27 -141q-166 -41 -188 -41q-25 0 -42 12t-24 36q-7 21 -10 47q-2 17 -4 57v322q-7 1 -30 1q-67 0 -129 -33q-43 76 -43 135q0 60 33 87t119 27q40 0 151 -6t150 -6q78 0 142 24q44 -76 44 -127q0 -55 -35 -84q-34 -28 -129 -28h-22q-11 -2 -11 -15
z" />
    <glyph glyph-name="afii10037" unicode="&#x423;" horiz-adv-x="721" 
d="M96 373l-4 106q-46 7 -69 45q-22 37 -22 87q0 19 3 35q36 2 89 8q14 1 90 11q46 6 80 9q19 0 33 -9q15 -10 20 -19q7 -12 11 -30q5 -22 5 -33v-36v-135q0 -57 46 -57t84 66v73q-4 76 -27 141q6 2 24.5 6.5t28.5 7.5q51 13 54 14q20 5 42 9q25 5 35 5q25 0 42 -12t24 -36
q8 -27 11 -46q2 -17 4 -57v-243q0 -342 -333 -342q-106 0 -162 32q-55 31 -55 90q0 51 38 86q38 -33 128 -33q62 0 105 37t43 120v29q-70 -129 -195 -129q-74 0 -124 47q-49 46 -49 153z" />
    <glyph glyph-name="afii10038" unicode="&#x424;" horiz-adv-x="890" 
d="M643 655v1q133 -2 197 -64q65 -63 65 -175q0 -122 -67 -196q-68 -75 -205 -75h-46q6 -61 23 -118q-135 -35 -180 -35q-24 0 -39 12q-16 13 -23 36q-7 21 -10 47q-2 17 -4 56v5q-23 -4 -57 -4q-133 2 -197 64q-65 63 -65 175q0 122 67 196q68 75 205 75h46v18
q-6 61 -21 93q156 33 177 33q40 0 57 -32q17 -33 20 -90v-26q23 4 57 4zM586 311h33q37 0 60 21q22 21 22 68q0 40 -19 62q-20 23 -57 23q-24 0 -39 -4v-170zM242 402v-1q0 -40 19 -62q20 -23 57 -23q25 0 37 3v171h-31q-38 0 -60 -21t-22 -67z" />
    <glyph glyph-name="afii10039" unicode="&#x425;" horiz-adv-x="664" 
d="M30 525v-3q3 79 42 115t97 36q61 0 103 -39q44 -41 113 -157q73 103 75 191q29 7 71 7q55 0 90 -30t35 -93q0 -58 -43 -110l-117 -143q40 -70 80 -99q38 -28 108 -28q2 -14 2 -32q0 -68 -36 -110t-104 -42q-66 0 -117 39t-99 117l-26 40q-52 -68 -72 -108t-24 -84
q-40 -9 -64 -9q-55 0 -89 29q-33 28 -33 90q0 61 43 113l128 144l-19 30q-41 63 -74 95q-34 32 -70 41z" />
    <glyph glyph-name="afii10040" unicode="&#x426;" horiz-adv-x="788" 
d="M684 0l-478 -8q-54 0 -82 21t-28 86v378q-46 7 -69 45q-22 37 -22 87q0 19 3 35q37 2 90 8q14 2 90 11q46 6 80 9q20 0 33 -9q15 -10 20 -19q7 -12 11 -30q5 -22 5 -33v-36v-355q0 -11 3 -14t12 -3h128v320q-4 77 -27 141q166 41 191 41q26 0 42 -12t24 -36q8 -27 11 -46
q2 -17 4 -57v-411q0 -11 10 -12q126 -23 126 -160q0 -94 -46 -141q-47 -48 -127 -48q-23 0 -69 8t-63 8q-33 0 -52 -14q-18 -14 -18 -48q-61 0 -94 37t-33 88q0 62 41 95q40 33 114 33q32 0 81 -10t79 -10q43 0 43 35q0 26 -33 26z" />
    <glyph glyph-name="afii10041" unicode="&#x427;" horiz-adv-x="732" 
d="M460 398l-1 97q-5 77 -27 141q166 41 191 41t42 -12t24 -36q8 -27 11 -46q2 -17 4 -57v-354q4 -76 27 -141q-166 -41 -191 -41q-26 0 -42 12t-24 36q-7 21 -10 47q-2 17 -4 57v133q-64 -114 -195 -114q-75 0 -126 45t-51 145v132q-46 7 -69 45q-22 37 -22 87q0 19 3 35
q37 2 90 8q14 2 90 11q46 6 80 9q20 0 33 -9q15 -10 20 -19q7 -12 11 -30q5 -22 5 -33v-36v-145q0 -48 50 -48t81 40z" />
    <glyph glyph-name="afii10042" unicode="&#x428;" horiz-adv-x="987" 
d="M846 0l-642 -7q-54 0 -82 21t-28 86v378q-46 8 -69 45q-22 37 -22 87q0 18 3 35q63 5 144 15t102 12q20 0 33 -9q15 -10 20 -19q7 -12 11 -30q5 -22 5 -33v-36v-360q0 -11 3 -14t12 -3h71v325q-5 77 -27 141q16 3 66 17q44 12 69 18t42 6q25 0 42 -12t24 -36
q8 -27 11 -46q2 -17 4 -57v-342q2 -12 15 -12h71v325q-4 77 -27 141q11 2 66 17q49 13 70 18q25 6 42 6q25 0 42 -12t24 -36q8 -27 11 -46q2 -17 4 -57v-420q0 -64 -28 -85t-82 -21z" />
    <glyph glyph-name="afii10043" unicode="&#x429;" horiz-adv-x="1028" 
d="M910 0l-703 -8q-53 0 -82 21q-28 21 -28 86v378q-47 7 -69 45q-22 37 -22 87q0 19 3 35q63 4 144 15t102 12q19 0 33 -9q15 -10 20 -19q7 -12 11 -30q5 -22 5 -33v-36v-360q0 -11 3 -14t12 -3h71v325q-4 76 -27 141q16 3 66 17q43 12 69 18t42 6q26 0 42 -12t24 -36
q8 -27 11 -46q2 -17 4 -57v-342q1 -12 15 -12h71v325q-5 76 -27 141q11 2 66 17q49 13 70 18q26 6 42 6q26 0 42 -12t24 -36q8 -27 11 -46q2 -17 4 -57v-408q0 -14 10 -15q136 -22 136 -160q0 -93 -50 -141q-49 -48 -138 -48q-25 0 -79 8t-72 8q-77 0 -77 -63q-66 0 -102 37
t-36 88q0 62 45 95t123 33q34 0 90 -10t89 -10q47 0 47 34q0 27 -35 27z" />
    <glyph glyph-name="afii10044" unicode="&#x42a;" horiz-adv-x="725" 
d="M397 342l1 -54q0 -97 62 -97q29 0 47 18t18 47q0 26 -12 44t-33 27t-41 12q-19 3 -42 3zM162 255v228q0 11 -3 15t-11 4h-47q-33 0 -71 -5q-32 47 -32 94q0 39 27 63t78 24h230q19 0 33 -9q15 -10 20 -19q7 -12 11 -30q5 -22 5 -33v-36v-134q29 42 77 65q49 23 99 23
q87 0 135 -60t48 -153q0 -81 -28 -140t-77 -93q-47 -32 -105 -49q-55 -16 -121 -16q-37 0 -72 5q-29 4 -70 20q-38 15 -64 42q-26 28 -44 77q-18 50 -18 117z" />
    <glyph glyph-name="afii10045" unicode="&#x42b;" horiz-adv-x="983" 
d="M95 253l-2 228q-44 7 -67 45q-22 37 -22 87q0 19 3 35q36 2 87 8q13 1 87 11q45 6 77 9q24 0 38 -10q15 -10 21 -33q5 -20 7 -39q2 -22 2 -45v-134q29 42 74 65q46 23 93 23q83 0 129 -60q47 -61 47 -153q0 -80 -27 -140q-27 -59 -74 -93q-45 -32 -101 -49
q-52 -16 -116 -16q-34 0 -69 5q-29 4 -67 20q-35 15 -61 42q-25 27 -42 77q-17 51 -17 117zM320 338v-56q0 -97 59 -97q27 0 45 18t18 47q0 88 -122 88zM700 140l-1 353q-5 77 -27 141q166 41 186 41q26 0 42 -12t24 -36q8 -27 11 -46q2 -17 4 -57v-354q5 -76 27 -141
q-166 -41 -186 -41q-26 0 -42 12t-24 36q-7 21 -10 47q-2 17 -4 57z" />
    <glyph glyph-name="afii10046" unicode="&#x42c;" horiz-adv-x="655" 
d="M91 253v229q-43 10 -64 45t-21 81q0 16 4 39q36 2 87 8q21 2 86 11l79 10q20 0 33 -9q15 -10 20 -19q7 -12 11 -30q5 -22 5 -33v-36v-134q29 42 77 65q49 23 99 23q87 0 135 -60t48 -153q0 -81 -28 -140t-77 -93q-47 -32 -105 -49q-55 -16 -121 -16q-37 0 -72 5
q-29 4 -70 20q-38 15 -64 42q-26 28 -44 77q-18 50 -18 117zM327 339l1 -54q0 -97 62 -97q29 0 47 18t18 47q0 26 -12 44t-33 27t-41 12q-19 3 -42 3z" />
    <glyph glyph-name="afii10047" unicode="&#x42d;" horiz-adv-x="610" 
d="M57 241l-1 4q86 -56 198 -56q134 0 138 79h-185q-42 0 -42 62v37q0 62 42 62h184q-2 37 -39 53q-39 17 -90 17t-102 -13q-53 -14 -82 -31q-37 36 -37 91q0 137 246 137q100 0 169 -27t105 -78t51 -109q15 -59 15 -135q0 -172 -84 -259t-267 -87q-257 0 -257 154
q0 66 38 99z" />
    <glyph glyph-name="afii10048" unicode="&#x42e;" horiz-adv-x="1000" 
d="M694 -12l-4 2q-282 0 -313 261h-43v-76q4 -77 27 -141q-161 -41 -184 -41t-40 12t-24 36q-7 21 -10 47q-2 17 -4 57v341q-47 8 -68 44t-21 86q0 18 3 35q36 2 87 8q9 1 89 11q50 6 79 9q15 0 28 -5t20 -15q8 -11 12 -21t6 -27q2 -22 2 -28v-31v-106q0 -11 3 -14t12 -3h36
q25 116 104 186q78 69 206 69q158 0 233 -85t75 -240q0 -161 -79 -265q-79 -105 -232 -106zM595 337l-1 -1q0 -132 92 -132q95 0 95 133q0 63 -24 99t-66 36q-96 0 -96 -135z" />
    <glyph glyph-name="afii10049" unicode="&#x42f;" horiz-adv-x="674" 
d="M646 506l-3 -333q5 -77 27 -141q-156 -39 -187 -39q-25 0 -42 12t-24 36q-7 21 -10 47q-2 17 -4 57v64q-40 0 -54 2q-1 -5 -8 -30l-9 -31l-9 -30q-5 -15 -11 -30q-3 -6 -14 -27q-9 -17 -18 -24t-21 -18q-10 -9 -26 -16q-14 -6 -31 -9q-18 -3 -39 -3q-65 0 -108 39
t-46 125q71 17 126 106q-45 23 -69 66t-24 96q0 70 27 121t77 80q50 28 108 42q61 14 127 14q113 0 190 -24q25 -7 40 -21q16 -14 23 -36q8 -23 9 -42t3 -53zM344 351l58 1v156h-63q-29 0 -45 -21q-17 -22 -17 -57q0 -79 67 -79z" />
    <glyph glyph-name="afii10065" unicode="&#x430;" 
d="M596 310l-2 -104q0 -42 33 -42q9 0 27 6q13 -33 13 -66q0 -53 -37 -84q-38 -32 -99 -32q-56 0 -92 21t-56 77q-53 -95 -183 -98q-85 0 -138 40q-54 40 -54 120q0 58 35 98q35 39 84 54q50 15 113 15q60 0 109 -16q-4 64 -93 64q-105 0 -157 -43q-52 30 -52 88q0 57 70 90
q71 33 189 33q53 0 95 -6q41 -6 79 -21t62 -39t39 -63t15 -92zM349 211l-1 25q-20 0 -43 -5q-20 -4 -40 -21q-19 -16 -19 -42q0 -21 12 -33t32 -12q59 0 59 88z" />
    <glyph glyph-name="afii10066" unicode="&#x431;" horiz-adv-x="644" 
d="M507 756l-5 -2q40 -13 64 -46t24 -67q0 -43 -24 -70t-60 -36l-79 -20q-36 -9 -78 -23q-36 -12 -60 -48q-24 -35 -22 -91q23 57 75 90t117 33q89 0 138 -51q50 -52 50 -153q0 -132 -84 -207t-235 -75q-296 0 -296 326q2 87 24 153t59 104q35 37 80 63q43 25 92 39
q48 13 90 24t78 24q35 13 52 33zM274 250q0 -37 17 -63q16 -25 53 -25q25 0 43 15t18 41q0 32 -28 48t-66 16q-25 0 -37 -4v-28z" />
    <glyph glyph-name="afii10067" unicode="&#x432;" horiz-adv-x="637" 
d="M347 217h-36v-89q14 -2 27 -2q62 0 62 48q0 43 -53 43zM544 287l-2 -4q53 -11 77 -44t24 -78q0 -176 -363 -176q-41 0 -68 3q-25 3 -56 11q-28 7 -45 23q-16 15 -27 41q-10 24 -10 63v264q-24 1 -43 11q-17 9 -25 27q-7 16 -10 34q-3 16 -3 39q0 19 1 24h404
q103 0 158 -38q54 -37 54 -99q0 -30 -18 -59t-48 -42zM344 388h-35v-88h35q50 0 50 45q0 43 -50 43z" />
    <glyph glyph-name="afii10068" unicode="&#x433;" horiz-adv-x="603" 
d="M544 547l1 -2q43 -76 43 -125q0 -82 -129 -87h-114q-8 0 -11 -3t-3 -11v-147q1 -37 15 -52q13 -14 50 -19q-24 -109 -154 -109q-159 0 -159 149v251q-31 1 -51 14q-19 12 -27 35q-7 22 -9 41q-2 24 -2 44h445q55 2 105 21z" />
    <glyph glyph-name="afii10069" unicode="&#x434;" horiz-adv-x="724" 
d="M418 153l-2 235h-45q-7 0 -10 -3t-4 -13q-25 -188 -72 -234h119q8 0 11 3t3 12zM518 -54l-1 52h-294q-8 0 -11 -3t-3 -12v-8q5 -56 24 -107q-18 -4 -52 -15q-35 -11 -61 -18q-27 -7 -55 -7q-22 0 -37 9t-21 29q-7 22 -8 36q-2 17 -3 43v111q0 81 57 81h19q36 36 64 110
q27 72 30 144q-98 3 -98 134h518q23 0 38 -9t22 -28q7 -17 10 -36q2 -13 4 -43v-272h14q58 0 58 -81l-1 -80q5 -56 24 -107q-18 -4 -52 -15q-35 -11 -61 -18q-27 -7 -55 -7q-22 0 -37 9t-21 29q-7 22 -8 36q-2 17 -3 43z" />
    <glyph glyph-name="afii10070" unicode="&#x435;" horiz-adv-x="641" 
d="M45 245h-1q0 134 82 210q83 77 228 77q128 0 201 -45t73 -127q0 -41 -22 -70q-22 -30 -61 -46q-39 -17 -82 -24q-41 -7 -93 -7q-39 0 -84 8q14 -47 110 -47q99 0 164 43q21 -14 33 -40q12 -27 12 -52q0 -68 -72 -103q-71 -34 -180 -34q-308 0 -308 257zM294 289l-1 1
q61 2 92 18q32 17 32 42q0 36 -40 36q-39 0 -60 -28q-22 -29 -23 -69z" />
    <glyph glyph-name="afii10072" unicode="&#x436;" horiz-adv-x="959" 
d="M821 269h-6q19 -54 59 -108q38 -51 86 -76q-9 -47 -48 -72q-40 -26 -88 -26q-82 0 -126 50t-83 191h-15v-87q5 -57 25 -108q-24 -5 -69 -15q-54 -13 -77 -17q-32 -6 -46 -6q-24 0 -39 9q-14 8 -22 29q-7 17 -10 36q-2 12 -4 44v115q-77 -14 -77 -124q0 -34 17 -71
q-46 -52 -135 -52q-63 0 -96 38q-33 37 -33 87q0 52 30 96t81 72q-25 52 -60 90t-70 39q4 64 44 96t88 32q77 0 120 -51t78 -168h15v73q-4 55 -24 108q172 40 193 40q20 0 33 -7q14 -8 21 -18t12 -27t6 -30q2 -14 3 -34v-102q34 9 52 38t18 63q0 35 -17 67q45 49 134 49
q61 0 94 -34t33 -81q0 -90 -97 -148z" />
    <glyph glyph-name="afii10073" unicode="&#x437;" horiz-adv-x="582" 
d="M263 217l-52 -2q-52 0 -52 48v19q0 48 52 48h49q36 0 36 20q0 21 -49 21q-77 0 -158 -34q-62 23 -62 81q0 112 240 112q274 0 274 -141q0 -35 -23 -66q-23 -30 -68 -47q56 -13 87 -47q30 -33 30 -77q0 -58 -42 -97t-106 -54q-65 -15 -150 -15q-49 0 -93 6t-81 21t-60 42
q-22 26 -22 64q0 58 45 88q30 -19 87 -31q55 -12 105 -12q64 0 64 30q0 23 -51 23z" />
    <glyph glyph-name="afii10074" unicode="&#x438;" horiz-adv-x="736" 
d="M318 432l-6 -185q15 29 48 99q10 21 19.5 41t17 36t10.5 22q27 52 80 64q59 13 125 21q32 0 48 -18q16 -17 19 -36q3 -18 3 -49v-290q3 -55 24 -109q-34 -7 -82 -18t-67 -15q-20 -4 -42 -4q-40 0 -54 32q-13 31 -15 87v173l-92 -202q-25 -51 -83 -66q-61 -17 -123 -24
q-24 0 -39 9t-21 27q-5 15 -7 32q-1 9 -1 36v271q-21 0 -36 6t-24 18q-8 10 -15 23q-7 11 -8 29q-2 24 -2 29v30q61 3 144 15t111 15q20 0 33 -6t21 -15q8 -10 11 -24q3 -15 3 -26v-28z" />
    <glyph glyph-name="afii10075" unicode="&#x439;" horiz-adv-x="736" 
d="M414 488l-3 1q-45 5 -78 39t-33 77q0 38 21 62t52 36q42 16 63 23q31 10 59 29q28 18 35 45q46 -4 81 -39t35 -76q0 -37 -21 -63t-52 -39q-33 -14 -64 -24q-34 -11 -60 -28q-28 -19 -35 -43zM315 433l-6 -185q15 28 48 99q10 21 19.5 41t17 36t10.5 22q27 52 80 64
q59 13 125 21q31 0 48 -18q16 -17 19 -36q3 -18 3 -49v-290q3 -55 24 -109q-34 -7 -82 -18t-67 -15q-20 -4 -42 -4q-40 0 -54 32t-15 87v173l-92 -202q-25 -51 -83 -66q-62 -16 -123 -24q-24 0 -39 9t-21 27q-5 15 -7 32q-1 9 -1 36v271q-21 0 -36 6t-24 18q-8 10 -15 23
q-7 11 -8 29q-2 24 -2 29v30q62 3 144 15t111 15q19 0 33 -6t21 -15q8 -10 11 -24q3 -15 3 -26v-28z" />
    <glyph glyph-name="afii10076" unicode="&#x43a;" horiz-adv-x="706" 
d="M338 228l-2 -90q4 -58 24 -108l-68 -15q-53 -13 -82 -18q-32 -6 -48 -6q-24 0 -39 9q-14 8 -22 29q-7 17 -10 36q-2 12 -4 44v255q-24 1 -43 11q-18 9 -27 23t-15 33q-5 17 -7 35q-1 10 -1 35q62 1 159 15t117 15q20 0 33 -6t21 -15q8 -10 11 -24q3 -15 3 -26v-28v-120
q84 10 84 92q0 38 -18 78q49 49 126 49q56 0 93 -31q38 -32 38 -90q0 -86 -84 -141q43 -110 135 -127q0 -74 -45 -114q-46 -41 -101 -41q-78 0 -121 51q-44 51 -81 190h-26z" />
    <glyph glyph-name="afii10077" unicode="&#x43b;" horiz-adv-x="715" 
d="M417 388l-32 3q-8 0 -11 -4q-3 -5 -3 -18q-4 -208 -60 -292q-55 -84 -171 -84q-62 0 -96 33q-35 33 -35 92q0 20 6 48q15 -3 23 -3q34 0 57 23t32 65t12 71q2 21 4 69q-57 3 -81 44t-23 90h553q24 0 39 -9q14 -9 22 -27q6 -15 10 -35q2 -12 4 -42v-279q3 -59 24 -108
q-165 -32 -199 -32q-24 0 -39 9q-14 8 -22 29q-7 17 -10 36q-2 12 -4 44v277z" />
    <glyph glyph-name="afii10078" unicode="&#x43c;" horiz-adv-x="855" 
d="M562 107l3 166l-51 -88q-12 -20 -24 -28q-11 -7 -34 -7h-24q-22 0 -33 7q-12 7 -25 28l-60 88l6 -133q3 -59 23 -107q-167 -42 -189 -42q-79 0 -79 115l12 259q-26 2 -41 10q-17 9 -26 20q-9 10 -15 32q-5 18 -7 36q-2 16 -3 40q102 8 167 15q49 6 87 11q21 3 25 3
q35 0 54 -13q20 -14 35 -45l81 -155l86 166q14 25 31 35q19 11 52 11l90 -6q52 -3 71 -24q20 -22 23 -72l10 -288q3 -59 23 -107q-166 -42 -189 -42q-79 0 -79 115z" />
    <glyph glyph-name="afii10079" unicode="&#x43d;" horiz-adv-x="746" 
d="M448 111v73q0 9 -3 12t-11 3h-96v-61q5 -57 25 -108l-71 -16q-62 -13 -81 -17q-33 -6 -48 -6q-24 0 -39 9q-14 8 -22 29q-7 17 -10 36q-2 12 -4 44v255q-24 1 -43 11q-17 9 -27 23q-9 14 -15 33q-5 17 -7 35q-1 10 -1 35q52 1 147 14q89 12 128 15q20 0 33 -6t21 -15
q8 -10 11 -24q3 -15 3 -26v-28v-77q0 -8 3 -11t11 -3h96v43q-4 55 -24 108q172 40 199 40q20 0 33 -7q14 -8 21 -18t12 -27t6 -30q2 -14 3 -34v-275q5 -57 25 -108l-71 -16q-62 -13 -81 -17q-33 -6 -48 -6q-24 0 -39 9q-14 8 -22 29q-7 17 -10 36q-2 12 -4 44z" />
    <glyph glyph-name="afii10080" unicode="&#x43e;" 
d="M273 260l-2 -3q0 -32 18 -56t53 -24q30 0 51 22q21 23 21 60q0 39 -19 61t-49 22q-31 0 -52 -22t-21 -60zM346 -15l1 2q-160 0 -237 68q-76 67 -76 189q0 124 81 205t232 81q156 0 231 -69t75 -190q0 -124 -79 -204t-228 -82z" />
    <glyph glyph-name="afii10081" unicode="&#x43f;" horiz-adv-x="724" 
d="M427 387l-75 -3q-8 0 -11 -3t-3 -12v-231q5 -57 25 -108q-23 -4 -69 -15q-14 -3 -41 -9t-39 -9q-31 -7 -49 -7q-24 0 -39 9q-14 8 -22 29q-7 17 -10 36q-2 12 -4 44v276q-31 1 -52 15t-30 37q-9 24 -12 43t-3 45h606q24 0 39 -9q14 -9 22 -27q6 -15 10 -35q2 -12 4 -42
v-270q4 -53 24 -109q-35 -7 -69 -16q-48 -12 -81 -18t-49 -6q-43 0 -57 32t-15 87v276z" />
    <glyph glyph-name="afii10082" unicode="&#x440;" horiz-adv-x="709" 
d="M87 -73l-1 442q-92 2 -92 135q48 1 136 14q83 12 119 15q21 0 35 -8t18 -25q5 -18 6 -31q2 -18 2 -36v-31q29 65 81 98q53 33 116 33q90 0 141 -64t51 -178q0 -139 -62 -221q-61 -81 -156 -81q-88 0 -147 62v-154q1 -38 15 -58q13 -19 48 -24q-25 -108 -144 -108
q-76 0 -121 54t-45 166zM331 333v-52q0 -42 18 -70t55 -28q29 0 44 20t15 47q0 42 -27 66t-66 24q-22 0 -39 -7z" />
    <glyph glyph-name="afii10083" unicode="&#x441;" horiz-adv-x="602" 
d="M332 -12h-2q-151 0 -229 69t-78 189q0 131 80 209t233 78q100 0 174 -50t74 -120q0 -41 -27 -68t-78 -27q-25 0 -46 7q-2 38 -27 56q-26 18 -60 18q-44 0 -63 -24q-20 -25 -20 -60q0 -85 107 -85q93 0 143 50q25 -16 39 -45q14 -30 14 -58q0 -65 -60 -102
q-59 -37 -174 -37z" />
    <glyph glyph-name="afii10084" unicode="&#x442;" horiz-adv-x="590" 
d="M532 547l-1 1q43 -76 43 -125q0 -88 -148 -88h-16q-10 -1 -10 -15v-147q1 -37 15 -52q13 -14 50 -19q-25 -109 -154 -109q-159 0 -159 149v203h-25q-67 0 -120 -32q-41 80 -41 132q0 92 137 92q37 0 147 -6t147 -6q78 0 135 22z" />
    <glyph glyph-name="afii10085" unicode="&#x443;" horiz-adv-x="698" 
d="M425 127l-5 -5q-36 -77 -79 -108t-105 -31q-152 0 -152 191v187q-24 1 -43 11q-17 9 -27 23q-9 13 -15 33q-5 17 -7 35q-1 10 -1 35q52 1 147 14q89 12 128 15q20 0 33 -6t21 -15q8 -10 11 -24q3 -15 3 -26v-28v-223q0 -42 35 -42q23 0 38 27t15 74v116q-4 58 -24 108
q172 40 193 40q20 0 33 -7q14 -7 21 -18t12 -27t6 -30q2 -14 3 -34v-128q0 -71 -5 -143q-5 -65 -18 -134q-14 -70 -37 -121q-24 -51 -60 -94q-37 -43 -91 -65t-126 -22q-82 0 -129 41q-46 40 -46 101q0 69 59 98q34 -29 82 -29q31 0 55 15q25 16 38 36t22 51q9 30 12 56
q3 25 3 53z" />
    <glyph glyph-name="afii10086" unicode="&#x444;" horiz-adv-x="865" 
d="M337 -93l3 100q-34 -8 -72 -8q-119 0 -179 72t-60 173q0 133 79 205q80 72 213 72h20v26q-5 98 -34 147q18 5 68 20q64 20 75 23q32 9 45 9q67 0 67 -136v-95q28 5 63 5q123 0 185 -71t62 -174q0 -133 -79 -205t-213 -72h-20v-103q1 -37 17 -57q15 -19 50 -24
q-7 -54 -45 -81t-90 -27q-77 0 -116 48t-39 153zM238 262h-1q0 -46 24 -76t68 -30h10v218q-49 0 -75 -32t-26 -80zM663 262h-1q0 48 -26 80t-75 32v-218h10q44 0 68 30t24 76z" />
    <glyph glyph-name="afii10087" unicode="&#x445;" horiz-adv-x="632" 
d="M615 166h-4q7 -21 7 -46q0 -58 -39 -96q-38 -37 -103 -37q-113 0 -198 124l-14 18l-28 -37q-34 -51 -36 -98q-46 -11 -65 -11q-55 0 -90 26q-34 25 -34 81q0 48 37 91l102 101l-5 8q-42 57 -67 79q-26 23 -60 24q0 44 15 74q15 29 39 43q24 13 44 18q22 5 41 5
q58 0 101 -28q44 -29 98 -111l20 29q26 38 26 80q0 11 -4 18q49 11 76 11q55 0 90 -26t35 -81q0 -51 -37 -91l-92 -99q28 -41 53 -57q23 -14 62 -16q18 0 30 4z" />
    <glyph glyph-name="afii10088" unicode="&#x446;" horiz-adv-x="770" 
d="M650 0l-485 -4q-27 0 -44 9q-16 9 -24 29q-7 17 -10 36q-2 12 -4 44v247q-24 1 -43 11q-18 9 -27 23q-9 13 -15 33q-5 17 -7 35q-1 10 -1 35q61 1 160 15q99 13 114 15q20 0 33 -6t21 -15q8 -10 11 -24q3 -15 3 -26v-28v-279q0 -9 3 -12t11 -3h96v246q-5 60 -25 108
q173 40 201 40q23 0 38 -9q14 -9 22 -27q6 -15 10 -35q2 -12 4 -42v-328q0 -10 9 -12q77 -7 112 -50q34 -41 34 -105q0 -93 -51 -136q-50 -43 -122 -43q-34 0 -99 14t-94 14q-77 0 -78 -69q-57 0 -92 39q-35 40 -35 91q0 55 41 96q40 40 113 40q44 0 110 -18t90 -18
q50 0 50 39q0 30 -30 30z" />
    <glyph glyph-name="afii10089" unicode="&#x447;" horiz-adv-x="698" 
d="M653 416l-6 -249q1 -37 15 -52q13 -14 50 -19q-25 -109 -154 -109q-159 0 -159 149v58q-59 -101 -176 -101q-65 0 -108 36t-45 108v125q-24 1 -43 11q-17 9 -27 23q-9 14 -15 33q-5 17 -7 35q-1 10 -1 35q62 2 158 15q96 14 117 15q24 0 39 -9t21 -25q7 -18 8 -30
q2 -18 2 -36v-114q0 -41 29 -41q28 0 52 30v77q-5 60 -25 108q173 40 201 40q23 0 38 -9q14 -9 22 -27q6 -15 10 -35q2 -12 4 -42z" />
    <glyph glyph-name="afii10090" unicode="&#x448;" horiz-adv-x="948" 
d="M845 0l-676 -10q-27 0 -44 9q-16 9 -24 29q-7 17 -10 36q-2 12 -4 44v247q-31 1 -52 15t-30 36t-12 42t-3 45q58 3 143 15t114 15q19 0 33 -6t21 -15q8 -10 11 -24q3 -15 3 -26v-28v-279q0 -9 3 -12t11 -3h57v246q-5 60 -25 108q21 5 65 15l49 12q22 6 32 8q4 1 12.5 2.5
t11.5 2.5q6 1 16 1q23 0 38 -9q14 -9 22 -27q6 -15 10 -35q2 -12 4 -42v-263q0 -9 3 -12t11 -3h57v245q-5 60 -25 108q21 5 65 15l49 12q22 6 32 8q4 1 12.5 2.5t11.5 2.5q6 1 16 1q23 0 38 -9q14 -9 22 -27q6 -15 10 -35q2 -12 4 -42v-297q-2 -32 -4 -44q-3 -19 -10 -36
q-8 -20 -24 -29q-17 -9 -44 -9z" />
    <glyph glyph-name="afii10091" unicode="&#x449;" horiz-adv-x="1015" 
d="M695 138l-3 236q-5 60 -25 108q21 5 65 15l49 12q22 6 32 8q4 1 12.5 2.5t11.5 2.5q6 1 16 1q23 0 38 -9q14 -9 22 -27q6 -15 10 -35q2 -12 4 -42v-326q0 -11 11 -13q87 -7 127 -50q39 -42 39 -105q0 -93 -58 -136t-139 -43q-40 0 -115 14t-105 14q-91 0 -92 -69
q-68 0 -104 39t-36 89q0 59 46 98q47 39 127 39q49 0 124 -18t103 -18q58 0 58 39q0 27 -37 30h-704q-28 0 -44 9t-24 29q-7 17 -10 36q-2 12 -4 44v247q-31 1 -52 15t-30 36t-12 42t-3 45q58 3 143 15q86 12 114 15q20 0 33 -6t21 -15q8 -10 11 -24q3 -15 3 -26v-28v-279
q0 -9 3 -12t11 -3h57v246q-5 60 -25 108q21 5 65 15l49 12q22 6 32 8q4 1 12.5 2.5t11.5 2.5q6 1 16 1q23 0 38 -9q14 -9 22 -27q6 -15 10 -35q2 -12 4 -42v-263q0 -9 3 -12t11 -3h57z" />
    <glyph glyph-name="afii10092" unicode="&#x44a;" horiz-adv-x="682" 
d="M116 203l2 141q0 16 -13 16h-21q-33 0 -68 -5q-29 44 -29 87q0 38 25 60q26 23 75 23h207q24 0 39 -9t21 -25q7 -18 8 -30q2 -18 2 -36v-74q29 29 69 47q41 18 80 18q83 0 132 -55q50 -56 50 -135q0 -53 -21 -95q-21 -43 -54 -68q-33 -26 -76 -42q-46 -17 -87 -23
q-43 -6 -90 -6q-116 0 -184 47q-67 46 -67 164zM358 279v-42q0 -39 15 -58t39 -19q19 0 31 12t12 35q0 38 -28 54q-29 17 -69 18z" />
    <glyph glyph-name="afii10093" unicode="&#x44b;" horiz-adv-x="975" 
d="M677 111v272q-5 55 -24 108l79 17q92 23 120 23q20 0 33 -7q13 -8 21 -18t12 -27t6 -30q2 -14 3 -34v-275q5 -57 25 -108l-71 -16q-62 -13 -81 -17q-33 -6 -48 -6q-24 0 -39 9q-14 8 -22 29q-7 17 -10 36q-2 12 -4 44zM326 431l-2 -80q58 64 138 64q83 0 132 -55
q50 -56 50 -135q0 -67 -28 -114q-28 -48 -76 -73q-47 -25 -100 -37q-52 -12 -111 -12q-55 0 -99 9q-43 9 -80 32q-36 23 -56 65q-19 41 -19 104v163q-24 2 -39 10q-16 9 -24 20q-7 10 -12 32q-4 19 -4 33v35v10q58 1 152 14q98 13 110 14q20 0 33 -6t21 -15q8 -10 11 -24
q3 -15 3 -26v-28zM319 280l1 -40q0 -40 15 -60q15 -19 39 -19q37 0 37 48q0 69 -92 71z" />
    <glyph glyph-name="afii10094" unicode="&#x44c;" horiz-adv-x="652" 
d="M77 203v159q-24 2 -39 10q-16 9 -24 20q-7 10 -12 32q-4 19 -4 33v35v10q58 1 152 14q98 13 110 14q20 0 33 -6t21 -15q8 -10 11 -24q3 -15 3 -26v-28v-79q29 29 69 47q41 18 80 18q83 0 132 -55q50 -56 50 -135q0 -53 -21 -95q-21 -43 -54 -68q-33 -26 -76 -42
q-46 -17 -87 -23q-43 -6 -90 -6q-55 0 -99 9q-43 9 -80 32q-36 23 -56 65q-19 41 -19 104zM321 278v-40q0 -40 15 -60q15 -19 39 -19q19 0 31 12t12 35q0 38 -28 54t-69 18z" />
    <glyph glyph-name="afii10095" unicode="&#x44d;" horiz-adv-x="550" 
d="M13 110h-4q0 26 14 51q13 24 36 36q50 -44 136 -44q113 0 114 57h-122q-52 0 -52 48v19q0 48 52 48h122q-4 49 -114 49q-77 0 -123 -31q-43 16 -43 71q0 117 219 117q88 0 150 -21q61 -21 94 -60q34 -40 47 -85q14 -48 14 -106q0 -272 -313 -272q-34 0 -72 5
q-32 4 -72 17q-37 12 -60 38t-23 63z" />
    <glyph glyph-name="afii10096" unicode="&#x44e;" horiz-adv-x="927" 
d="M651 -12l-1 -3q-129 0 -202 56q-72 55 -84 158h-37v-61q5 -57 25 -108q-26 -4 -69 -15q-53 -13 -75 -17q-31 -6 -46 -6q-24 0 -39 9q-14 8 -22 29q-7 17 -10 36q-2 12 -4 44v255q-24 1 -43 11q-18 9 -27 23q-9 13 -15 33q-5 17 -7 35q-1 10 -1 35q51 1 141 14
q85 12 123 15q20 0 33 -6t21 -15q8 -10 11 -24q3 -15 3 -26v-28v-77q0 -8 3 -11t11 -3h34q25 86 96 139q70 52 178 52q142 0 213 -69q70 -69 70 -190q0 -123 -73 -203t-207 -82zM583 257v-3q0 -33 16 -56q17 -24 48 -24q27 0 45 22t18 60t-18 61q-18 22 -45 22
q-28 0 -46 -22q-18 -23 -18 -60z" />
    <glyph glyph-name="afii10097" unicode="&#x44f;" horiz-adv-x="650" 
d="M363 157l-33 -3q-26 -97 -67 -132q-42 -36 -114 -36q-56 0 -97 29q-40 28 -46 87q45 20 96 87q-84 47 -84 141q0 70 50 117t122 65t166 18q85 0 180 -22q31 -7 48 -26q16 -18 21 -36t6 -51v-259q5 -57 25 -108q-175 -35 -198 -35q-24 0 -39 9q-14 8 -22 29q-7 17 -10 36
q-2 12 -4 44v46zM315 277h45v106h-49q-24 0 -40 -14q-15 -13 -15 -38q0 -54 59 -54z" />
    <glyph glyph-name="afii10071" unicode="&#x451;" horiz-adv-x="641" 
d="M223 548h-1q-53 0 -81 23q-27 23 -27 60q0 39 35 69t93 30q55 0 81 -22q27 -22 27 -60q0 -40 -34 -70t-93 -30zM492 548h-1q-53 0 -81 23q-27 23 -27 60q0 39 35 69q34 30 93 30q55 0 81 -22q27 -22 27 -60q0 -40 -34 -70q-35 -30 -93 -30zM43 245l1 -5q0 -257 308 -257
q107 0 180 35q72 35 72 104q0 25 -12 52q-12 26 -33 40q-65 -43 -164 -43q-96 0 -110 47q45 -8 84 -8q47 0 93 8q43 7 82 24q38 16 61 47q22 29 22 70q0 82 -73 127q-74 45 -201 45q-146 0 -228 -76t-82 -210zM294 284l1 -1q1 40 23 69q21 28 60 28q40 0 40 -36
q0 -25 -32 -42q-31 -16 -92 -18z" />
    <glyph glyph-name="afii10099" unicode="&#x452;" horiz-adv-x="731" 
d="M352 631l115 -1q25 0 53 7q24 -29 24 -62q0 -57 -81 -57h-111v-149q68 132 192 132q70 0 111 -50q40 -49 40 -150v-233q0 -53 -6 -101q-6 -47 -24 -97q-18 -49 -45 -85q-26 -35 -72 -58q-44 -22 -102 -22q-62 0 -102 35q-39 34 -39 87q0 24 11 54q19 -10 39 -10
q30 0 50 17t29 48t12 62q3 30 3 71v210q0 42 -28 42q-27 0 -48 -38q-21 -37 -21 -96v-47q5 -57 25 -108q-27 -5 -71 -15q-61 -14 -78 -17q-32 -6 -45 -6q-24 0 -39 9q-14 8 -22 29q-7 17 -10 36q-2 12 -4 44v408h-7q-25 0 -53 -7q-24 29 -24 62q0 57 81 57h3v82
q123 35 171 35q39 0 54 -33q14 -32 19 -85z" />
    <glyph glyph-name="afii10100" unicode="&#x453;" horiz-adv-x="603" 
d="M544 547l1 -2q43 -76 43 -125q0 -82 -129 -87h-114q-8 0 -11 -3t-3 -11v-147q1 -37 15 -52q13 -14 50 -19q-24 -109 -154 -109q-159 0 -159 149v251q-31 1 -51 14q-19 12 -27 35q-7 22 -9 41q-2 24 -2 44h445q55 2 105 21zM385 683l-164 -132q-32 11 -60 34
q-28 24 -28 52q0 18 13 34l145 180q35 -6 66 -28q32 -23 44 -54q9 -21 6 -46t-22 -40z" />
    <glyph glyph-name="afii10101" unicode="&#x454;" horiz-adv-x="552" 
d="M256 322l120 -3q52 0 52 -48v-19q0 -48 -52 -48h-123q3 -29 28 -41t84 -12q72 0 122 44q23 -12 36 -36q14 -25 14 -51q0 -122 -219 -122q-166 0 -237 59q-70 58 -70 210q0 53 15 100t48 87q33 41 95 65q61 24 147 24q98 0 158 -30t60 -85q0 -26 -16 -48t-42 -33
q-44 34 -135 34q-37 0 -60 -9q-22 -9 -25 -38z" />
    <glyph glyph-name="afii10102" unicode="&#x455;" horiz-adv-x="592" 
d="M270 362l-4 3q0 -9 30 -17l74 -19q44 -11 87 -27q44 -17 74 -51q30 -35 30 -83q0 -176 -284 -176q-236 0 -236 120q0 30 17 56q16 25 47 39q81 -51 180 -51q32 0 32 18q0 11 -27 17q-44 10 -66 14q-39 7 -78 21q-38 13 -66 47q-27 33 -27 83q0 83 74 131q73 48 213 48
q110 0 168 -30q59 -30 59 -85q0 -28 -21 -54t-64 -39q-27 22 -78 37q-50 15 -96 15q-38 0 -38 -17z" />
    <glyph glyph-name="afii10103" unicode="&#x456;" horiz-adv-x="392" 
d="M342 141l-3 290v29q0 11 -3 26q-3 16 -10 24q-8 9 -21 15t-33 6q-36 -3 -127 -15q-95 -13 -147 -14q0 -25 1 -35q2 -18 7 -35q6 -20 15 -33t27 -22q17 -8 44 -10v-255q2 -32 4 -44q3 -19 10 -36q8 -21 22 -29q15 -9 39 -9q15 0 48 6q19 4 81 17l71 16q-20 51 -25 108z
M329 668l-1 1q0 -51 -34 -81t-100 -30q-125 0 -125 97q0 50 38 82q37 31 101 31q58 0 90 -27q31 -27 31 -73z" />
    <glyph glyph-name="afii10104" unicode="&#x457;" horiz-adv-x="532" 
d="M109 558h-1q-53 0 -81 23q-27 23 -27 60q0 39 35 69t93 30q55 0 81 -22q27 -22 27 -60q0 -40 -34 -70t-93 -30zM378 558h-1q-53 0 -81 23q-27 23 -27 60q0 39 35 69q34 30 93 30q55 0 81 -22q27 -22 27 -60q0 -40 -34 -70q-35 -30 -93 -30zM411 141l-3 290v29q0 11 -3 26
q-3 16 -10 24q-7 9 -21 15t-33 6q-36 -3 -127 -15q-95 -13 -147 -14q0 -25 1 -35q2 -18 7 -35q6 -20 15 -33q8 -13 27 -22q17 -8 44 -10v-255q2 -32 4 -44q3 -19 10 -36q8 -21 22 -29q15 -9 39 -9q15 0 48 6q19 4 81 17l71 16q-20 51 -25 108z" />
    <glyph glyph-name="afii10105" unicode="&#x458;" horiz-adv-x="384" 
d="M349 69v361v29q0 11 -3 26q-3 16 -10 24q-8 9 -21 15t-33 6q-36 -3 -127 -15q-95 -13 -146 -14q0 -25 1 -35q2 -18 7 -35q6 -19 15 -33q8 -13 27 -22q17 -8 44 -10v-265q0 -46 -1 -62q-2 -24 -6 -60q-4 -34 -14 -57q-9 -22 -28 -36q-20 -15 -45 -15q-20 0 -39 10
q-11 -30 -11 -54q0 -53 39 -87q40 -35 102 -35q56 0 102 23t72 58q27 36 45 85q18 50 24 97q6 48 6 101zM334 667l-1 1q0 -51 -34 -81q-35 -30 -100 -30q-125 0 -125 97q0 50 38 82q37 31 101 31q59 0 90 -27t31 -73z" />
    <glyph glyph-name="afii10106" unicode="&#x459;" horiz-adv-x="983" 
d="M415 389l-36 -1q-8 0 -11 -4t-3 -18q-4 -208 -60 -292q-55 -84 -171 -84q-62 0 -96 33q-35 33 -35 92q0 19 6 48q15 -3 23 -3q28 0 49 18t31 40q11 24 17 59q7 41 8 59q1 22 3 54q-57 3 -81 44t-23 90h549q24 0 39 -9q14 -9 22 -27q6 -15 10 -35q2 -12 4 -42v-59
q29 29 69 47q41 18 80 18q83 0 132 -55q50 -56 50 -135q0 -52 -20 -95t-52 -68q-33 -26 -76 -42q-45 -17 -86 -23q-42 -6 -88 -6q-55 0 -99 9q-43 9 -80 32q-36 23 -56 65q-19 41 -19 104v186zM650 281v-40q0 -41 15 -60t39 -19q19 0 31 12t12 35q0 38 -28 54q-29 17 -69 18
z" />
    <glyph glyph-name="afii10107" unicode="&#x45a;" horiz-adv-x="1011" 
d="M443 187l-5 -4q0 9 -3 12t-11 3h-91v-61q5 -57 25 -108l-71 -16q-62 -13 -81 -17q-33 -6 -48 -6q-24 0 -39 9q-14 8 -22 29q-7 17 -10 36q-2 12 -4 44v255q-24 1 -43 11q-18 9 -27 23q-9 13 -15 33q-5 17 -7 35q-1 10 -1 35q52 1 147 14q89 12 128 15q19 0 33 -6t21 -15
q8 -10 11 -24q3 -15 3 -26v-28v-77q0 -8 3 -11t11 -3h91v43q-4 56 -24 108q172 40 197 40q20 0 33 -7q14 -7 21 -18t12 -27t6 -30q2 -14 3 -34v-63q28 28 70 46t81 18q83 0 132 -55q50 -56 50 -135q0 -52 -20 -95t-52 -68q-33 -26 -76 -42q-45 -17 -86 -23q-42 -6 -88 -6
q-114 0 -182 44q-67 43 -72 152zM680 278v-40q0 -40 15 -60q15 -19 39 -19q19 0 31 12t12 35q0 38 -28 54q-29 16 -69 18z" />
    <glyph glyph-name="afii10108" unicode="&#x45b;" horiz-adv-x="732" 
d="M687 302v-132q1 -37 15 -52q13 -14 50 -19q-25 -109 -153 -109q-159 0 -159 149v140q0 42 -28 42q-27 0 -48 -38q-21 -37 -21 -96v-47q5 -57 25 -108q-27 -5 -71 -15q-61 -14 -78 -17q-31 -6 -45 -6q-24 0 -39 9q-14 8 -22 29q-7 17 -10 36q-2 12 -4 44v408h-7
q-25 0 -53 -7q-24 29 -24 62q0 57 81 57h3v82q123 35 171 35q39 0 54 -33q14 -32 19 -85h116q25 0 53 7q24 -29 24 -62q0 -57 -81 -57h-111v-149q68 132 192 132q70 0 111 -50q40 -49 40 -150z" />
    <glyph glyph-name="afii10109" unicode="&#x45c;" horiz-adv-x="706" 
d="M338 228l-2 -90q4 -58 24 -108l-68 -15q-53 -13 -82 -18q-32 -6 -48 -6q-24 0 -39 9q-14 8 -22 29q-7 17 -10 36q-2 12 -4 44v255q-24 1 -43 11q-18 9 -27 23t-15 33q-5 17 -7 35q-1 10 -1 35q62 1 159 15t117 15q20 0 33 -6t21 -15q8 -10 11 -24q3 -15 3 -26v-28v-120
q84 10 84 92q0 38 -18 78q49 49 126 49q56 0 93 -31q38 -32 38 -90q0 -86 -84 -141q43 -110 135 -127q0 -74 -45 -114q-46 -41 -101 -41q-78 0 -121 51q-44 51 -81 190h-26zM539 648l-164 -132q-32 11 -60 34q-28 24 -28 52q0 18 13 34l145 180q35 -6 66 -28q32 -23 44 -54
q9 -21 6 -46t-22 -40z" />
    <glyph glyph-name="afii10110" unicode="&#x45e;" horiz-adv-x="698" 
d="M425 127l-1 -7q0 -28 -3 -53t-12 -55q-9 -31 -22 -51q-14 -22 -37 -36q-24 -15 -55 -15q-48 0 -82 29q-59 -29 -59 -98q0 -60 46 -100t129 -40q69 0 126 23q54 22 91 65q36 41 60 95q25 54 38 122q13 69 18 134q5 72 5 143v128q-2 22 -3 35q-2 14 -6 30t-12 27t-21 18
t-33 7q-21 0 -193 -40q19 -50 24 -108v-116q0 -46 -15 -73t-38 -27q-35 0 -35 42v223v29q0 11 -3 26q-3 16 -10 24q-8 9 -21 15t-33 6q-36 -3 -127 -15q-95 -13 -147 -14q0 -25 1 -35q2 -18 7 -35q6 -20 15 -33t27 -22q17 -8 44 -10v-187q0 -191 152 -191q61 0 105 32
t80 108zM365 545l2 -1q-86 1 -142 39q-55 37 -55 91q0 33 21 57q20 23 65 28q48 -60 110 -60t111 60q43 -4 64 -28t21 -56q0 -54 -55 -91q-56 -38 -142 -39z" />
    <glyph glyph-name="afii10193" unicode="&#x45f;" horiz-adv-x="724" 
d="M704 416v-304q-2 -32 -4 -44q-3 -19 -10 -36q-8 -20 -24 -29t-44 -9h-109q-10 -1 -13 -12l-31 -118q-13 -51 -45 -51h-47q-31 0 -45 51l-33 131h-118q-27 0 -44 9q-16 9 -24 29q-7 17 -10 36q-2 12 -4 44v247q-31 2 -54 15t-33 36q-11 23 -15 43q-4 19 -4 44q61 2 168 15
q109 14 116 15q19 0 33 -6t21 -15q8 -10 11 -24q3 -15 3 -26v-28v-279q0 -9 3 -12t11 -3h95v246q-5 60 -25 108q173 40 201 40q23 0 38 -9q14 -9 22 -27q6 -15 10 -35q2 -12 4 -42z" />
    <glyph glyph-name="afii10050" unicode="&#x490;" horiz-adv-x="624" 
d="M13 679h364q107 0 107 91q70 -8 101 -54q32 -47 32 -111q0 -79 -45 -115t-121 -36h-97q-11 -2 -11 -15v-265q5 -76 27 -141q-166 -41 -188 -41q-26 0 -42 12t-24 36q-7 21 -10 47q-2 17 -4 57v363q-94 16 -94 119q0 23 5 53z" />
    <glyph glyph-name="afii10098" unicode="&#x491;" horiz-adv-x="622" 
d="M354 323v-152q1 -37 15 -52q13 -14 50 -19q-24 -109 -154 -109q-159 0 -159 149v251q-99 1 -99 134h395q30 0 45 7q17 8 24 22q7 15 9 27q2 16 2 33q64 -5 98 -46q35 -43 35 -97q0 -57 -34 -95q-35 -39 -96 -39h-117q-8 0 -11 -3t-3 -11z" />
    <glyph glyph-name="Wacute" unicode="&#x1e82;" horiz-adv-x="936" 
d="M411 18l-6 -7q-63 -30 -134 -30q-89 0 -120 63q-32 63 -57 265q-11 94 -31 152q-21 61 -66 86q9 59 48 92t92 33q41 0 70 -16q30 -16 49 -43q19 -26 34 -78q15 -51 24 -102q7 -42 19 -133l61 176q9 27 17 43q6 12 18 24t30 12h56q26 0 38 -18q13 -20 26 -61l60 -201
q58 147 58 228q0 65 -31 99q16 34 51 54q34 19 75 19q55 0 95 -38q39 -37 39 -114q0 -85 -63 -260l-14 -42q-12 -36 -15 -48l-11 -39q-7 -24 -10 -46q-3 -20 -3 -39q0 -17 3 -33q-78 -29 -136 -30q-52 -1 -91 33q-39 35 -57 99l-49 210l-62 -196q-19 -58 -7 -114zM629 713
l-164 -132q-32 11 -60 34q-28 24 -28 52q0 18 13 34l145 180q35 -6 66 -28q32 -23 44 -54q9 -21 6 -46t-22 -40z" />
    <glyph glyph-name="ygrave" unicode="&#x1ef3;" horiz-adv-x="688" 
d="M425 127l-5 -5q-36 -77 -79 -108t-105 -31q-152 0 -152 191v187q-24 1 -43 11q-17 9 -27 23q-9 13 -15 33q-5 17 -7 35q-1 10 -1 35q52 1 147 14q89 12 128 15q20 0 33 -6t21 -15q8 -10 11 -24q3 -15 3 -26v-28v-223q0 -42 35 -42q23 0 38 27t15 74v116q-4 58 -24 108
q172 40 193 40q20 0 33 -7q14 -7 21 -18t12 -27t6 -30q2 -14 3 -34v-128q0 -71 -5 -143q-5 -65 -18 -134q-14 -70 -37 -121q-24 -51 -60 -94q-37 -43 -91 -65t-126 -22q-82 0 -129 41q-46 40 -46 101q0 69 59 98q34 -29 82 -29q31 0 55 15q25 16 38 36t22 51q9 30 12 56
q3 25 3 53zM369 522l-164 132q-37 28 -18 87q13 31 45 54t66 27l145 -180q14 -16 14 -34q0 -28 -28 -52q-28 -23 -60 -34z" />
    <glyph glyph-name="endash" unicode="&#x2013;" horiz-adv-x="643" 
d="M482 191q-42 0 -174 6t-152 6q-63 0 -111 -23q-31 38 -31 98q0 54 32 81t114 27q42 0 174 -6t152 -6q63 0 111 23q31 -38 31 -98q0 -54 -32 -81t-114 -27z" />
    <glyph glyph-name="emdash" unicode="&#x2014;" horiz-adv-x="728" 
d="M574 191q-42 0 -224 6t-201 6q-63 0 -111 -23q-31 38 -31 98q0 54 32 81q31 27 114 27q43 0 224 -6t201 -6q63 0 111 23q31 -38 31 -98q0 -54 -32 -81t-114 -27z" />
    <glyph glyph-name="quoteleft" unicode="&#x2018;" horiz-adv-x="281" 
d="M272 641l-2 1q-67 -31 -67 -87q0 -19 13 -46t13 -42q0 -35 -33 -58q-32 -22 -73 -22q-55 0 -84 38t-29 87q0 71 50 126q50 54 123 54q67 0 89 -51z" />
    <glyph glyph-name="quoteright" unicode="&#x2019;" horiz-adv-x="281" 
d="M9 436v-3q67 31 67 87q0 18 -13 45t-13 43q0 36 33 59q34 23 74 23q55 0 84 -38t29 -87q0 -73 -49 -126q-49 -54 -123 -54q-66 0 -89 51z" />
    <glyph glyph-name="quotedblleft" unicode="&#x201c;" horiz-adv-x="534" 
d="M522 641l-2 1q-67 -31 -67 -87q0 -19 13 -46t13 -42q0 -35 -33 -58q-32 -22 -73 -22q-55 0 -84 38t-29 87q0 71 50 126q50 54 123 54q67 0 89 -51zM273 642l-2 1q-67 -31 -67 -87q0 -19 13 -46t13 -42q0 -36 -33 -58q-32 -22 -73 -22q-55 0 -84 38t-29 87q0 71 50 126
q49 54 123 54q66 0 89 -51z" />
    <glyph glyph-name="quotedblright" unicode="&#x201d;" horiz-adv-x="534" 
d="M12 436v-3q67 31 67 87q0 18 -13 45t-13 43q0 36 33 59q34 23 74 23q55 0 84 -38t29 -87q0 -73 -49 -126q-50 -54 -123 -54q-67 0 -89 51zM259 433v-3q67 31 67 87q0 18 -13 45t-13 43q0 37 33 59q34 23 74 23q55 0 84 -38t29 -87q0 -73 -49 -126q-49 -54 -123 -54
q-66 0 -89 51z" />
    <glyph glyph-name="quotedblbase" unicode="&#x201e;" horiz-adv-x="534" 
d="M12 -62v-2q67 31 67 87q0 19 -13 45t-13 42q0 36 33 59q34 23 74 23q55 0 84 -38t29 -87q0 -73 -49 -126q-50 -54 -123 -54q-67 0 -89 51zM259 -64v-2q67 31 67 87q0 19 -13 45t-13 42q0 36 33 59q34 23 74 23q55 0 84 -38t29 -87q0 -73 -49 -126q-49 -54 -123 -54
q-66 0 -89 51z" />
    <glyph glyph-name="dagger" unicode="&#x2020;" horiz-adv-x="542" 
d="M377 341l-25 -298q-8 -60 -61 -60q-56 0 -75 19l-24 338q17 59 92 59q44 0 66 -13q22 -14 27 -45zM6 503h-2q0 33 18 60t49 39q48 -44 130 -48q-30 81 -30 131q0 76 88 76h18q37 0 59 -14q21 -13 25 -28q4 -13 4 -34q0 -30 -32 -131q52 46 111 46q42 0 68 -25
q27 -25 27 -72q0 -67 -54 -108q-52 28 -144 28q-43 0 -114 -13t-109 -13q-44 0 -78 25t-34 81z" />
    <glyph glyph-name="bullet" unicode="&#x2022;" horiz-adv-x="421" 
d="M194 138l-1 -1q-89 0 -135 48q-47 49 -47 116q0 77 58 136q59 60 157 60q87 0 135 -48t48 -115q0 -77 -58 -136q-59 -60 -157 -60z" />
    <glyph glyph-name="ellipsis" unicode="&#x2026;" horiz-adv-x="783" 
d="M121 -12v-3q-51 0 -79 26q-27 25 -27 68q0 44 34 78q35 35 91 35q53 0 79 -25q27 -25 27 -67q0 -44 -34 -78t-91 -34zM382 -15v-3q-51 0 -79 26q-27 26 -27 68q0 44 34 78q35 35 91 35q53 0 79 -25q27 -26 27 -67q0 -44 -34 -78t-91 -34zM643 -18v-3q-51 0 -79 26
q-27 25 -27 68q0 44 34 78q35 35 91 35q53 0 79 -25q27 -25 27 -67q0 -44 -34 -78t-91 -34z" />
    <glyph glyph-name="afii61352" unicode="&#x2116;" horiz-adv-x="1217" 
d="M875 -1l175 -1q122 0 122 79q0 45 -32 85q-45 -19 -100 -19h-175q-65 0 -93 -24q-29 -24 -29 -64q0 -35 32 -75q45 19 100 19zM675 446l-7 -432q-38 -20 -95 -20q-73 0 -96 27l-198 254v-128q0 -65 26 -138q-79 -19 -114 -19q-29 0 -49 9q-19 9 -28 29q-9 19 -12 41
q-3 21 -3 55v306q-32 0 -57 -4q-32 41 -32 75q0 35 27 56t76 21h91q92 -3 147 -69l143 -192v52v52q-1 72 -26 138q77 19 113 19q57 0 76 -33t18 -99zM887 377v2q0 -31 15 -54q15 -22 48 -22q30 0 48 20q18 19 18 57t-16 57q-17 20 -45 20q-29 0 -49 -20q-19 -19 -19 -60z
M945 180q-223 0 -223 190q0 94 57 152q57 59 166 59q214 0 214 -189q0 -91 -54 -151t-160 -61z" />
    <glyph glyph-name="trademark" unicode="&#x2122;" horiz-adv-x="930" 
d="M318 620h-24v-140q0 -34 15 -75q-105 -24 -121 -24q-52 0 -52 86v153h-29q-35 0 -66 -15q-29 44 -29 78q0 30 23 48t63 18h211q41 0 65 15q30 -44 30 -78q0 -30 -23 -48t-63 -18zM411 467l15 202q1 76 51 76h60q35 0 54 -9t30 -38l36 -93q32 76 38 93q11 29 30 38t55 9
h64q28 0 38 -19q10 -20 12 -57l5 -192q1 -25 18 -75l-39 -9q-9 -2 -24.5 -5.5t-20.5 -4.5q-17 -4 -36 -4q-31 0 -42 24q-11 25 -11 63l5 106l-25 -53q-23 -41 -51 -41h-31q-31 0 -51 41l-27 53l5 -93q2 -24 19 -75q-14 -3 -39 -9q-7 -2 -46 -10q-19 -4 -39 -4q-53 0 -53 86z
" />
    <glyph glyph-name="onethird" unicode="&#x2153;" horiz-adv-x="1142" 
d="M1061 405l-202 1q-69 0 -99 10q-30 -24 -30 -61q0 -32 23 -57q23 -24 66 -24h135l-103 -38q-26 -11 -26 -30v-10q0 -16 28 -19l56 -7q28 -3 28 -19q0 -30 -60 -30q-74 0 -133 37q-37 -24 -37 -67q0 -50 54 -74t147 -24q224 0 224 131q0 50 -37 75q-38 26 -121 29l99 39
q41 19 42 45l2 38v5q0 50 -56 50zM326 378l88 -1q16 -29 16 -59q0 -58 -67 -58h-329q-16 28 -16 60q0 57 68 57h42v157q-50 0 -81 17q-29 16 -40 59q22 6 77 23q59 18 86 26q36 10 63 10h35q32 0 45 -13t13 -42v-236zM790 526l-334 -493q-32 -45 -81 -45q-65 0 -93 57
q28 21 51 54l334 493q31 45 81 45q64 0 93 -57q-29 -21 -51 -54z" />
    <glyph glyph-name="twothirds" unicode="&#x2154;" horiz-adv-x="1143" 
d="M203 390l69 -5q75 0 110 32q27 -11 46 -35q18 -22 18 -48q0 -33 -28 -55t-88 -22h-299q-22 35 -22 66q0 59 76 87q30 11 60 23q17 7 38 18q24 13 29 22q6 11 6 24q0 16 -14 27t-42 11q-52 0 -102 -28q-51 33 -51 73q0 43 54 67t144 24q99 0 153 -30t54 -90
q0 -112 -211 -161zM1059 400l-202 1q-69 0 -99 10q-30 -24 -30 -61q0 -32 23 -57q23 -24 66 -24h135l-103 -38q-26 -11 -26 -30v-10q0 -16 28 -19l56 -7q28 -3 28 -19q0 -30 -60 -30q-74 0 -133 37q-37 -24 -37 -67q0 -50 54 -74t147 -24q224 0 224 131q0 50 -37 75
q-38 26 -121 29l99 39q41 20 42 45l2 38v5q0 50 -56 50zM790 522l-334 -493q-32 -45 -81 -45q-65 0 -93 57q28 21 51 54l334 493q31 45 81 45q64 0 93 -57q-29 -21 -51 -54z" />
    <glyph glyph-name="oneeighth" unicode="&#x215b;" horiz-adv-x="1144" 
d="M679 111l2 2q0 -60 62 -90q61 -30 162 -30t166 30q64 30 64 95q0 37 -25 62q-26 26 -70 36q71 26 71 86q0 53 -53 82q-52 28 -150 28q-84 0 -145 -29q-60 -29 -60 -84q0 -57 67 -85q-40 -9 -65 -36q-26 -28 -26 -67zM868 303v-1q0 27 43 27q46 0 46 -28q0 -25 -41 -39
q-48 18 -48 41zM907 86v1q-58 0 -58 37q0 25 52 43q60 -25 60 -51q0 -30 -54 -30zM795 528l-334 -493q-31 -45 -81 -45q-64 0 -93 57q29 21 51 54l334 493q32 45 81 45q65 0 93 -57q-28 -21 -51 -54zM329 379l88 -1q16 -29 16 -59q0 -58 -67 -58h-329q-16 28 -16 60
q0 57 68 57h42v157q-50 0 -81 17q-29 16 -40 59q22 6 77 23q59 18 86 26q36 10 63 10h35q32 0 45 -13t13 -42v-236z" />
    <glyph glyph-name="threeeighths" unicode="&#x215c;" horiz-adv-x="1148" 
d="M684 111l-2 -3q0 39 26 67q25 27 65 36q-67 28 -67 85q0 56 60 84q61 29 145 29q98 0 150 -28q53 -29 53 -82q0 -60 -71 -86q44 -10 70 -36q25 -25 25 -62q0 -64 -64 -94t-166 -30q-100 0 -162 30t-62 90zM869 298v1q0 -23 48 -41q41 14 41 39q0 28 -46 28q-43 0 -43 -27
zM908 83v-1q54 0 54 30q0 26 -60 51q-52 -18 -52 -43q0 -37 58 -37zM796 523l-334 -493q-32 -45 -81 -45q-65 0 -93 57q28 21 51 54l334 493q31 45 81 45q64 0 93 -57q-29 -21 -51 -54zM162 662l202 -2q30 0 44 -14t12 -41l-2 -38q-3 -29 -42 -45l-99 -39q83 -3 121 -29
q37 -25 37 -75q0 -131 -224 -131q-93 0 -147 24t-54 74q0 43 37 67q59 -37 133 -37q60 0 60 30q0 16 -18 20q-20 5 -64 5q-30 0 -30 21v10q0 19 26 30l103 38h-135q-44 0 -66 24q-23 25 -23 57q0 37 30 61q30 -10 99 -10z" />
    </font>
</defs>
</svg>
